SeanSans-CompressedMedium.ufo
<glyph name="exclam" format="1">
  <advance width="244"/>
  <unicode hex="0021"/>
  <outline>
    <contour>
      <point x="167" y="229" type="line"/>
      <point x="173" y="722" type="line"/>
      <point x="72" y="722" type="line"/>
      <point x="77" y="229" type="line"/>
    </contour>
    <contour>
      <point x="168" y="38" type="curve"/>
      <point x="168" y="69"/>
      <point x="149" y="84"/>
      <point x="122" y="84" type="curve"/>
      <point x="94" y="84"/>
      <point x="76" y="67"/>
      <point x="76" y="38" type="curve"/>
      <point x="170" y="38"/>
      <point x="75" y="38"/>
      <point x="168" y="38" type="curve"/>
      <point x="168" y="7"/>
      <point x="149" y="-7"/>
      <point x="122" y="-7" type="curve"/>
      <point x="93" y="-7"/>
      <point x="76" y="8"/>
      <point x="76" y="38" type="curve"/>
      <point x="170" y="38"/>
      <point x="75" y="38"/>
    </contour>
  </outline>
</glyph>
<glyph name="numbersign" format="1">
  <advance width="487"/>
  <unicode hex="0023"/>
  <outline>
    <contour>
      <point x="40" y="231" type="curve"/>
      <point x="389" y="231" type="curve"/>
      <point x="405" y="300" type="curve"/>
      <point x="55" y="300" type="curve"/>
    </contour>
    <contour>
      <point x="83" y="459" type="curve"/>
      <point x="433" y="459" type="curve"/>
      <point x="449" y="527" type="curve"/>
      <point x="97" y="527" type="curve"/>
    </contour>
    <contour>
      <point x="303" y="39" type="curve"/>
      <point x="441" y="722" type="curve"/>
      <point x="355" y="722" type="curve"/>
      <point x="217" y="39" type="curve"/>
    </contour>
    <contour>
      <point x="132" y="46" type="curve"/>
      <point x="269" y="722" type="curve"/>
      <point x="183" y="722" type="curve"/>
      <point x="50" y="46" type="curve"/>
    </contour>
  </outline>
</glyph>
<glyph name="dollar" format="1">
  <advance width="414"/>
  <unicode hex="0024"/>
  <outline>
    <contour>
      <point x="236" y="-43" type="curve"/>
      <point x="236" y="-11"/>
      <point x="236" y="47"/>
      <point x="236" y="79" type="curve"/>
      <point x="150" y="79"/>
      <point x="236" y="79"/>
      <point x="150" y="79" type="curve"/>
      <point x="150" y="47"/>
      <point x="150" y="-11"/>
      <point x="150" y="-43" type="curve"/>
      <point x="236" y="-43"/>
      <point x="150" y="-43"/>
    </contour>
    <contour>
      <point x="243" y="650" type="curve"/>
      <point x="243" y="682"/>
      <point x="243" y="741"/>
      <point x="243" y="773" type="curve"/>
      <point x="157" y="773"/>
      <point x="243" y="773"/>
      <point x="157" y="773" type="curve"/>
      <point x="157" y="741"/>
      <point x="157" y="682"/>
      <point x="157" y="650" type="curve"/>
      <point x="243" y="650"/>
      <point x="157" y="650"/>
    </contour>
    <contour>
      <point x="48" y="95" type="curve"/>
      <point x="85" y="68"/>
      <point x="133" y="45"/>
      <point x="189" y="45" type="curve"/>
      <point x="298" y="45"/>
      <point x="372" y="116"/>
      <point x="372" y="210" type="curve"/>
      <point x="372" y="295"/>
      <point x="309" y="355"/>
      <point x="227" y="405" type="curve"/>
      <point x="172" y="440"/>
      <point x="134" y="472"/>
      <point x="134" y="531" type="curve"/>
      <point x="134" y="575"/>
      <point x="156" y="618"/>
      <point x="202" y="618" type="curve"/>
      <point x="243" y="618"/>
      <point x="270" y="601"/>
      <point x="300" y="576" type="curve"/>
      <point x="344" y="634"/>
      <point x="300" y="576"/>
      <point x="344" y="634" type="curve"/>
      <point x="301" y="667"/>
      <point x="262" y="686"/>
      <point x="205" y="686" type="curve"/>
      <point x="108" y="686"/>
      <point x="48" y="618"/>
      <point x="48" y="531" type="curve"/>
      <point x="48" y="447"/>
      <point x="97" y="391"/>
      <point x="176" y="343" type="curve"/>
      <point x="235" y="308"/>
      <point x="286" y="270"/>
      <point x="286" y="207" type="curve"/>
      <point x="286" y="154"/>
      <point x="252" y="113"/>
      <point x="197" y="113" type="curve"/>
      <point x="155" y="113"/>
      <point x="122" y="136"/>
      <point x="97" y="156" type="curve"/>
      <point x="48" y="95"/>
      <point x="97" y="156"/>
    </contour>
  </outline>
</glyph>
<glyph name="percent" format="1">
  <advance width="785"/>
  <unicode hex="0025"/>
  <outline>
    <contour>
      <point x="299" y="-62" type="line"/>
      <point x="571" y="731" type="line"/>
      <point x="490" y="731" type="line"/>
      <point x="218" y="-62" type="line"/>
    </contour>
    <contour>
      <point x="105" y="524" type="curve"/>
      <point x="105" y="604"/>
      <point x="112" y="674"/>
      <point x="179" y="674" type="curve"/>
      <point x="247" y="675"/>
      <point x="255" y="605"/>
      <point x="255" y="524" type="curve"/>
      <point x="255" y="443"/>
      <point x="251" y="371"/>
      <point x="184" y="371" type="curve"/>
      <point x="114" y="371"/>
      <point x="105" y="442"/>
      <point x="105" y="524" type="curve"/>
      <point x="78" y="524"/>
      <point x="60" y="524"/>
      <point x="33" y="524" type="curve"/>
      <point x="33" y="404"/>
      <point x="73" y="310"/>
      <point x="180" y="310" type="curve"/>
      <point x="290" y="310"/>
      <point x="330" y="405"/>
      <point x="330" y="527" type="curve"/>
      <point x="330" y="645"/>
      <point x="290" y="736"/>
      <point x="183" y="736" type="curve"/>
      <point x="75" y="736"/>
      <point x="33" y="643"/>
      <point x="33" y="524" type="curve"/>
      <point x="60" y="524"/>
      <point x="78" y="524"/>
    </contour>
    <contour>
      <point x="527" y="150" type="curve"/>
      <point x="527" y="230"/>
      <point x="534" y="300"/>
      <point x="601" y="300" type="curve"/>
      <point x="669" y="301"/>
      <point x="677" y="231"/>
      <point x="677" y="150" type="curve"/>
      <point x="677" y="69"/>
      <point x="673" y="-4"/>
      <point x="606" y="-4" type="curve"/>
      <point x="536" y="-4"/>
      <point x="527" y="68"/>
      <point x="527" y="150" type="curve"/>
      <point x="500" y="150"/>
      <point x="482" y="150"/>
      <point x="456" y="150" type="curve"/>
      <point x="456" y="30"/>
      <point x="495" y="-65"/>
      <point x="602" y="-65" type="curve"/>
      <point x="712" y="-65"/>
      <point x="752" y="31"/>
      <point x="752" y="153" type="curve"/>
      <point x="752" y="271"/>
      <point x="712" y="362"/>
      <point x="605" y="362" type="curve"/>
      <point x="497" y="362"/>
      <point x="456" y="269"/>
      <point x="456" y="150" type="curve"/>
      <point x="482" y="150"/>
      <point x="500" y="150"/>
    </contour>
  </outline>
</glyph>
<glyph name="ampersand" format="1">
  <advance width="506"/>
  <unicode hex="0026"/>
  <outline>
    <contour>
      <point x="483" y="23" type="line"/>
      <point x="414" y="129"/>
      <point x="341" y="256"/>
      <point x="269" y="364" type="curve"/>
      <point x="229" y="428"/>
      <point x="179" y="486"/>
      <point x="179" y="562" type="curve"/>
      <point x="179" y="610"/>
      <point x="187" y="658"/>
      <point x="224" y="658" type="curve"/>
      <point x="263" y="658"/>
      <point x="271" y="613"/>
      <point x="271" y="564" type="curve"/>
      <point x="271" y="498"/>
      <point x="240" y="449"/>
      <point x="188" y="405" type="curve"/>
      <point x="113" y="343"/>
      <point x="56" y="285"/>
      <point x="56" y="190" type="curve"/>
      <point x="56" y="80"/>
      <point x="115" y="-5"/>
      <point x="219" y="-5" type="curve"/>
      <point x="377" y="-5"/>
      <point x="427" y="147"/>
      <point x="461" y="315" type="curve"/>
      <point x="387" y="332"/>
      <point x="461" y="315"/>
      <point x="387" y="332" type="curve"/>
      <point x="361" y="199"/>
      <point x="340" y="64"/>
      <point x="223" y="64" type="curve"/>
      <point x="166" y="64"/>
      <point x="142" y="123"/>
      <point x="142" y="190" type="curve"/>
      <point x="142" y="257"/>
      <point x="175" y="305"/>
      <point x="226" y="349" type="curve"/>
      <point x="300" y="411"/>
      <point x="357" y="470"/>
      <point x="358" y="565" type="curve"/>
      <point x="358" y="656"/>
      <point x="312" y="727"/>
      <point x="227" y="727" type="curve"/>
      <point x="142" y="727"/>
      <point x="99" y="654"/>
      <point x="99" y="562" type="curve"/>
      <point x="99" y="468"/>
      <point x="154" y="401"/>
      <point x="206" y="323" type="curve"/>
      <point x="274" y="217"/>
      <point x="351" y="86"/>
      <point x="416" y="-16" type="curve"/>
    </contour>
  </outline>
</glyph>
<glyph name="quotesingle" format="1">
  <advance width="201"/>
  <unicode hex="0027"/>
  <outline>
    <contour>
      <point x="137" y="621" type="line"/>
      <point x="144" y="824" type="line"/>
      <point x="57" y="824" type="line"/>
      <point x="63" y="621" type="line"/>
    </contour>
  </outline>
</glyph>
<glyph name="parenright" format="1">
  <advance width="280"/>
  <unicode hex="0029"/>
  <outline>
    <contour>
      <point x="52" y="-282" type="curve"/>
      <point x="183" y="-78"/>
      <point x="234" y="87"/>
      <point x="234" y="328" type="curve"/>
      <point x="234" y="562"/>
      <point x="190" y="725"/>
      <point x="55" y="919" type="curve"/>
      <point x="3" y="872"/>
      <point x="55" y="919"/>
      <point x="3" y="872" type="curve"/>
      <point x="124" y="692"/>
      <point x="149" y="538"/>
      <point x="149" y="325" type="curve"/>
      <point x="149" y="107"/>
      <point x="115" y="-49"/>
      <point x="0" y="-237" type="curve"/>
      <point x="52" y="-282"/>
      <point x="0" y="-237"/>
    </contour>
  </outline>
</glyph>
<glyph name="asterisk" format="1">
  <advance width="585"/>
  <unicode hex="002A"/>
  <outline>
    <contour>
      <point x="320" y="565" type="line"/>
      <point x="325" y="768" type="line"/>
      <point x="260" y="768" type="line"/>
      <point x="265" y="565" type="line"/>
    </contour>
    <contour>
      <point x="335" y="514" type="line"/>
      <point x="528" y="576" type="line"/>
      <point x="507" y="637" type="line"/>
      <point x="317" y="565" type="line"/>
    </contour>
    <contour>
      <point x="292" y="483" type="line"/>
      <point x="413" y="320" type="line"/>
      <point x="463" y="361" type="line"/>
      <point x="334" y="517" type="line"/>
    </contour>
    <contour>
      <point x="249" y="518" type="line"/>
      <point x="120" y="362" type="line"/>
      <point x="170" y="321" type="line"/>
      <point x="292" y="484" type="line"/>
    </contour>
    <contour>
      <point x="267" y="567" type="line"/>
      <point x="77" y="638" type="line"/>
      <point x="56" y="577" type="line"/>
      <point x="249" y="515" type="line"/>
    </contour>
  </outline>
</glyph>
<glyph name="plus" format="1">
  <advance width="565"/>
  <unicode hex="002B"/>
  <outline>
    <contour>
      <point x="39" y="275" type="curve"/>
      <point x="525" y="275" type="line"/>
      <point x="525" y="350"/>
      <point x="525" y="275"/>
      <point x="525" y="350" type="curve"/>
      <point x="39" y="350" type="line"/>
      <point x="39" y="275"/>
      <point x="39" y="350"/>
    </contour>
    <contour>
      <point x="323" y="42" type="curve"/>
      <point x="323" y="582" type="line"/>
      <point x="237" y="582"/>
      <point x="328" y="582"/>
      <point x="242" y="582" type="curve"/>
      <point x="242" y="42" type="line"/>
      <point x="328" y="42"/>
      <point x="237" y="42"/>
    </contour>
  </outline>
</glyph>
<glyph name="comma" format="1">
  <advance width="167"/>
  <unicode hex="002C"/>
  <outline>
    <contour>
      <point x="21" y="-109" type="line"/>
      <point x="82" y="-98"/>
      <point x="122" y="-49"/>
      <point x="122" y="29" type="curve"/>
      <point x="122" y="86"/>
      <point x="103" y="117"/>
      <point x="72" y="117" type="curve"/>
      <point x="43" y="117"/>
      <point x="25" y="101"/>
      <point x="25" y="71" type="curve"/>
      <point x="25" y="47"/>
      <point x="37" y="28"/>
      <point x="61" y="25" type="curve"/>
      <point x="61" y="3"/>
      <point x="57" y="-43"/>
      <point x="14" y="-60" type="curve"/>
    </contour>
  </outline>
</glyph>
<glyph name="period" format="1">
  <advance width="208"/>
  <unicode hex="002E"/>
  <outline>
    <contour>
      <point x="150" y="38" type="curve"/>
      <point x="150" y="69"/>
      <point x="130" y="84"/>
      <point x="103" y="84" type="curve"/>
      <point x="76" y="84"/>
      <point x="58" y="67"/>
      <point x="58" y="38" type="curve"/>
      <point x="152" y="38"/>
      <point x="57" y="38"/>
      <point x="150" y="38" type="curve"/>
      <point x="150" y="7"/>
      <point x="131" y="-7"/>
      <point x="104" y="-7" type="curve"/>
      <point x="75" y="-7"/>
      <point x="58" y="8"/>
      <point x="58" y="38" type="curve"/>
      <point x="152" y="38"/>
      <point x="57" y="38"/>
    </contour>
  </outline>
</glyph>
<glyph name="slash" format="1">
  <advance width="404"/>
  <unicode hex="002F"/>
  <outline>
    <contour>
      <point x="110" y="-39" type="curve"/>
      <point x="200" y="244"/>
      <point x="291" y="528"/>
      <point x="381" y="811" type="curve"/>
      <point x="295" y="811"/>
      <point x="381" y="811"/>
      <point x="295" y="811" type="curve"/>
      <point x="205" y="528"/>
      <point x="114" y="244"/>
      <point x="24" y="-39" type="curve"/>
      <point x="110" y="-39"/>
      <point x="24" y="-39"/>
    </contour>
  </outline>
</glyph>
<glyph name="zero" format="1">
  <advance width="520"/>
  <unicode hex="0030"/>
  <outline>
    <contour>
      <point x="140" y="360" type="curve"/>
      <point x="140" y="516"/>
      <point x="144" y="656"/>
      <point x="257" y="656" type="curve"/>
      <point x="375" y="656"/>
      <point x="380" y="518"/>
      <point x="380" y="363" type="curve"/>
      <point x="380" y="207"/>
      <point x="375" y="67"/>
      <point x="264" y="67" type="curve"/>
      <point x="150" y="67"/>
      <point x="140" y="204"/>
      <point x="140" y="360" type="curve"/>
      <point x="57" y="360"/>
      <point x="139" y="360"/>
      <point x="56" y="360" type="curve"/>
      <point x="56" y="159"/>
      <point x="93" y="-5"/>
      <point x="260" y="-5" type="curve"/>
      <point x="429" y="-5"/>
      <point x="464" y="160"/>
      <point x="464" y="363" type="curve"/>
      <point x="464" y="563"/>
      <point x="431" y="727"/>
      <point x="265" y="727" type="curve"/>
      <point x="95" y="727"/>
      <point x="56" y="563"/>
      <point x="56" y="360" type="curve"/>
      <point x="139" y="360"/>
      <point x="57" y="360"/>
    </contour>
  </outline>
</glyph>
<glyph name="one" format="1">
  <advance width="310"/>
  <unicode hex="0031"/>
  <outline>
    <contour>
      <point x="70" y="509" type="curve"/>
      <point x="214" y="680"/>
      <point x="70" y="509"/>
      <point x="214" y="680" type="curve"/>
      <point x="149" y="722"/>
      <point x="214" y="680"/>
      <point x="149" y="722" type="curve"/>
      <point x="16" y="561"/>
      <point x="149" y="722"/>
      <point x="16" y="561" type="curve"/>
      <point x="70" y="509"/>
      <point x="16" y="561"/>
    </contour>
    <contour>
      <point x="232" y="0" type="curve"/>
      <point x="232" y="241"/>
      <point x="232" y="481"/>
      <point x="232" y="722" type="curve"/>
      <point x="149" y="722"/>
      <point x="232" y="722"/>
      <point x="149" y="722" type="curve"/>
      <point x="149" y="481"/>
      <point x="149" y="241"/>
      <point x="149" y="0" type="curve"/>
      <point x="232" y="0"/>
      <point x="149" y="0"/>
    </contour>
  </outline>
</glyph>
<glyph name="two" format="1">
  <advance width="411"/>
  <unicode hex="0032"/>
  <outline>
    <contour>
      <point x="41" y="0" type="curve"/>
      <point x="169" y="0"/>
      <point x="276" y="0"/>
      <point x="364" y="0" type="curve"/>
      <point x="364" y="68"/>
      <point x="364" y="0"/>
      <point x="364" y="68" type="curve"/>
      <point x="263" y="68"/>
      <point x="143" y="69"/>
      <point x="41" y="69" type="curve"/>
      <point x="41" y="0"/>
      <point x="41" y="68"/>
    </contour>
    <contour>
      <point x="105" y="540" type="curve"/>
      <point x="128" y="600"/>
      <point x="143" y="656"/>
      <point x="202" y="656" type="curve"/>
      <point x="265" y="656"/>
      <point x="277" y="591"/>
      <point x="277" y="513" type="curve"/>
      <point x="277" y="410"/>
      <point x="224" y="320"/>
      <point x="182" y="260" type="curve"/>
      <point x="135" y="195"/>
      <point x="91" y="134"/>
      <point x="41" y="69" type="curve"/>
      <point x="46" y="0"/>
      <point x="41" y="68"/>
      <point x="46" y="0" type="curve"/>
      <point x="134" y="62"/>
      <point x="186" y="139"/>
      <point x="237" y="210" type="curve"/>
      <point x="297" y="287"/>
      <point x="360" y="390"/>
      <point x="360" y="517" type="curve"/>
      <point x="360" y="639"/>
      <point x="316" y="727"/>
      <point x="206" y="727" type="curve"/>
      <point x="118" y="727"/>
      <point x="70" y="660"/>
      <point x="43" y="574" type="curve"/>
      <point x="105" y="540"/>
      <point x="43" y="574"/>
    </contour>
  </outline>
</glyph>
<glyph name="three" format="1">
  <advance width="411"/>
  <unicode hex="0033"/>
  <outline>
    <contour>
      <point x="43" y="59" type="curve"/>
      <point x="87" y="20"/>
      <point x="121" y="-5"/>
      <point x="176" y="-5" type="curve"/>
      <point x="297" y="-5"/>
      <point x="358" y="76"/>
      <point x="358" y="201" type="curve"/>
      <point x="358" y="320"/>
      <point x="266" y="398"/>
      <point x="121" y="398" type="curve"/>
      <point x="121" y="347"/>
      <point x="121" y="392"/>
      <point x="121" y="341" type="curve"/>
      <point x="217" y="341"/>
      <point x="274" y="280"/>
      <point x="274" y="198" type="curve"/>
      <point x="274" y="124"/>
      <point x="241" y="67"/>
      <point x="180" y="67" type="curve"/>
      <point x="142" y="67"/>
      <point x="119" y="83"/>
      <point x="92" y="108" type="curve"/>
      <point x="43" y="59"/>
      <point x="92" y="108"/>
    </contour>
    <contour>
      <point x="103" y="594" type="curve"/>
      <point x="114" y="619"/>
      <point x="138" y="656"/>
      <point x="175" y="656" type="curve"/>
      <point x="233" y="656"/>
      <point x="254" y="604"/>
      <point x="254" y="537" type="curve"/>
      <point x="254" y="465"/>
      <point x="204" y="412"/>
      <point x="121" y="412" type="curve"/>
      <point x="121" y="360"/>
      <point x="121" y="405"/>
      <point x="121" y="354" type="curve"/>
      <point x="249" y="354"/>
      <point x="336" y="426"/>
      <point x="336" y="539" type="curve"/>
      <point x="336" y="650"/>
      <point x="285" y="727"/>
      <point x="183" y="727" type="curve"/>
      <point x="119" y="727"/>
      <point x="68" y="681"/>
      <point x="45" y="635" type="curve"/>
      <point x="103" y="594"/>
      <point x="45" y="635"/>
    </contour>
  </outline>
</glyph>
<glyph name="four" format="1">
  <advance width="424"/>
  <unicode hex="0034"/>
  <outline>
    <contour>
      <point x="58" y="263" type="line"/>
      <point x="295" y="712" type="line"/>
      <point x="221" y="708" type="line"/>
      <point x="18" y="319" type="line"/>
    </contour>
    <contour>
      <point x="388" y="319" type="line"/>
      <point x="18" y="319" type="line"/>
      <point x="18" y="245" type="line"/>
      <point x="388" y="245" type="line"/>
    </contour>
    <contour>
      <point x="307" y="0" type="line"/>
      <point x="307" y="708" type="line"/>
      <point x="223" y="708" type="line"/>
      <point x="223" y="0" type="line"/>
    </contour>
  </outline>
</glyph>
<glyph name="five" format="1">
  <advance width="401"/>
  <unicode hex="0035"/>
  <outline>
    <contour>
      <point x="65" y="722" type="curve"/>
      <point x="65" y="622"/>
      <point x="65" y="517"/>
      <point x="65" y="392" type="curve"/>
      <point x="147" y="364"/>
      <point x="65" y="392"/>
      <point x="146" y="364" type="curve"/>
      <point x="146" y="459"/>
      <point x="146" y="559"/>
      <point x="146" y="654" type="curve"/>
      <point x="65" y="722"/>
      <point x="146" y="654"/>
    </contour>
    <contour>
      <point x="146" y="364" type="curve"/>
      <point x="154" y="372"/>
      <point x="171" y="384"/>
      <point x="193" y="384" type="curve"/>
      <point x="259" y="384"/>
      <point x="270" y="311"/>
      <point x="270" y="232" type="curve"/>
      <point x="270" y="149"/>
      <point x="249" y="66"/>
      <point x="181" y="66" type="curve"/>
      <point x="143" y="66"/>
      <point x="121" y="79"/>
      <point x="92" y="104" type="curve"/>
      <point x="47" y="43"/>
      <point x="92" y="104"/>
      <point x="47" y="43" type="curve"/>
      <point x="81" y="13"/>
      <point x="131" y="-5"/>
      <point x="187" y="-5" type="curve"/>
      <point x="296" y="-5"/>
      <point x="354" y="105"/>
      <point x="354" y="233" type="curve"/>
      <point x="354" y="354"/>
      <point x="312" y="457"/>
      <point x="207" y="457" type="curve"/>
      <point x="164" y="457"/>
      <point x="127" y="441"/>
      <point x="87" y="391" type="curve"/>
      <point x="149" y="370"/>
      <point x="85" y="385"/>
    </contour>
    <contour>
      <point x="333" y="722" type="curve"/>
      <point x="251" y="722"/>
      <point x="148" y="722"/>
      <point x="65" y="722" type="curve"/>
      <point x="146" y="654"/>
      <point x="65" y="722"/>
      <point x="146" y="654" type="curve"/>
      <point x="203" y="654"/>
      <point x="278" y="654"/>
      <point x="333" y="654" type="curve"/>
      <point x="333" y="722"/>
      <point x="333" y="654"/>
    </contour>
  </outline>
</glyph>
<glyph name="eight" format="1">
  <advance width="443"/>
  <unicode hex="0038"/>
  <outline>
    <contour>
      <point x="68" y="550" type="curve"/>
      <point x="68" y="455"/>
      <point x="118" y="407"/>
      <point x="196" y="353" type="curve"/>
      <point x="262" y="304"/>
      <point x="303" y="257"/>
      <point x="303" y="182" type="curve"/>
      <point x="303" y="118"/>
      <point x="281" y="67"/>
      <point x="222" y="67" type="curve"/>
      <point x="162" y="67"/>
      <point x="140" y="117"/>
      <point x="140" y="182" type="curve"/>
      <point x="140" y="259"/>
      <point x="181" y="302"/>
      <point x="248" y="352" type="curve"/>
      <point x="323" y="407"/>
      <point x="375" y="455"/>
      <point x="375" y="548" type="curve"/>
      <point x="375" y="656"/>
      <point x="326" y="727"/>
      <point x="222" y="727" type="curve"/>
      <point x="120" y="727"/>
      <point x="68" y="655"/>
      <point x="68" y="550" type="curve"/>
      <point x="152" y="550"/>
      <point x="68" y="550"/>
      <point x="152" y="550" type="curve"/>
      <point x="152" y="606"/>
      <point x="167" y="655"/>
      <point x="220" y="655" type="curve"/>
      <point x="274" y="655"/>
      <point x="291" y="608"/>
      <point x="291" y="548" type="curve"/>
      <point x="291" y="483"/>
      <point x="253" y="443"/>
      <point x="196" y="402" type="curve"/>
      <point x="110" y="341"/>
      <point x="56" y="286"/>
      <point x="56" y="182" type="curve"/>
      <point x="56" y="70"/>
      <point x="110" y="-5"/>
      <point x="218" y="-5" type="curve"/>
      <point x="328" y="-5"/>
      <point x="387" y="68"/>
      <point x="387" y="182" type="curve"/>
      <point x="387" y="286"/>
      <point x="333" y="342"/>
      <point x="249" y="403" type="curve"/>
      <point x="191" y="446"/>
      <point x="152" y="482"/>
      <point x="152" y="550" type="curve"/>
      <point x="68" y="550"/>
      <point x="152" y="550"/>
    </contour>
  </outline>
</glyph>
<glyph name="nine" format="1">
  <advance width="443"/>
  <unicode hex="0039"/>
  <outline>
    <contour>
      <point x="327" y="479" type="curve"/>
      <point x="310" y="416"/>
      <point x="282" y="363"/>
      <point x="215" y="363" type="curve"/>
      <point x="147" y="363"/>
      <point x="127" y="431"/>
      <point x="127" y="511" type="curve"/>
      <point x="127" y="584"/>
      <point x="146" y="650"/>
      <point x="207" y="650" type="curve"/>
      <point x="289" y="650"/>
      <point x="308" y="566"/>
      <point x="308" y="471" type="curve"/>
      <point x="308" y="277"/>
      <point x="243" y="133"/>
      <point x="68" y="52" type="curve"/>
      <point x="104" y="-16"/>
      <point x="68" y="52"/>
      <point x="104" y="-16" type="curve"/>
      <point x="295" y="73"/>
      <point x="390" y="241"/>
      <point x="390" y="474" type="curve"/>
      <point x="390" y="619"/>
      <point x="341" y="731"/>
      <point x="210" y="731" type="curve"/>
      <point x="94" y="731"/>
      <point x="44" y="634"/>
      <point x="44" y="507" type="curve"/>
      <point x="44" y="383"/>
      <point x="94" y="291"/>
      <point x="207" y="291" type="curve"/>
      <point x="305" y="291"/>
      <point x="347" y="386"/>
      <point x="370" y="462" type="curve"/>
      <point x="327" y="479"/>
      <point x="370" y="462"/>
    </contour>
  </outline>
</glyph>
<glyph name="colon" format="1">
  <advance width="225"/>
  <unicode hex="003A"/>
  <outline>
    <contour>
      <point x="156" y="388" type="curve"/>
      <point x="156" y="419"/>
      <point x="136" y="434"/>
      <point x="109" y="434" type="curve"/>
      <point x="82" y="434"/>
      <point x="64" y="417"/>
      <point x="64" y="388" type="curve"/>
      <point x="158" y="388"/>
      <point x="63" y="388"/>
      <point x="156" y="388" type="curve"/>
      <point x="156" y="357"/>
      <point x="137" y="343"/>
      <point x="109" y="343" type="curve"/>
      <point x="81" y="343"/>
      <point x="64" y="358"/>
      <point x="64" y="388" type="curve"/>
      <point x="158" y="388"/>
      <point x="63" y="388"/>
    </contour>
    <contour>
      <point x="156" y="41" type="curve"/>
      <point x="156" y="72"/>
      <point x="136" y="87"/>
      <point x="109" y="87" type="curve"/>
      <point x="82" y="87"/>
      <point x="64" y="70"/>
      <point x="64" y="41" type="curve"/>
      <point x="158" y="41"/>
      <point x="63" y="41"/>
      <point x="156" y="41" type="curve"/>
      <point x="156" y="10"/>
      <point x="137" y="-4"/>
      <point x="110" y="-4" type="curve"/>
      <point x="81" y="-4"/>
      <point x="64" y="11"/>
      <point x="64" y="41" type="curve"/>
      <point x="158" y="41"/>
      <point x="63" y="41"/>
    </contour>
  </outline>
</glyph>
<glyph name="semicolon" format="1">
  <advance width="186"/>
  <unicode hex="003B"/>
  <outline>
    <contour>
      <point x="27" y="-168" type="line"/>
      <point x="92" y="-157"/>
      <point x="136" y="-108"/>
      <point x="136" y="-30" type="curve"/>
      <point x="136" y="27"/>
      <point x="115" y="58"/>
      <point x="81" y="58" type="curve"/>
      <point x="50" y="58"/>
      <point x="30" y="42"/>
      <point x="30" y="11" type="curve"/>
      <point x="30" y="-12"/>
      <point x="43" y="-31"/>
      <point x="70" y="-34" type="curve"/>
      <point x="70" y="-56"/>
      <point x="66" y="-102"/>
      <point x="19" y="-119" type="curve"/>
    </contour>
    <contour>
      <point x="127" y="400" type="curve"/>
      <point x="127" y="431"/>
      <point x="108" y="446"/>
      <point x="81" y="446" type="curve"/>
      <point x="53" y="446"/>
      <point x="36" y="429"/>
      <point x="36" y="400" type="curve"/>
      <point x="129" y="400"/>
      <point x="34" y="400"/>
      <point x="127" y="400" type="curve"/>
      <point x="127" y="370"/>
      <point x="109" y="355"/>
      <point x="81" y="355" type="curve"/>
      <point x="53" y="355"/>
      <point x="36" y="371"/>
      <point x="36" y="400" type="curve"/>
      <point x="129" y="400"/>
      <point x="34" y="400"/>
    </contour>
  </outline>
</glyph>
<glyph name="less" format="1">
  <advance width="477"/>
  <unicode hex="003C"/>
  <outline>
    <contour>
      <point x="420" y="608" type="curve"/>
      <point x="291" y="518"/>
      <point x="161" y="428"/>
      <point x="32" y="338" type="curve"/>
      <point x="32" y="262"/>
      <point x="32" y="338"/>
      <point x="32" y="262" type="curve"/>
      <point x="161" y="352"/>
      <point x="291" y="442"/>
      <point x="420" y="532" type="curve"/>
      <point x="420" y="608"/>
      <point x="420" y="532"/>
    </contour>
    <contour>
      <point x="426" y="74" type="curve"/>
      <point x="294" y="162"/>
      <point x="163" y="250"/>
      <point x="32" y="338" type="curve"/>
      <point x="32" y="262"/>
      <point x="32" y="338"/>
      <point x="32" y="262" type="curve"/>
      <point x="163" y="174"/>
      <point x="294" y="86"/>
      <point x="426" y="-2" type="curve"/>
      <point x="426" y="74"/>
      <point x="426" y="-2"/>
    </contour>
  </outline>
</glyph>
<glyph name="equal" format="1">
  <advance width="506"/>
  <unicode hex="003D"/>
  <outline>
    <contour>
      <point x="59" y="181" type="curve"/>
      <point x="192" y="181"/>
      <point x="325" y="181"/>
      <point x="459" y="181" type="curve"/>
      <point x="459" y="254"/>
      <point x="459" y="181"/>
      <point x="459" y="254" type="curve"/>
      <point x="325" y="254"/>
      <point x="192" y="254"/>
      <point x="59" y="254" type="curve"/>
      <point x="59" y="181"/>
      <point x="59" y="254"/>
    </contour>
    <contour>
      <point x="59" y="403" type="curve"/>
      <point x="192" y="403"/>
      <point x="325" y="403"/>
      <point x="459" y="403" type="curve"/>
      <point x="459" y="476"/>
      <point x="459" y="403"/>
      <point x="459" y="476" type="curve"/>
      <point x="325" y="476"/>
      <point x="192" y="476"/>
      <point x="59" y="476" type="curve"/>
      <point x="59" y="403"/>
      <point x="59" y="476"/>
    </contour>
  </outline>
</glyph>
<glyph name="greater" format="1">
  <advance width="477"/>
  <unicode hex="003E"/>
  <outline>
    <contour>
      <point x="56" y="-2" type="curve"/>
      <point x="185" y="88"/>
      <point x="315" y="178"/>
      <point x="444" y="268" type="curve"/>
      <point x="444" y="344"/>
      <point x="444" y="268"/>
      <point x="444" y="344" type="curve"/>
      <point x="315" y="254"/>
      <point x="185" y="164"/>
      <point x="56" y="74" type="curve"/>
      <point x="56" y="-2"/>
      <point x="56" y="74"/>
    </contour>
    <contour>
      <point x="50" y="532" type="curve"/>
      <point x="181" y="444"/>
      <point x="313" y="356"/>
      <point x="444" y="268" type="curve"/>
      <point x="444" y="344"/>
      <point x="444" y="268"/>
      <point x="444" y="344" type="curve"/>
      <point x="313" y="432"/>
      <point x="181" y="520"/>
      <point x="50" y="608" type="curve"/>
      <point x="50" y="532"/>
      <point x="50" y="608"/>
    </contour>
  </outline>
</glyph>
<glyph name="question" format="1">
  <advance width="409"/>
  <unicode hex="003F"/>
  <outline>
    <contour>
      <point x="161" y="358" type="curve"/>
      <point x="161" y="321"/>
      <point x="161" y="258"/>
      <point x="161" y="221" type="curve"/>
      <point x="239" y="221"/>
      <point x="161" y="221"/>
      <point x="239" y="221" type="curve"/>
      <point x="239" y="258"/>
      <point x="239" y="321"/>
      <point x="239" y="358" type="curve"/>
      <point x="161" y="358"/>
      <point x="239" y="358"/>
    </contour>
    <contour>
      <point x="95" y="601" type="line"/>
      <point x="118" y="636"/>
      <point x="143" y="659"/>
      <point x="186" y="659" type="curve"/>
      <point x="256" y="659"/>
      <point x="282" y="594"/>
      <point x="282" y="518" type="curve"/>
      <point x="282" y="431"/>
      <point x="249" y="358"/>
      <point x="171" y="358" type="curve"/>
      <point x="171" y="326"/>
      <point x="170" y="324"/>
      <point x="170" y="292" type="curve"/>
      <point x="297" y="292"/>
      <point x="365" y="388"/>
      <point x="365" y="518" type="curve"/>
      <point x="365" y="642"/>
      <point x="302" y="732"/>
      <point x="190" y="732" type="curve"/>
      <point x="121" y="732"/>
      <point x="77" y="702"/>
      <point x="47" y="655" type="curve"/>
    </contour>
    <contour>
      <point x="246" y="42" type="curve"/>
      <point x="246" y="73"/>
      <point x="227" y="88"/>
      <point x="200" y="88" type="curve"/>
      <point x="172" y="88"/>
      <point x="154" y="71"/>
      <point x="154" y="42" type="curve"/>
      <point x="246" y="42"/>
      <point x="154" y="42"/>
      <point x="246" y="42" type="curve"/>
      <point x="246" y="11"/>
      <point x="227" y="-4"/>
      <point x="200" y="-4" type="curve"/>
      <point x="171" y="-4"/>
      <point x="154" y="12"/>
      <point x="154" y="42" type="curve"/>
      <point x="246" y="42"/>
      <point x="154" y="42"/>
    </contour>
  </outline>
</glyph>
<glyph name="at" format="1">
  <advance width="613"/>
  <unicode hex="0040"/>
  <outline>
    <contour>
      <point x="401" y="-54" type="curve"/>
      <point x="375" y="-76"/>
      <point x="353" y="-85"/>
      <point x="318" y="-85" type="curve"/>
      <point x="181" y="-85"/>
      <point x="126" y="43"/>
      <point x="126" y="200" type="curve"/>
      <point x="126" y="352"/>
      <point x="178" y="477"/>
      <point x="310" y="477" type="curve"/>
      <point x="436" y="477"/>
      <point x="485" y="355"/>
      <point x="485" y="209" type="curve"/>
      <point x="485" y="145"/>
      <point x="488" y="85"/>
      <point x="459" y="85" type="curve"/>
      <point x="427" y="85"/>
      <point x="432" y="141"/>
      <point x="432" y="205" type="curve"/>
      <point x="432" y="307"/>
      <point x="398" y="389"/>
      <point x="306" y="389" type="curve"/>
      <point x="208" y="389"/>
      <point x="178" y="310"/>
      <point x="178" y="203" type="curve"/>
      <point x="178" y="92"/>
      <point x="203" y="8"/>
      <point x="300" y="8" type="curve"/>
      <point x="389" y="8"/>
      <point x="411" y="89"/>
      <point x="420" y="189" type="curve"/>
      <point x="366" y="202"/>
      <point x="420" y="189"/>
      <point x="366" y="202" type="curve"/>
      <point x="356" y="142"/>
      <point x="360" y="77"/>
      <point x="308" y="77" type="curve"/>
      <point x="257" y="77"/>
      <point x="254" y="137"/>
      <point x="254" y="207" type="curve"/>
      <point x="254" y="266"/>
      <point x="255" y="320"/>
      <point x="302" y="320" type="curve"/>
      <point x="356" y="320"/>
      <point x="354" y="264"/>
      <point x="354" y="201" type="curve"/>
      <point x="354" y="102"/>
      <point x="366" y="20"/>
      <point x="452" y="20" type="curve"/>
      <point x="543" y="20"/>
      <point x="558" y="106"/>
      <point x="558" y="213" type="curve"/>
      <point x="558" y="404"/>
      <point x="486" y="549"/>
      <point x="312" y="549" type="curve"/>
      <point x="128" y="549"/>
      <point x="50" y="398"/>
      <point x="50" y="196" type="curve"/>
      <point x="50" y="-4"/>
      <point x="132" y="-154"/>
      <point x="314" y="-154" type="curve"/>
      <point x="365" y="-154"/>
      <point x="393" y="-145"/>
      <point x="435" y="-113" type="curve"/>
      <point x="401" y="-54"/>
      <point x="435" y="-113"/>
    </contour>
  </outline>
</glyph>
<glyph name="A" format="1">
  <advance width="471"/>
  <unicode hex="0041"/>
  <outline>
    <contour>
      <point x="333" y="284" type="curve"/>
      <point x="268" y="284"/>
      <point x="202" y="284"/>
      <point x="136" y="284" type="curve"/>
      <point x="101" y="212"/>
      <point x="136" y="284"/>
      <point x="101" y="212" type="curve"/>
      <point x="188" y="212"/>
      <point x="275" y="212"/>
      <point x="361" y="212" type="curve"/>
      <point x="333" y="284"/>
      <point x="361" y="212"/>
    </contour>
    <contour>
      <point x="454" y="0" type="curve"/>
      <point x="397" y="241"/>
      <point x="336" y="481"/>
      <point x="278" y="722" type="curve"/>
      <point x="200" y="722"/>
      <point x="278" y="722"/>
      <point x="200" y="722" type="curve"/>
      <point x="256" y="481"/>
      <point x="308" y="241"/>
      <point x="365" y="0" type="curve"/>
      <point x="454" y="0"/>
      <point x="365" y="0"/>
    </contour>
    <contour>
      <point x="94" y="0" type="curve"/>
      <point x="157" y="241"/>
      <point x="213" y="481"/>
      <point x="277" y="722" type="curve"/>
      <point x="198" y="722"/>
      <point x="277" y="722"/>
      <point x="198" y="722" type="curve"/>
      <point x="134" y="480"/>
      <point x="64" y="242"/>
      <point x="0" y="0" type="curve"/>
      <point x="94" y="0"/>
      <point x="0" y="0"/>
    </contour>
    <contour>
      <point x="236" y="801" type="move" name="top"/>
    </contour>
    <contour>
      <point x="452" y="3" type="move" name="bottom"/>
    </contour>
  </outline>
</glyph>
<glyph name="B" format="1">
  <advance width="483"/>
  <unicode hex="0042"/>
  <outline>
    <contour>
      <point x="131" y="654" type="curve"/>
      <point x="171" y="654"/>
      <point x="193" y="654"/>
      <point x="233" y="654" type="curve"/>
      <point x="295" y="654"/>
      <point x="320" y="608"/>
      <point x="320" y="546" type="curve"/>
      <point x="320" y="487"/>
      <point x="300" y="441"/>
      <point x="245" y="441" type="curve"/>
      <point x="201" y="441"/>
      <point x="176" y="441"/>
      <point x="131" y="441" type="curve"/>
      <point x="131" y="422"/>
      <point x="131" y="391"/>
      <point x="131" y="372" type="curve"/>
      <point x="165" y="372"/>
      <point x="185" y="372"/>
      <point x="218" y="372" type="curve"/>
      <point x="322" y="372"/>
      <point x="404" y="431"/>
      <point x="404" y="542" type="curve"/>
      <point x="404" y="652"/>
      <point x="346" y="722"/>
      <point x="239" y="722" type="curve"/>
      <point x="197" y="722"/>
      <point x="174" y="722"/>
      <point x="131" y="722" type="curve"/>
      <point x="131" y="703"/>
      <point x="131" y="673"/>
    </contour>
    <contour>
      <point x="184" y="0" type="curve"/>
      <point x="184" y="241"/>
      <point x="184" y="481"/>
      <point x="184" y="722" type="curve"/>
      <point x="94" y="722"/>
      <point x="184" y="722"/>
      <point x="94" y="722" type="curve"/>
      <point x="94" y="481"/>
      <point x="94" y="241"/>
      <point x="94" y="0" type="curve"/>
      <point x="184" y="0"/>
      <point x="94" y="0"/>
    </contour>
    <contour>
      <point x="131" y="372" type="curve"/>
      <point x="176" y="372"/>
      <point x="201" y="372"/>
      <point x="245" y="372" type="curve"/>
      <point x="325" y="372"/>
      <point x="350" y="302"/>
      <point x="350" y="217" type="curve"/>
      <point x="350" y="132"/>
      <point x="316" y="68"/>
      <point x="237" y="68" type="curve"/>
      <point x="195" y="68"/>
      <point x="173" y="68"/>
      <point x="131" y="68" type="curve"/>
      <point x="131" y="49"/>
      <point x="131" y="19"/>
      <point x="131" y="0" type="curve"/>
      <point x="176" y="0"/>
      <point x="199" y="0"/>
      <point x="243" y="0" type="curve"/>
      <point x="367" y="0"/>
      <point x="436" y="85"/>
      <point x="436" y="214" type="curve"/>
      <point x="436" y="354"/>
      <point x="355" y="441"/>
      <point x="219" y="441" type="curve"/>
      <point x="186" y="441"/>
      <point x="165" y="441"/>
      <point x="131" y="441" type="curve"/>
      <point x="131" y="422"/>
      <point x="131" y="391"/>
    </contour>
  </outline>
</glyph>
<glyph name="C" format="1">
  <advance width="489"/>
  <unicode hex="0043"/>
  <outline>
    <contour>
      <point x="456" y="654" type="curve"/>
      <point x="412" y="695"/>
      <point x="356" y="727"/>
      <point x="290" y="727" type="curve"/>
      <point x="107" y="727"/>
      <point x="53" y="559"/>
      <point x="53" y="345" type="curve"/>
      <point x="53" y="149"/>
      <point x="107" y="-5"/>
      <point x="278" y="-5" type="curve"/>
      <point x="364" y="-5"/>
      <point x="420" y="33"/>
      <point x="469" y="99" type="curve"/>
      <point x="416" y="148"/>
      <point x="469" y="99"/>
      <point x="415" y="148" type="curve"/>
      <point x="379" y="101"/>
      <point x="343" y="68"/>
      <point x="282" y="68" type="curve"/>
      <point x="157" y="68"/>
      <point x="139" y="197"/>
      <point x="139" y="348" type="curve"/>
      <point x="139" y="513"/>
      <point x="155" y="655"/>
      <point x="287" y="655" type="curve"/>
      <point x="336" y="655"/>
      <point x="377" y="631"/>
      <point x="407" y="601" type="curve"/>
      <point x="456" y="654"/>
      <point x="407" y="601"/>
    </contour>
    <contour>
      <point x="286" y="801" type="move" name="top"/>
    </contour>
    <contour>
      <point x="302" y="-1" type="move" name="bottom"/>
    </contour>
  </outline>
</glyph>
<glyph name="D" format="1">
  <advance width="555"/>
  <unicode hex="0044"/>
  <outline>
    <contour>
      <point x="94" y="722" type="curve"/>
      <point x="94" y="481"/>
      <point x="94" y="241"/>
      <point x="94" y="0" type="curve"/>
      <point x="180" y="0"/>
      <point x="94" y="0"/>
      <point x="180" y="0" type="curve"/>
      <point x="180" y="241"/>
      <point x="180" y="481"/>
      <point x="180" y="722" type="curve"/>
      <point x="94" y="722"/>
      <point x="180" y="722"/>
    </contour>
    <contour>
      <point x="138" y="0" type="curve"/>
      <point x="178" y="0"/>
      <point x="210" y="0"/>
      <point x="251" y="0" type="curve"/>
      <point x="436" y="0"/>
      <point x="501" y="150"/>
      <point x="501" y="355" type="curve"/>
      <point x="501" y="567"/>
      <point x="436" y="722"/>
      <point x="247" y="722" type="curve"/>
      <point x="208" y="722"/>
      <point x="177" y="722"/>
      <point x="138" y="722" type="curve"/>
      <point x="138" y="661"/>
      <point x="138" y="714"/>
      <point x="138" y="654" type="curve"/>
      <point x="176" y="654"/>
      <point x="205" y="654"/>
      <point x="243" y="654" type="curve"/>
      <point x="386" y="654"/>
      <point x="415" y="521"/>
      <point x="415" y="354" type="curve"/>
      <point x="415" y="197"/>
      <point x="391" y="68"/>
      <point x="259" y="68" type="curve"/>
      <point x="216" y="68"/>
      <point x="181" y="68"/>
      <point x="138" y="68" type="curve"/>
      <point x="138" y="8"/>
      <point x="138" y="61"/>
    </contour>
    <contour>
      <point x="225" y="801" type="move" name="top"/>
    </contour>
  </outline>
</glyph>
<glyph name="E" format="1">
  <advance width="434"/>
  <unicode hex="0045"/>
  <outline>
    <contour>
      <point x="140" y="339" type="curve"/>
      <point x="209" y="339"/>
      <point x="279" y="339"/>
      <point x="349" y="339" type="curve"/>
      <point x="349" y="408"/>
      <point x="349" y="339"/>
      <point x="349" y="408" type="curve"/>
      <point x="279" y="408"/>
      <point x="209" y="408"/>
      <point x="140" y="408" type="curve"/>
      <point x="140" y="339"/>
      <point x="140" y="408"/>
    </contour>
    <contour>
      <point x="130" y="654" type="curve"/>
      <point x="216" y="654"/>
      <point x="302" y="654"/>
      <point x="389" y="654" type="curve"/>
      <point x="389" y="722"/>
      <point x="389" y="654"/>
      <point x="389" y="722" type="curve"/>
      <point x="302" y="722"/>
      <point x="216" y="722"/>
      <point x="130" y="722" type="curve"/>
      <point x="130" y="654"/>
      <point x="130" y="722"/>
    </contour>
    <contour>
      <point x="180" y="0" type="curve"/>
      <point x="180" y="722" type="line"/>
      <point x="94" y="722"/>
      <point x="180" y="722"/>
      <point x="94" y="722" type="curve"/>
      <point x="94" y="481"/>
      <point x="94" y="241"/>
      <point x="94" y="0" type="curve"/>
      <point x="180" y="0"/>
      <point x="94" y="0"/>
    </contour>
    <contour>
      <point x="130" y="0" type="curve"/>
      <point x="223" y="0"/>
      <point x="317" y="0"/>
      <point x="410" y="0" type="curve"/>
      <point x="410" y="68"/>
      <point x="410" y="0"/>
      <point x="410" y="68" type="curve"/>
      <point x="317" y="68"/>
      <point x="223" y="68"/>
      <point x="130" y="68" type="curve"/>
      <point x="130" y="0"/>
      <point x="130" y="68"/>
    </contour>
    <contour>
      <point x="223" y="801" type="move" name="top"/>
    </contour>
    <contour>
      <point x="404" y="1" type="move" name="bottom"/>
    </contour>
  </outline>
</glyph>
<glyph name="F" format="1">
  <advance width="412"/>
  <unicode hex="0046"/>
  <outline>
    <contour>
      <point x="139" y="339" type="curve"/>
      <point x="208" y="339"/>
      <point x="276" y="339"/>
      <point x="344" y="339" type="curve"/>
      <point x="344" y="408"/>
      <point x="344" y="339"/>
      <point x="344" y="408" type="curve"/>
      <point x="276" y="408"/>
      <point x="208" y="408"/>
      <point x="139" y="408" type="curve"/>
      <point x="139" y="339"/>
      <point x="139" y="408"/>
    </contour>
    <contour>
      <point x="180" y="0" type="curve"/>
      <point x="180" y="722" type="line"/>
      <point x="94" y="722"/>
      <point x="180" y="722"/>
      <point x="94" y="722" type="curve"/>
      <point x="94" y="481"/>
      <point x="94" y="241"/>
      <point x="94" y="0" type="curve"/>
      <point x="180" y="0"/>
      <point x="94" y="0"/>
    </contour>
    <contour>
      <point x="129" y="654" type="curve"/>
      <point x="216" y="654"/>
      <point x="303" y="654"/>
      <point x="391" y="654" type="curve"/>
      <point x="391" y="722"/>
      <point x="391" y="654"/>
      <point x="391" y="722" type="curve"/>
      <point x="303" y="722"/>
      <point x="216" y="722"/>
      <point x="129" y="722" type="curve"/>
      <point x="129" y="654"/>
      <point x="129" y="722"/>
    </contour>
  </outline>
</glyph>
<glyph name="G" format="1">
  <advance width="559"/>
  <unicode hex="0047"/>
  <outline>
    <contour>
      <point x="479" y="346" type="curve"/>
      <point x="432" y="346"/>
      <point x="385" y="346"/>
      <point x="339" y="346" type="curve"/>
      <point x="339" y="278"/>
      <point x="339" y="346"/>
      <point x="339" y="278" type="curve"/>
      <point x="385" y="278"/>
      <point x="432" y="278"/>
      <point x="479" y="278" type="curve"/>
      <point x="479" y="346"/>
      <point x="479" y="278"/>
    </contour>
    <contour>
      <point x="502" y="78" type="curve"/>
      <point x="502" y="167"/>
      <point x="502" y="256"/>
      <point x="502" y="346" type="curve"/>
      <point x="424" y="346"/>
      <point x="502" y="346"/>
      <point x="424" y="346" type="curve"/>
      <point x="424" y="256"/>
      <point x="424" y="167"/>
      <point x="424" y="78" type="curve"/>
      <point x="502" y="78"/>
      <point x="424" y="78"/>
    </contour>
    <contour>
      <point x="491" y="644" type="curve"/>
      <point x="434" y="699"/>
      <point x="375" y="727"/>
      <point x="297" y="727" type="curve"/>
      <point x="116" y="727"/>
      <point x="52" y="569"/>
      <point x="52" y="362" type="curve"/>
      <point x="52" y="153"/>
      <point x="120" y="-5"/>
      <point x="304" y="-5" type="curve"/>
      <point x="387" y="-5"/>
      <point x="438" y="24"/>
      <point x="502" y="78" type="curve"/>
      <point x="458" y="132"/>
      <point x="502" y="78"/>
      <point x="458" y="132" type="curve"/>
      <point x="417" y="93"/>
      <point x="367" y="67"/>
      <point x="304" y="67" type="curve"/>
      <point x="166" y="67"/>
      <point x="139" y="204"/>
      <point x="139" y="369" type="curve"/>
      <point x="139" y="524"/>
      <point x="167" y="655"/>
      <point x="297" y="655" type="curve"/>
      <point x="358" y="655"/>
      <point x="404" y="629"/>
      <point x="447" y="586" type="curve"/>
      <point x="491" y="644"/>
      <point x="447" y="586"/>
    </contour>
    <contour>
      <point x="293" y="801" type="move" name="top"/>
    </contour>
    <contour>
      <point x="322" y="-45" type="move" name="bottom"/>
    </contour>
  </outline>
</glyph>
<glyph name="H" format="1">
  <advance width="589"/>
  <unicode hex="0048"/>
  <outline>
    <contour>
      <point x="180" y="0" type="curve"/>
      <point x="180" y="722" type="line"/>
      <point x="94" y="722"/>
      <point x="180" y="722"/>
      <point x="94" y="722" type="curve"/>
      <point x="94" y="481"/>
      <point x="94" y="241"/>
      <point x="94" y="0" type="curve"/>
      <point x="180" y="0"/>
      <point x="94" y="0"/>
    </contour>
    <contour>
      <point x="451" y="397" type="curve"/>
      <point x="346" y="397"/>
      <point x="242" y="397"/>
      <point x="137" y="397" type="curve"/>
      <point x="137" y="328"/>
      <point x="137" y="397"/>
      <point x="137" y="328" type="curve"/>
      <point x="242" y="328"/>
      <point x="346" y="328"/>
      <point x="451" y="328" type="curve"/>
      <point x="451" y="397"/>
      <point x="451" y="328"/>
    </contour>
    <contour>
      <point x="495" y="0" type="curve"/>
      <point x="495" y="224"/>
      <point x="495" y="498"/>
      <point x="495" y="722" type="curve"/>
      <point x="409" y="722"/>
      <point x="495" y="722"/>
      <point x="409" y="722" type="curve"/>
      <point x="409" y="0" type="line"/>
      <point x="495" y="0"/>
      <point x="409" y="0"/>
    </contour>
  </outline>
</glyph>
<glyph name="I" format="1">
  <advance width="274"/>
  <unicode hex="0049"/>
  <outline>
    <contour>
      <point x="180" y="0" type="curve"/>
      <point x="180" y="241"/>
      <point x="180" y="481"/>
      <point x="180" y="722" type="curve"/>
      <point x="94" y="722"/>
      <point x="180" y="722"/>
      <point x="94" y="722" type="curve"/>
      <point x="94" y="481"/>
      <point x="94" y="241"/>
      <point x="94" y="0" type="curve"/>
      <point x="180" y="0"/>
      <point x="94" y="0"/>
    </contour>
    <contour>
      <point x="139" y="801" type="move" name="top"/>
    </contour>
    <contour>
      <point x="173" y="3" type="move" name="bottom"/>
    </contour>
  </outline>
</glyph>
<glyph name="J" format="1">
  <advance width="339"/>
  <unicode hex="004A"/>
  <outline>
    <contour>
      <point x="6" y="41" type="curve"/>
      <point x="30" y="18"/>
      <point x="60" y="-5"/>
      <point x="101" y="-5" type="curve"/>
      <point x="218" y="-5"/>
      <point x="252" y="86"/>
      <point x="252" y="231" type="curve"/>
      <point x="252" y="406"/>
      <point x="252" y="546"/>
      <point x="252" y="722" type="curve"/>
      <point x="174" y="722"/>
      <point x="244" y="722"/>
      <point x="166" y="722" type="curve"/>
      <point x="166" y="546"/>
      <point x="166" y="406"/>
      <point x="166" y="231" type="curve"/>
      <point x="166" y="143"/>
      <point x="171" y="65"/>
      <point x="101" y="65" type="curve"/>
      <point x="77" y="65"/>
      <point x="62" y="81"/>
      <point x="47" y="96" type="curve"/>
      <point x="11" y="47"/>
      <point x="42" y="90"/>
    </contour>
  </outline>
</glyph>
<glyph name="K" format="1">
  <advance width="499"/>
  <unicode hex="004B"/>
  <outline>
    <contour>
      <point x="382" y="722" type="curve"/>
      <point x="168" y="380" type="line"/>
      <point x="260" y="380"/>
      <point x="175" y="380"/>
      <point x="267" y="380" type="curve"/>
      <point x="479" y="722" type="line"/>
      <point x="420" y="722"/>
      <point x="441" y="722"/>
    </contour>
    <contour>
      <point x="180" y="0" type="curve"/>
      <point x="180" y="722" type="line"/>
      <point x="94" y="722"/>
      <point x="180" y="722"/>
      <point x="94" y="722" type="curve"/>
      <point x="94" y="481"/>
      <point x="94" y="241"/>
      <point x="94" y="0" type="curve"/>
      <point x="180" y="0"/>
      <point x="94" y="0"/>
    </contour>
    <contour>
      <point x="493" y="0" type="curve"/>
      <point x="267" y="380" type="line"/>
      <point x="175" y="380"/>
      <point x="260" y="380"/>
      <point x="168" y="380" type="curve"/>
      <point x="396" y="0" type="line"/>
      <point x="463" y="0"/>
      <point x="426" y="0"/>
    </contour>
    <contour>
      <point x="286" y="-44" type="move" name="bottom"/>
    </contour>
  </outline>
</glyph>
<glyph name="L" format="1">
  <advance width="416"/>
  <unicode hex="004C"/>
  <outline>
    <contour>
      <point x="180" y="0" type="curve"/>
      <point x="180" y="241"/>
      <point x="180" y="481"/>
      <point x="180" y="722" type="curve"/>
      <point x="94" y="722"/>
      <point x="180" y="722"/>
      <point x="94" y="722" type="curve"/>
      <point x="94" y="481"/>
      <point x="94" y="241"/>
      <point x="94" y="0" type="curve"/>
      <point x="180" y="0"/>
      <point x="94" y="0"/>
    </contour>
    <contour>
      <point x="136" y="0" type="curve"/>
      <point x="226" y="0"/>
      <point x="316" y="0"/>
      <point x="405" y="0" type="curve"/>
      <point x="405" y="68"/>
      <point x="405" y="0"/>
      <point x="405" y="68" type="curve"/>
      <point x="316" y="68"/>
      <point x="226" y="68"/>
      <point x="136" y="68" type="curve"/>
      <point x="136" y="0"/>
      <point x="136" y="68"/>
    </contour>
    <contour>
      <point x="137" y="801" type="move" name="top"/>
    </contour>
    <contour>
      <point x="251" y="-42" type="move" name="bottom"/>
    </contour>
  </outline>
</glyph>
<glyph name="M" format="1">
  <advance width="654"/>
  <unicode hex="004D"/>
  <outline>
    <contour>
      <point x="590" y="0" type="curve"/>
      <point x="576" y="241"/>
      <point x="561" y="481"/>
      <point x="547" y="722" type="curve"/>
      <point x="469" y="722"/>
      <point x="547" y="722"/>
      <point x="469" y="722" type="curve"/>
      <point x="482" y="481"/>
      <point x="491" y="241"/>
      <point x="504" y="0" type="curve"/>
      <point x="590" y="0"/>
      <point x="504" y="0"/>
    </contour>
    <contour>
      <point x="140" y="0" type="curve"/>
      <point x="151" y="241"/>
      <point x="163" y="481"/>
      <point x="175" y="722" type="curve"/>
      <point x="104" y="722"/>
      <point x="175" y="722"/>
      <point x="104" y="722" type="curve"/>
      <point x="91" y="481"/>
      <point x="79" y="241"/>
      <point x="66" y="0" type="curve"/>
      <point x="140" y="0"/>
      <point x="66" y="0"/>
    </contour>
    <contour>
      <point x="356" y="0" type="curve"/>
      <point x="296" y="241"/>
      <point x="236" y="481"/>
      <point x="177" y="722" type="curve"/>
      <point x="105" y="722"/>
      <point x="177" y="722"/>
      <point x="105" y="722" type="curve"/>
      <point x="165" y="481"/>
      <point x="224" y="241"/>
      <point x="284" y="0" type="curve"/>
      <point x="356" y="0"/>
      <point x="283" y="0"/>
    </contour>
    <contour>
      <point x="362" y="0" type="curve"/>
      <point x="421" y="241"/>
      <point x="479" y="481"/>
      <point x="537" y="722" type="curve"/>
      <point x="466" y="722"/>
      <point x="537" y="722"/>
      <point x="466" y="722" type="curve"/>
      <point x="407" y="481"/>
      <point x="348" y="241"/>
      <point x="289" y="0" type="curve"/>
      <point x="362" y="0"/>
      <point x="289" y="0"/>
    </contour>
  </outline>
</glyph>
<glyph name="P" format="1">
  <advance width="450"/>
  <unicode hex="0050"/>
  <outline>
    <contour>
      <point x="125" y="311" type="curve"/>
      <point x="162" y="284"/>
      <point x="202" y="266"/>
      <point x="251" y="266" type="curve"/>
      <point x="356" y="268"/>
      <point x="411" y="356"/>
      <point x="411" y="483" type="curve"/>
      <point x="411" y="616"/>
      <point x="348" y="722"/>
      <point x="226" y="722" type="curve"/>
      <point x="197" y="722"/>
      <point x="168" y="722"/>
      <point x="140" y="722" type="curve"/>
      <point x="140" y="654"/>
      <point x="140" y="722"/>
      <point x="140" y="654" type="curve"/>
      <point x="165" y="654"/>
      <point x="189" y="654"/>
      <point x="215" y="654" type="curve"/>
      <point x="294" y="654"/>
      <point x="325" y="575"/>
      <point x="325" y="486" type="curve"/>
      <point x="325" y="404"/>
      <point x="307" y="332"/>
      <point x="240" y="332" type="curve"/>
      <point x="204" y="332"/>
      <point x="181" y="346"/>
      <point x="152" y="369" type="curve"/>
      <point x="126" y="314"/>
      <point x="152" y="368"/>
    </contour>
    <contour>
      <point x="180" y="0" type="curve"/>
      <point x="180" y="241"/>
      <point x="180" y="481"/>
      <point x="180" y="722" type="curve"/>
      <point x="94" y="722"/>
      <point x="180" y="722"/>
      <point x="94" y="722" type="curve"/>
      <point x="94" y="481"/>
      <point x="94" y="241"/>
      <point x="94" y="0" type="curve"/>
      <point x="180" y="0"/>
      <point x="94" y="0"/>
    </contour>
  </outline>
</glyph>
<glyph name="Q" format="1">
  <advance width="584"/>
  <unicode hex="0051"/>
  <outline>
    <contour>
      <point x="250" y="16" type="curve"/>
      <point x="306" y="-140"/>
      <point x="388" y="-225"/>
      <point x="541" y="-225" type="curve"/>
      <point x="541" y="-153"/>
      <point x="541" y="-225"/>
      <point x="541" y="-153" type="curve"/>
      <point x="422" y="-153"/>
      <point x="368" y="-74"/>
      <point x="324" y="50" type="curve"/>
      <point x="250" y="16"/>
      <point x="324" y="50"/>
    </contour>
    <contour>
      <point x="139" y="360" type="curve"/>
      <point x="139" y="512"/>
      <point x="152" y="652"/>
      <point x="278" y="652" type="curve"/>
      <point x="405" y="652"/>
      <point x="424" y="514"/>
      <point x="424" y="361" type="curve"/>
      <point x="424" y="209"/>
      <point x="412" y="67"/>
      <point x="285" y="67" type="curve"/>
      <point x="156" y="67"/>
      <point x="139" y="206"/>
      <point x="139" y="360" type="curve"/>
      <point x="53" y="360"/>
      <point x="139" y="360"/>
      <point x="53" y="360" type="curve"/>
      <point x="53" y="161"/>
      <point x="108" y="-5"/>
      <point x="281" y="-5" type="curve"/>
      <point x="456" y="-5"/>
      <point x="510" y="164"/>
      <point x="510" y="365" type="curve"/>
      <point x="510" y="563"/>
      <point x="458" y="730"/>
      <point x="286" y="730" type="curve"/>
      <point x="110" y="730"/>
      <point x="53" y="560"/>
      <point x="53" y="360" type="curve"/>
      <point x="139" y="360"/>
      <point x="53" y="360"/>
    </contour>
  </outline>
</glyph>
<glyph name="S" format="1">
  <advance width="406"/>
  <unicode hex="0053"/>
  <outline>
    <contour>
      <point x="45" y="55" type="curve"/>
      <point x="84" y="18"/>
      <point x="126" y="-5"/>
      <point x="186" y="-5" type="curve"/>
      <point x="296" y="-5"/>
      <point x="366" y="69"/>
      <point x="366" y="182" type="curve"/>
      <point x="366" y="285"/>
      <point x="311" y="346"/>
      <point x="226" y="405" type="curve"/>
      <point x="170" y="445"/>
      <point x="131" y="489"/>
      <point x="131" y="550" type="curve"/>
      <point x="129" y="606"/>
      <point x="151" y="655"/>
      <point x="198" y="655" type="curve"/>
      <point x="238" y="655"/>
      <point x="272" y="628"/>
      <point x="291" y="607" type="curve"/>
      <point x="327" y="656"/>
      <point x="295" y="614"/>
      <point x="331" y="662" type="curve"/>
      <point x="293" y="700"/>
      <point x="255" y="720"/>
      <point x="200" y="720" type="curve"/>
      <point x="101" y="720"/>
      <point x="44" y="650"/>
      <point x="44" y="547" type="curve"/>
      <point x="44" y="453"/>
      <point x="96" y="394"/>
      <point x="173" y="340" type="curve"/>
      <point x="235" y="296"/>
      <point x="280" y="248"/>
      <point x="280" y="183" type="curve"/>
      <point x="280" y="126"/>
      <point x="246" y="66"/>
      <point x="191" y="66" type="curve"/>
      <point x="147" y="66"/>
      <point x="121" y="93"/>
      <point x="93" y="120" type="curve"/>
      <point x="49" y="62"/>
      <point x="89" y="114"/>
    </contour>
    <contour>
      <point x="201" y="801" type="move" name="top"/>
    </contour>
    <contour>
      <point x="220" y="-40" type="move" name="bottom"/>
    </contour>
  </outline>
</glyph>
<glyph name="T" format="1">
  <advance width="417"/>
  <unicode hex="0054"/>
  <outline>
    <contour>
      <point x="252" y="0" type="curve"/>
      <point x="252" y="237"/>
      <point x="252" y="473"/>
      <point x="252" y="710" type="curve"/>
      <point x="166" y="710"/>
      <point x="252" y="710"/>
      <point x="166" y="710" type="curve"/>
      <point x="165" y="473"/>
      <point x="166" y="237"/>
      <point x="166" y="0" type="curve"/>
      <point x="252" y="0"/>
      <point x="166" y="0"/>
    </contour>
    <contour>
      <point x="11" y="649" type="curve"/>
      <point x="142" y="649"/>
      <point x="275" y="649"/>
      <point x="406" y="649" type="curve"/>
      <point x="406" y="725"/>
      <point x="406" y="646"/>
      <point x="406" y="722" type="curve"/>
      <point x="275" y="722"/>
      <point x="142" y="722"/>
      <point x="11" y="722" type="curve"/>
      <point x="11" y="646"/>
      <point x="11" y="725"/>
    </contour>
    <contour>
      <point x="209" y="801" type="move" name="top"/>
    </contour>
    <contour>
      <point x="243" y="-43" type="move" name="bottom"/>
    </contour>
  </outline>
</glyph>
<glyph name="V" format="1">
  <advance width="469"/>
  <unicode hex="0056"/>
  <outline>
    <contour>
      <point x="370" y="722" type="curve"/>
      <point x="313" y="480"/>
      <point x="257" y="242"/>
      <point x="202" y="0" type="curve"/>
      <point x="291" y="0"/>
      <point x="192" y="0"/>
      <point x="281" y="0" type="curve"/>
      <point x="340" y="241"/>
      <point x="398" y="481"/>
      <point x="458" y="722" type="curve"/>
      <point x="370" y="722"/>
      <point x="458" y="722"/>
    </contour>
    <contour>
      <point x="9" y="722" type="curve"/>
      <point x="68" y="481"/>
      <point x="129" y="241"/>
      <point x="188" y="0" type="curve"/>
      <point x="277" y="0"/>
      <point x="180" y="0"/>
      <point x="269" y="0" type="curve"/>
      <point x="213" y="242"/>
      <point x="156" y="482"/>
      <point x="98" y="722" type="curve"/>
      <point x="9" y="722"/>
      <point x="98" y="722"/>
    </contour>
  </outline>
</glyph>
<glyph name="W" format="1">
  <advance width="608"/>
  <unicode hex="0057"/>
  <outline>
    <contour>
      <point x="215" y="0" type="curve"/>
      <point x="258" y="241"/>
      <point x="301" y="481"/>
      <point x="343" y="722" type="curve"/>
      <point x="272" y="722"/>
      <point x="343" y="722"/>
      <point x="272" y="722" type="curve"/>
      <point x="232" y="482"/>
      <point x="193" y="242"/>
      <point x="153" y="0" type="curve"/>
      <point x="220" y="0"/>
      <point x="148" y="0"/>
    </contour>
    <contour>
      <point x="276" y="722" type="curve"/>
      <point x="315" y="481"/>
      <point x="353" y="241"/>
      <point x="393" y="0" type="curve"/>
      <point x="460" y="0"/>
      <point x="386" y="0"/>
      <point x="452" y="0" type="curve"/>
      <point x="417" y="243"/>
      <point x="383" y="481"/>
      <point x="348" y="722" type="curve"/>
      <point x="276" y="722"/>
      <point x="348" y="722"/>
    </contour>
    <contour>
      <point x="27" y="722" type="curve"/>
      <point x="66" y="481"/>
      <point x="105" y="241"/>
      <point x="144" y="0" type="curve"/>
      <point x="212" y="0"/>
      <point x="145" y="0"/>
      <point x="212" y="0" type="curve"/>
      <point x="175" y="241"/>
      <point x="137" y="481"/>
      <point x="101" y="722" type="curve"/>
      <point x="27" y="722"/>
      <point x="101" y="722"/>
    </contour>
    <contour>
      <point x="512" y="722" type="curve"/>
      <point x="473" y="481"/>
      <point x="434" y="241"/>
      <point x="395" y="0" type="curve"/>
      <point x="462" y="0"/>
      <point x="396" y="0"/>
      <point x="464" y="0" type="curve"/>
      <point x="504" y="241"/>
      <point x="545" y="481"/>
      <point x="586" y="722" type="curve"/>
      <point x="512" y="722"/>
      <point x="586" y="722"/>
    </contour>
  </outline>
</glyph>
<glyph name="X" format="1">
  <advance width="425"/>
  <unicode hex="0058"/>
  <outline>
    <contour>
      <point x="323" y="722" type="curve"/>
      <point x="215" y="480"/>
      <point x="113" y="242"/>
      <point x="5" y="0" type="curve"/>
      <point x="92" y="0"/>
      <point x="1" y="0"/>
      <point x="88" y="0" type="curve"/>
      <point x="195" y="242"/>
      <point x="298" y="480"/>
      <point x="404" y="722" type="curve"/>
      <point x="319" y="722"/>
      <point x="408" y="722"/>
    </contour>
    <contour>
      <point x="20" y="722" type="curve"/>
      <point x="126" y="480"/>
      <point x="229" y="242"/>
      <point x="334" y="0" type="curve"/>
      <point x="420" y="0"/>
      <point x="332" y="0"/>
      <point x="418" y="0" type="curve"/>
      <point x="312" y="242"/>
      <point x="209" y="480"/>
      <point x="103" y="722" type="curve"/>
      <point x="17" y="722"/>
      <point x="106" y="722"/>
    </contour>
  </outline>
</glyph>
<glyph name="Y" format="1">
  <advance width="417"/>
  <unicode hex="0059"/>
  <outline>
    <contour>
      <point x="16" y="722" type="curve"/>
      <point x="67" y="593"/>
      <point x="112" y="469"/>
      <point x="162" y="337" type="curve"/>
      <point x="250" y="337"/>
      <point x="148" y="337"/>
      <point x="236" y="337" type="curve"/>
      <point x="192" y="468"/>
      <point x="149" y="592"/>
      <point x="103" y="722" type="curve"/>
      <point x="12" y="722"/>
      <point x="107" y="722"/>
    </contour>
    <contour>
      <point x="323" y="722" type="curve"/>
      <point x="273" y="591"/>
      <point x="227" y="467"/>
      <point x="176" y="337" type="curve"/>
      <point x="264" y="337"/>
      <point x="168" y="337"/>
      <point x="256" y="337" type="curve"/>
      <point x="309" y="468"/>
      <point x="358" y="593"/>
      <point x="411" y="722" type="curve"/>
      <point x="321" y="722"/>
      <point x="414" y="722"/>
    </contour>
    <contour>
      <point x="256" y="0" type="curve"/>
      <point x="256" y="115"/>
      <point x="256" y="225"/>
      <point x="256" y="340" type="curve"/>
      <point x="162" y="340"/>
      <point x="256" y="340"/>
      <point x="162" y="340" type="curve"/>
      <point x="162" y="225"/>
      <point x="162" y="115"/>
      <point x="162" y="0" type="curve"/>
      <point x="256" y="0"/>
      <point x="162" y="0"/>
    </contour>
    <contour>
      <point x="213" y="801" type="move" name="top"/>
    </contour>
  </outline>
</glyph>
<glyph name="bracketleft" format="1">
  <advance width="244"/>
  <unicode hex="005B"/>
  <outline>
    <contour>
      <point x="210" y="770" type="curve"/>
      <point x="178" y="770"/>
      <point x="146" y="770"/>
      <point x="113" y="770" type="curve"/>
      <point x="104" y="770"/>
      <point x="83" y="770"/>
      <point x="74" y="770" type="curve"/>
      <point x="74" y="760"/>
      <point x="74" y="748"/>
      <point x="74" y="738" type="curve"/>
      <point x="74" y="463"/>
      <point x="74" y="188"/>
      <point x="74" y="-88" type="curve"/>
      <point x="74" y="-98"/>
      <point x="74" y="-104"/>
      <point x="74" y="-118" type="curve"/>
      <point x="83" y="-118"/>
      <point x="103" y="-118"/>
      <point x="112" y="-118" type="curve"/>
      <point x="145" y="-118"/>
      <point x="178" y="-118"/>
      <point x="210" y="-118" type="curve"/>
      <point x="210" y="-43"/>
      <point x="210" y="-118"/>
      <point x="210" y="-43" type="curve"/>
      <point x="178" y="-43"/>
      <point x="145" y="-43"/>
      <point x="112" y="-43" type="curve"/>
      <point x="160" y="-43"/>
      <point x="112" y="-43"/>
      <point x="160" y="-43" type="curve"/>
      <point x="160" y="-88"/>
      <point x="160" y="-43"/>
      <point x="160" y="-88" type="curve"/>
      <point x="160" y="188"/>
      <point x="160" y="463"/>
      <point x="160" y="738" type="curve"/>
      <point x="160" y="695"/>
      <point x="160" y="738"/>
      <point x="160" y="695" type="curve"/>
      <point x="113" y="695"/>
      <point x="160" y="695"/>
      <point x="113" y="695" type="curve"/>
      <point x="146" y="695"/>
      <point x="178" y="695"/>
      <point x="210" y="695" type="curve"/>
      <point x="210" y="770"/>
      <point x="210" y="695"/>
    </contour>
  </outline>
</glyph>
<glyph name="backslash" format="1">
  <advance width="391"/>
  <unicode hex="005C"/>
  <outline>
    <contour>
      <point x="365" y="-68" type="curve"/>
      <point x="282" y="236"/>
      <point x="198" y="540"/>
      <point x="116" y="844" type="curve"/>
      <point x="26" y="844"/>
      <point x="116" y="844"/>
      <point x="26" y="844" type="curve"/>
      <point x="109" y="540"/>
      <point x="192" y="236"/>
      <point x="276" y="-68" type="curve"/>
      <point x="365" y="-68"/>
      <point x="276" y="-68"/>
    </contour>
  </outline>
</glyph>
<glyph name="bracketright" format="1">
  <advance width="245"/>
  <unicode hex="005D"/>
  <outline>
    <contour>
      <point x="35" y="695" type="curve"/>
      <point x="67" y="695"/>
      <point x="100" y="695"/>
      <point x="132" y="695" type="curve"/>
      <point x="125" y="703"/>
      <point x="112" y="704"/>
      <point x="105" y="712" type="curve"/>
      <point x="98" y="721"/>
      <point x="91" y="730"/>
      <point x="85" y="738" type="curve"/>
      <point x="85" y="463"/>
      <point x="84" y="188"/>
      <point x="85" y="-88" type="curve"/>
      <point x="91" y="-78"/>
      <point x="100" y="-71"/>
      <point x="108" y="-62" type="curve"/>
      <point x="114" y="-54"/>
      <point x="126" y="-52"/>
      <point x="132" y="-43" type="curve"/>
      <point x="100" y="-43"/>
      <point x="67" y="-43"/>
      <point x="35" y="-43" type="curve"/>
      <point x="34" y="-118"/>
      <point x="35" y="-43"/>
      <point x="34" y="-118" type="curve"/>
      <point x="67" y="-118"/>
      <point x="100" y="-118"/>
      <point x="132" y="-118" type="curve"/>
      <point x="171" y="-118"/>
      <point x="132" y="-118"/>
      <point x="171" y="-118" type="curve"/>
      <point x="171" y="-88"/>
      <point x="171" y="-118"/>
      <point x="171" y="-88" type="curve"/>
      <point x="170" y="188"/>
      <point x="171" y="463"/>
      <point x="171" y="738" type="curve"/>
      <point x="171" y="770"/>
      <point x="171" y="738"/>
      <point x="171" y="770" type="curve"/>
      <point x="132" y="770"/>
      <point x="171" y="770"/>
      <point x="132" y="770" type="curve"/>
      <point x="100" y="770"/>
      <point x="67" y="770"/>
      <point x="35" y="770" type="curve"/>
      <point x="35" y="695"/>
      <point x="35" y="770"/>
    </contour>
  </outline>
</glyph>
<glyph name="asciicircum" format="1">
  <advance width="397"/>
  <unicode hex="005E"/>
  <outline>
    <contour>
      <point x="130" y="459" type="curve"/>
      <point x="167" y="567"/>
      <point x="204" y="674"/>
      <point x="241" y="781" type="curve"/>
      <point x="155" y="781"/>
      <point x="241" y="781"/>
      <point x="155" y="781" type="curve"/>
      <point x="118" y="674"/>
      <point x="81" y="567"/>
      <point x="44" y="459" type="curve"/>
      <point x="130" y="459"/>
      <point x="44" y="459"/>
    </contour>
    <contour>
      <point x="353" y="459" type="curve"/>
      <point x="316" y="564"/>
      <point x="277" y="675"/>
      <point x="241" y="781" type="curve"/>
      <point x="155" y="781"/>
      <point x="241" y="781"/>
      <point x="155" y="781" type="curve"/>
      <point x="192" y="675"/>
      <point x="231" y="564"/>
      <point x="267" y="459" type="curve"/>
      <point x="353" y="459"/>
      <point x="267" y="459"/>
    </contour>
  </outline>
</glyph>
<glyph name="underscore" format="1">
  <advance width="434"/>
  <unicode hex="005F"/>
  <outline>
    <contour>
      <point x="0" y="-196" type="curve"/>
      <point x="144" y="-196"/>
      <point x="289" y="-196"/>
      <point x="434" y="-196" type="curve"/>
      <point x="434" y="-127"/>
      <point x="434" y="-196"/>
      <point x="434" y="-127" type="curve"/>
      <point x="289" y="-127"/>
      <point x="144" y="-127"/>
      <point x="0" y="-127" type="curve"/>
      <point x="0" y="-196"/>
      <point x="0" y="-127"/>
    </contour>
  </outline>
</glyph>
<glyph name="b" format="1">
  <advance width="483"/>
  <unicode hex="0062"/>
  <outline>
    <contour>
      <point x="147" y="379" type="curve"/>
      <point x="159" y="412"/>
      <point x="199" y="467"/>
      <point x="254" y="467" type="curve"/>
      <point x="336" y="467"/>
      <point x="349" y="368"/>
      <point x="349" y="265" type="curve"/>
      <point x="350" y="167"/>
      <point x="332" y="66"/>
      <point x="255" y="66" type="curve"/>
      <point x="210" y="66"/>
      <point x="175" y="102"/>
      <point x="152" y="150" type="curve"/>
      <point x="103" y="116"/>
      <point x="158" y="150"/>
      <point x="109" y="116" type="curve"/>
      <point x="139" y="49"/>
      <point x="186" y="-5"/>
      <point x="262" y="-5" type="curve"/>
      <point x="386" y="-5"/>
      <point x="435" y="121"/>
      <point x="435" y="269" type="curve"/>
      <point x="435" y="413"/>
      <point x="388" y="538"/>
      <point x="264" y="538" type="curve"/>
      <point x="182" y="538"/>
      <point x="131" y="469"/>
      <point x="110" y="412" type="curve"/>
      <point x="150" y="378"/>
      <point x="107" y="413"/>
    </contour>
    <contour>
      <point x="165" y="0" type="curve"/>
      <point x="165" y="264"/>
      <point x="165" y="536"/>
      <point x="165" y="800" type="curve"/>
      <point x="71" y="800"/>
      <point x="173" y="800"/>
      <point x="79" y="800" type="curve"/>
      <point x="79" y="536"/>
      <point x="79" y="264"/>
      <point x="79" y="0" type="curve"/>
      <point x="173" y="0"/>
      <point x="71" y="0"/>
    </contour>
  </outline>
</glyph>
<glyph name="d" format="1">
  <advance width="488"/>
  <unicode hex="0064"/>
  <outline>
    <contour>
      <point x="367" y="449" type="curve"/>
      <point x="339" y="502"/>
      <point x="291" y="535"/>
      <point x="226" y="535" type="curve"/>
      <point x="94" y="535"/>
      <point x="48" y="406"/>
      <point x="48" y="263" type="curve"/>
      <point x="48" y="123"/>
      <point x="97" y="-2"/>
      <point x="224" y="-2" type="curve"/>
      <point x="295" y="-2"/>
      <point x="342" y="44"/>
      <point x="367" y="117" type="curve"/>
      <point x="336" y="166"/>
      <point x="367" y="117"/>
      <point x="336" y="166" type="curve"/>
      <point x="319" y="111"/>
      <point x="289" y="66"/>
      <point x="240" y="66" type="curve"/>
      <point x="154" y="66"/>
      <point x="133" y="164"/>
      <point x="133" y="267" type="curve"/>
      <point x="133" y="369"/>
      <point x="156" y="467"/>
      <point x="242" y="467" type="curve"/>
      <point x="285" y="467"/>
      <point x="318" y="438"/>
      <point x="335" y="397" type="curve"/>
      <point x="366" y="450"/>
      <point x="336" y="396"/>
    </contour>
    <contour>
      <point x="408" y="0" type="curve"/>
      <point x="408" y="267"/>
      <point x="408" y="533"/>
      <point x="408" y="800" type="curve"/>
      <point x="319" y="800"/>
      <point x="408" y="800"/>
      <point x="319" y="800" type="curve"/>
      <point x="319" y="533"/>
      <point x="319" y="267"/>
      <point x="319" y="0" type="curve"/>
      <point x="408" y="0"/>
      <point x="319" y="0"/>
    </contour>
  </outline>
</glyph>
<glyph name="f" format="1">
  <advance width="300"/>
  <unicode hex="0066"/>
  <outline>
    <contour>
      <point x="22" y="465" type="curve"/>
      <point x="278" y="465" type="line"/>
      <point x="278" y="533"/>
      <point x="278" y="465"/>
      <point x="278" y="533" type="curve"/>
      <point x="22" y="533" type="line"/>
      <point x="22" y="465"/>
      <point x="22" y="533"/>
    </contour>
    <contour>
      <point x="185" y="0" type="curve"/>
      <point x="185" y="621" type="line"/>
      <point x="185" y="682"/>
      <point x="186" y="740"/>
      <point x="235" y="740" type="curve"/>
      <point x="254" y="740"/>
      <point x="269" y="730"/>
      <point x="283" y="719" type="curve"/>
      <point x="318" y="773"/>
      <point x="283" y="719"/>
      <point x="318" y="773" type="curve"/>
      <point x="294" y="792"/>
      <point x="265" y="805"/>
      <point x="235" y="805" type="curve"/>
      <point x="141" y="805"/>
      <point x="98" y="723"/>
      <point x="99" y="621" type="curve"/>
      <point x="99" y="0" type="line"/>
      <point x="185" y="0"/>
      <point x="99" y="0"/>
    </contour>
  </outline>
</glyph>
<glyph name="g" format="1">
  <advance width="397"/>
  <unicode hex="0067"/>
  <outline>
    <contour>
      <point x="281" y="460" type="curve"/>
      <point x="374" y="526" type="line"/>
      <point x="366" y="536"/>
      <point x="344" y="577"/>
      <point x="336" y="587" type="curve"/>
      <point x="233" y="515" type="line"/>
      <point x="281" y="460"/>
      <point x="233" y="515"/>
    </contour>
    <contour>
      <point x="130" y="346" type="curve"/>
      <point x="130" y="408"/>
      <point x="146" y="470"/>
      <point x="199" y="470" type="curve"/>
      <point x="253" y="470"/>
      <point x="265" y="410"/>
      <point x="265" y="347" type="curve"/>
      <point x="265" y="289"/>
      <point x="251" y="231"/>
      <point x="198" y="231" type="curve"/>
      <point x="149" y="231"/>
      <point x="130" y="287"/>
      <point x="130" y="346" type="curve"/>
      <point x="44" y="343"/>
      <point x="130" y="346"/>
      <point x="44" y="343" type="curve"/>
      <point x="44" y="242"/>
      <point x="99" y="163"/>
      <point x="195" y="163" type="curve"/>
      <point x="294" y="163"/>
      <point x="351" y="244"/>
      <point x="351" y="350" type="curve"/>
      <point x="351" y="454"/>
      <point x="297" y="537"/>
      <point x="199" y="537" type="curve"/>
      <point x="97" y="537"/>
      <point x="44" y="451"/>
      <point x="44" y="343" type="curve"/>
      <point x="130" y="346"/>
      <point x="44" y="343"/>
    </contour>
    <contour>
      <point x="114" y="237" type="curve"/>
      <point x="71" y="204"/>
      <point x="47" y="165"/>
      <point x="47" y="110" type="curve"/>
      <point x="47" y="32"/>
      <point x="107" y="-14"/>
      <point x="188" y="-24" type="curve"/>
      <point x="254" y="-32"/>
      <point x="305" y="-65"/>
      <point x="305" y="-131" type="curve"/>
      <point x="305" y="-195"/>
      <point x="261" y="-237"/>
      <point x="197" y="-237" type="curve"/>
      <point x="136" y="-237"/>
      <point x="101" y="-184"/>
      <point x="101" y="-118" type="curve"/>
      <point x="101" y="-66"/>
      <point x="112" y="-19"/>
      <point x="156" y="7" type="curve"/>
      <point x="113" y="49"/>
      <point x="156" y="7"/>
      <point x="113" y="49" type="curve"/>
      <point x="48" y="11"/>
      <point x="15" y="-45"/>
      <point x="15" y="-121" type="curve"/>
      <point x="15" y="-229"/>
      <point x="85" y="-305"/>
      <point x="193" y="-305" type="curve"/>
      <point x="304" y="-305"/>
      <point x="385" y="-233"/>
      <point x="383" y="-124" type="curve"/>
      <point x="383" y="-26"/>
      <point x="305" y="29"/>
      <point x="204" y="41" type="curve"/>
      <point x="161" y="45"/>
      <point x="133" y="74"/>
      <point x="133" y="118" type="curve"/>
      <point x="133" y="148"/>
      <point x="137" y="171"/>
      <point x="160" y="192" type="curve"/>
      <point x="114" y="237"/>
      <point x="160" y="192"/>
    </contour>
    <contour>
      <point x="198" y="639" type="move" name="top"/>
    </contour>
  </outline>
</glyph>
<glyph name="h" format="1">
  <advance width="476"/>
  <unicode hex="0068"/>
  <outline>
    <contour>
      <point x="145" y="328" type="curve"/>
      <point x="158" y="389"/>
      <point x="190" y="467"/>
      <point x="251" y="467" type="curve"/>
      <point x="317" y="467"/>
      <point x="317" y="401"/>
      <point x="317" y="325" type="curve"/>
      <point x="317" y="217"/>
      <point x="317" y="108"/>
      <point x="317" y="0" type="curve"/>
      <point x="402" y="0"/>
      <point x="317" y="0"/>
      <point x="402" y="0" type="curve"/>
      <point x="402" y="110"/>
      <point x="402" y="221"/>
      <point x="402" y="331" type="curve"/>
      <point x="402" y="445"/>
      <point x="381" y="535"/>
      <point x="276" y="535" type="curve"/>
      <point x="194" y="535"/>
      <point x="136" y="451"/>
      <point x="124" y="366" type="curve"/>
      <point x="147" y="330"/>
      <point x="123" y="364"/>
    </contour>
    <contour>
      <point x="165" y="0" type="curve"/>
      <point x="165" y="267"/>
      <point x="165" y="533"/>
      <point x="165" y="800" type="curve"/>
      <point x="79" y="800"/>
      <point x="165" y="800"/>
      <point x="79" y="800" type="curve"/>
      <point x="79" y="533"/>
      <point x="79" y="267"/>
      <point x="79" y="0" type="curve"/>
      <point x="165" y="0"/>
      <point x="79" y="0"/>
    </contour>
  </outline>
</glyph>
<glyph name="i" format="1">
  <advance width="243"/>
  <unicode hex="0069"/>
  <outline>
    <contour>
      <point x="167" y="0" type="curve"/>
      <point x="167" y="178"/>
      <point x="167" y="355"/>
      <point x="167" y="533" type="curve"/>
      <point x="77" y="533"/>
      <point x="167" y="533"/>
      <point x="77" y="533" type="curve"/>
      <point x="77" y="355"/>
      <point x="77" y="178"/>
      <point x="77" y="0" type="curve"/>
      <point x="167" y="0"/>
      <point x="77" y="0"/>
    </contour>
    <contour>
      <point x="165" y="682" type="curve"/>
      <point x="165" y="712"/>
      <point x="145" y="728"/>
      <point x="118" y="728" type="curve"/>
      <point x="90" y="728"/>
      <point x="72" y="711"/>
      <point x="72" y="682" type="curve"/>
      <point x="167" y="682"/>
      <point x="71" y="682"/>
      <point x="165" y="682" type="curve"/>
      <point x="165" y="650"/>
      <point x="146" y="636"/>
      <point x="118" y="636" type="curve"/>
      <point x="89" y="636"/>
      <point x="72" y="651"/>
      <point x="72" y="682" type="curve"/>
      <point x="167" y="682"/>
      <point x="71" y="682"/>
    </contour>
    <contour>
      <point x="119" y="639" type="move" name="top"/>
    </contour>
    <contour>
      <point x="161" y="1" type="move" name="bottom"/>
    </contour>
  </outline>
</glyph>
<glyph name="k" format="1">
  <advance width="443"/>
  <unicode hex="006B"/>
  <outline>
    <contour>
      <point x="165" y="0" type="curve"/>
      <point x="165" y="800" type="line"/>
      <point x="79" y="800"/>
      <point x="165" y="800"/>
      <point x="79" y="800" type="curve"/>
      <point x="79" y="533"/>
      <point x="79" y="267"/>
      <point x="79" y="0" type="curve"/>
      <point x="165" y="0"/>
      <point x="79" y="0"/>
    </contour>
    <contour>
      <point x="308" y="533" type="curve"/>
      <point x="149" y="275" type="line"/>
      <point x="232" y="275"/>
      <point x="158" y="275"/>
      <point x="241" y="275" type="curve"/>
      <point x="404" y="533" type="line"/>
      <point x="336" y="533"/>
      <point x="376" y="533"/>
    </contour>
    <contour>
      <point x="420" y="0" type="curve"/>
      <point x="241" y="275" type="line"/>
      <point x="158" y="275"/>
      <point x="232" y="275"/>
      <point x="149" y="275" type="curve"/>
      <point x="325" y="0" type="line"/>
      <point x="386" y="0"/>
      <point x="359" y="0"/>
    </contour>
    <contour>
      <point x="293" y="-43" type="move" name="bottom"/>
    </contour>
  </outline>
</glyph>
<glyph name="m" format="1">
  <advance width="663"/>
  <unicode hex="006D"/>
  <outline>
    <contour>
      <point x="357" y="311" type="curve"/>
      <point x="373" y="383"/>
      <point x="390" y="468"/>
      <point x="448" y="468" type="curve"/>
      <point x="515" y="468"/>
      <point x="502" y="404"/>
      <point x="502" y="324" type="curve"/>
      <point x="502" y="216"/>
      <point x="502" y="108"/>
      <point x="502" y="0" type="curve"/>
      <point x="588" y="0"/>
      <point x="502" y="0"/>
      <point x="588" y="0" type="curve"/>
      <point x="588" y="110"/>
      <point x="588" y="221"/>
      <point x="588" y="331" type="curve"/>
      <point x="588" y="451"/>
      <point x="588" y="538"/>
      <point x="479" y="538" type="curve"/>
      <point x="394" y="538"/>
      <point x="352" y="452"/>
      <point x="336" y="351" type="curve"/>
      <point x="360" y="313"/>
      <point x="333" y="349"/>
    </contour>
    <contour>
      <point x="146" y="311" type="curve"/>
      <point x="158" y="381"/>
      <point x="176" y="468"/>
      <point x="236" y="468" type="curve"/>
      <point x="303" y="468"/>
      <point x="291" y="404"/>
      <point x="291" y="324" type="curve"/>
      <point x="291" y="216"/>
      <point x="291" y="108"/>
      <point x="291" y="0" type="curve"/>
      <point x="377" y="0"/>
      <point x="291" y="0"/>
      <point x="377" y="0" type="curve"/>
      <point x="377" y="110"/>
      <point x="377" y="221"/>
      <point x="377" y="331" type="curve"/>
      <point x="377" y="451"/>
      <point x="377" y="539"/>
      <point x="267" y="539" type="curve"/>
      <point x="180" y="539"/>
      <point x="140" y="452"/>
      <point x="125" y="351" type="curve"/>
      <point x="149" y="312"/>
      <point x="122" y="349"/>
    </contour>
    <contour>
      <point x="165" y="0" type="curve"/>
      <point x="165" y="178"/>
      <point x="165" y="355"/>
      <point x="165" y="533" type="curve"/>
      <point x="79" y="533"/>
      <point x="165" y="533"/>
      <point x="79" y="533" type="curve"/>
      <point x="79" y="355"/>
      <point x="79" y="178"/>
      <point x="79" y="0" type="curve"/>
      <point x="165" y="0"/>
      <point x="79" y="0"/>
    </contour>
  </outline>
</glyph>
<glyph name="n" format="1">
  <advance width="475"/>
  <unicode hex="006E"/>
  <outline>
    <contour>
      <point x="148" y="299" type="curve"/>
      <point x="154" y="384"/>
      <point x="194" y="467"/>
      <point x="249" y="467" type="curve"/>
      <point x="312" y="467"/>
      <point x="316" y="401"/>
      <point x="316" y="324" type="curve"/>
      <point x="316" y="217"/>
      <point x="316" y="108"/>
      <point x="316" y="0" type="curve"/>
      <point x="410" y="0"/>
      <point x="308" y="0"/>
      <point x="402" y="0" type="curve"/>
      <point x="402" y="109"/>
      <point x="402" y="221"/>
      <point x="402" y="331" type="curve"/>
      <point x="402" y="446"/>
      <point x="384" y="538"/>
      <point x="280" y="538" type="curve"/>
      <point x="199" y="538"/>
      <point x="136" y="460"/>
      <point x="125" y="342" type="curve"/>
      <point x="153" y="300"/>
      <point x="119" y="342"/>
    </contour>
    <contour>
      <point x="165" y="0" type="curve"/>
      <point x="165" y="178"/>
      <point x="165" y="355"/>
      <point x="165" y="533" type="curve"/>
      <point x="79" y="533"/>
      <point x="165" y="533"/>
      <point x="79" y="533" type="curve"/>
      <point x="79" y="355"/>
      <point x="79" y="178"/>
      <point x="79" y="0" type="curve"/>
      <point x="165" y="0"/>
      <point x="79" y="0"/>
    </contour>
    <contour>
      <point x="244" y="639" type="move" name="top"/>
    </contour>
    <contour>
      <point x="279" y="-44" type="move" name="bottom"/>
    </contour>
  </outline>
</glyph>
<glyph name="p" format="1">
  <advance width="488"/>
  <unicode hex="0070"/>
  <outline>
    <contour>
      <point x="149" y="347" type="curve"/>
      <point x="157" y="399"/>
      <point x="200" y="467"/>
      <point x="251" y="467" type="curve"/>
      <point x="346" y="467"/>
      <point x="354" y="370"/>
      <point x="354" y="268" type="curve"/>
      <point x="356" y="163"/>
      <point x="344" y="63"/>
      <point x="254" y="63" type="curve"/>
      <point x="205" y="63"/>
      <point x="175" y="96"/>
      <point x="152" y="140" type="curve"/>
      <point x="117" y="100"/>
      <point x="155" y="145"/>
      <point x="120" y="105" type="curve"/>
      <point x="156" y="37"/>
      <point x="200" y="-5"/>
      <point x="271" y="-5" type="curve"/>
      <point x="409" y="-5"/>
      <point x="440" y="127"/>
      <point x="440" y="272" type="curve"/>
      <point x="440" y="411"/>
      <point x="407" y="538"/>
      <point x="271" y="538" type="curve"/>
      <point x="198" y="538"/>
      <point x="146" y="468"/>
      <point x="125" y="407" type="curve"/>
      <point x="151" y="344"/>
      <point x="122" y="410"/>
    </contour>
    <contour>
      <point x="165" y="-300" type="curve"/>
      <point x="165" y="-22"/>
      <point x="165" y="255"/>
      <point x="165" y="533" type="curve"/>
      <point x="79" y="533"/>
      <point x="165" y="533"/>
      <point x="79" y="533" type="curve"/>
      <point x="79" y="255"/>
      <point x="79" y="-22"/>
      <point x="79" y="-300" type="curve"/>
      <point x="165" y="-300"/>
      <point x="79" y="-300"/>
    </contour>
  </outline>
</glyph>
<glyph name="q" format="1">
  <advance width="488"/>
  <unicode hex="0071"/>
  <outline>
    <contour>
      <point x="365" y="414" type="curve"/>
      <point x="341" y="491"/>
      <point x="281" y="538"/>
      <point x="216" y="538" type="curve"/>
      <point x="79" y="538"/>
      <point x="47" y="407"/>
      <point x="48" y="265" type="curve"/>
      <point x="48" y="122"/>
      <point x="86" y="-6"/>
      <point x="221" y="-6" type="curve"/>
      <point x="286" y="-6"/>
      <point x="339" y="55"/>
      <point x="362" y="120" type="curve"/>
      <point x="332" y="161"/>
      <point x="367" y="119"/>
      <point x="337" y="160" type="curve"/>
      <point x="320" y="110"/>
      <point x="281" y="63"/>
      <point x="234" y="63" type="curve"/>
      <point x="145" y="63"/>
      <point x="134" y="164"/>
      <point x="134" y="268" type="curve"/>
      <point x="134" y="369"/>
      <point x="146" y="467"/>
      <point x="231" y="467" type="curve"/>
      <point x="274" y="467"/>
      <point x="311" y="441"/>
      <point x="341" y="375" type="curve"/>
      <point x="362" y="419"/>
      <point x="344" y="370"/>
    </contour>
    <contour>
      <point x="409" y="-300" type="curve"/>
      <point x="409" y="-24"/>
      <point x="409" y="257"/>
      <point x="409" y="533" type="curve"/>
      <point x="311" y="533"/>
      <point x="417" y="533"/>
      <point x="320" y="533" type="curve"/>
      <point x="320" y="257"/>
      <point x="320" y="-24"/>
      <point x="320" y="-300" type="curve"/>
      <point x="417" y="-300"/>
      <point x="311" y="-300"/>
    </contour>
  </outline>
</glyph>
<glyph name="r" format="1">
  <advance width="298"/>
  <unicode hex="0072"/>
  <outline>
    <contour>
      <point x="165" y="0" type="curve"/>
      <point x="165" y="176"/>
      <point x="165" y="357"/>
      <point x="165" y="533" type="curve"/>
      <point x="71" y="533"/>
      <point x="173" y="533"/>
      <point x="79" y="533" type="curve"/>
      <point x="79" y="357"/>
      <point x="79" y="176"/>
      <point x="79" y="0" type="curve"/>
      <point x="173" y="0"/>
      <point x="71" y="0"/>
    </contour>
    <contour>
      <point x="147" y="329" type="curve"/>
      <point x="164" y="427"/>
      <point x="224" y="469"/>
      <point x="287" y="469" type="curve"/>
      <point x="287" y="548"/>
      <point x="287" y="459"/>
      <point x="287" y="538" type="curve"/>
      <point x="203" y="538"/>
      <point x="136" y="462"/>
      <point x="114" y="365" type="curve"/>
      <point x="148" y="329"/>
      <point x="116" y="363"/>
    </contour>
    <contour>
      <point x="123" y="639" type="move" name="top"/>
    </contour>
    <contour>
      <point x="159" y="-45" type="move" name="bottom"/>
    </contour>
  </outline>
</glyph>
<glyph name="s" format="1">
  <advance width="356"/>
  <unicode hex="0073"/>
  <outline>
    <contour>
      <point x="38" y="48" type="curve"/>
      <point x="81" y="16"/>
      <point x="127" y="-5"/>
      <point x="177" y="-5" type="curve"/>
      <point x="269" y="-5"/>
      <point x="319" y="55"/>
      <point x="319" y="147" type="curve"/>
      <point x="318" y="233"/>
      <point x="267" y="275"/>
      <point x="189" y="309" type="curve" smooth="yes"/>
      <point x="148" y="328"/>
      <point x="128" y="358"/>
      <point x="128" y="404" type="curve"/>
      <point x="128" y="437"/>
      <point x="141" y="467"/>
      <point x="174" y="467" type="curve"/>
      <point x="203" y="467"/>
      <point x="228" y="451"/>
      <point x="247" y="431" type="curve"/>
      <point x="283" y="486"/>
      <point x="251" y="438"/>
      <point x="287" y="493" type="curve"/>
      <point x="259" y="519"/>
      <point x="218" y="538"/>
      <point x="176" y="538" type="curve"/>
      <point x="96" y="538"/>
      <point x="50" y="484"/>
      <point x="50" y="404" type="curve"/>
      <point x="50" y="324"/>
      <point x="88" y="276"/>
      <point x="162" y="244" type="curve" smooth="yes"/>
      <point x="206" y="223"/>
      <point x="237" y="195"/>
      <point x="236" y="141" type="curve"/>
      <point x="236" y="101"/>
      <point x="217" y="69"/>
      <point x="182" y="69" type="curve"/>
      <point x="144" y="69"/>
      <point x="112" y="85"/>
      <point x="82" y="108" type="curve"/>
      <point x="38" y="48"/>
      <point x="82" y="108"/>
    </contour>
    <contour>
      <point x="180" y="639" type="move" name="top"/>
    </contour>
    <contour>
      <point x="205" y="-42" type="move" name="bottom"/>
    </contour>
  </outline>
</glyph>
<glyph name="t" format="1">
  <advance width="287"/>
  <unicode hex="0074"/>
  <outline>
    <contour>
      <point x="22" y="463" type="curve"/>
      <point x="276" y="463" type="line"/>
      <point x="276" y="532"/>
      <point x="276" y="463"/>
      <point x="276" y="532" type="curve"/>
      <point x="22" y="532" type="line"/>
      <point x="22" y="463"/>
      <point x="22" y="532"/>
    </contour>
    <contour>
      <point x="241" y="87" type="curve"/>
      <point x="228" y="75"/>
      <point x="218" y="67"/>
      <point x="202" y="67" type="curve"/>
      <point x="162" y="67"/>
      <point x="163" y="110"/>
      <point x="163" y="161" type="curve"/>
      <point x="163" y="680" type="line"/>
      <point x="77" y="626"/>
      <point x="163" y="674"/>
      <point x="77" y="620" type="curve"/>
      <point x="77" y="157" type="line"/>
      <point x="77" y="60"/>
      <point x="105" y="-6"/>
      <point x="189" y="-6" type="curve"/>
      <point x="224" y="-6"/>
      <point x="248" y="6"/>
      <point x="279" y="28" type="curve"/>
      <point x="241" y="87"/>
      <point x="279" y="28"/>
    </contour>
    <contour>
      <point x="217" y="-40" type="move" name="bottom"/>
    </contour>
  </outline>
</glyph>
<glyph name="v" format="1">
  <advance width="412"/>
  <unicode hex="0076"/>
  <outline>
    <contour>
      <point x="22" y="533" type="curve"/>
      <point x="66" y="355"/>
      <point x="111" y="178"/>
      <point x="155" y="0" type="curve"/>
      <point x="234" y="0"/>
      <point x="155" y="0"/>
      <point x="234" y="0" type="curve"/>
      <point x="191" y="177"/>
      <point x="153" y="356"/>
      <point x="110" y="533" type="curve"/>
      <point x="22" y="533"/>
      <point x="110" y="533"/>
    </contour>
    <contour>
      <point x="308" y="533" type="curve"/>
      <point x="175" y="0" type="line"/>
      <point x="256" y="0"/>
      <point x="175" y="0"/>
      <point x="256" y="0" type="curve"/>
      <point x="303" y="178"/>
      <point x="349" y="355"/>
      <point x="396" y="533" type="curve"/>
      <point x="308" y="533"/>
      <point x="396" y="533"/>
    </contour>
  </outline>
</glyph>
<glyph name="w" format="1">
  <advance width="602"/>
  <unicode hex="0077"/>
  <outline>
    <contour>
      <point x="212" y="0" type="curve"/>
      <point x="256" y="178"/>
      <point x="299" y="355"/>
      <point x="342" y="533" type="curve"/>
      <point x="267" y="533"/>
      <point x="342" y="533"/>
      <point x="267" y="533" type="curve"/>
      <point x="225" y="355"/>
      <point x="182" y="178"/>
      <point x="140" y="0" type="curve"/>
      <point x="212" y="0"/>
      <point x="140" y="0"/>
    </contour>
    <contour>
      <point x="507" y="533" type="curve"/>
      <point x="468" y="355"/>
      <point x="428" y="178"/>
      <point x="389" y="0" type="curve"/>
      <point x="460" y="0"/>
      <point x="389" y="0"/>
      <point x="460" y="0" type="curve"/>
      <point x="501" y="178"/>
      <point x="542" y="355"/>
      <point x="582" y="533" type="curve"/>
      <point x="507" y="533"/>
      <point x="582" y="533"/>
    </contour>
    <contour>
      <point x="272" y="533" type="curve"/>
      <point x="310" y="355"/>
      <point x="349" y="178"/>
      <point x="388" y="0" type="curve"/>
      <point x="460" y="0"/>
      <point x="388" y="0"/>
      <point x="460" y="0" type="curve"/>
      <point x="422" y="178"/>
      <point x="383" y="355"/>
      <point x="345" y="533" type="curve"/>
      <point x="272" y="533"/>
      <point x="345" y="533"/>
    </contour>
    <contour>
      <point x="23" y="533" type="curve"/>
      <point x="62" y="355"/>
      <point x="101" y="178"/>
      <point x="140" y="0" type="curve"/>
      <point x="211" y="0"/>
      <point x="140" y="0"/>
      <point x="211" y="0" type="curve"/>
      <point x="173" y="178"/>
      <point x="135" y="355"/>
      <point x="97" y="533" type="curve"/>
      <point x="23" y="533"/>
      <point x="97" y="533"/>
    </contour>
  </outline>
</glyph>
<glyph name="x" format="1">
  <advance width="403"/>
  <unicode hex="0078"/>
  <outline>
    <contour>
      <point x="389" y="0" type="curve"/>
      <point x="350" y="83"/>
      <point x="145" y="450"/>
      <point x="106" y="533" type="curve"/>
      <point x="24" y="533"/>
      <point x="98" y="533"/>
      <point x="17" y="533" type="curve"/>
      <point x="56" y="450"/>
      <point x="261" y="83"/>
      <point x="300" y="0" type="curve"/>
      <point x="389" y="0"/>
      <point x="300" y="0"/>
    </contour>
    <contour>
      <point x="300" y="533" type="curve"/>
      <point x="260" y="450"/>
      <point x="52" y="83"/>
      <point x="13" y="0" type="curve"/>
      <point x="101" y="0"/>
      <point x="13" y="0"/>
      <point x="101" y="0" type="curve"/>
      <point x="140" y="83"/>
      <point x="346" y="450"/>
      <point x="386" y="533" type="curve"/>
      <point x="310" y="533"/>
      <point x="376" y="533"/>
    </contour>
  </outline>
</glyph>
<glyph name="y" format="1">
  <advance width="433"/>
  <unicode hex="0079"/>
  <outline>
    <contour>
      <point x="259" y="-11" type="curve"/>
      <point x="230" y="91"/>
      <point x="135" y="431"/>
      <point x="106" y="533" type="curve"/>
      <point x="16" y="533"/>
      <point x="106" y="533"/>
      <point x="16" y="533" type="curve"/>
      <point x="48" y="432"/>
      <point x="147" y="87"/>
      <point x="179" y="-14" type="curve"/>
      <point x="259" y="-14"/>
      <point x="179" y="-11"/>
    </contour>
    <contour>
      <point x="172" y="-300" type="curve"/>
      <point x="221" y="-149"/>
      <point x="376" y="382"/>
      <point x="425" y="533" type="curve"/>
      <point x="336" y="533"/>
      <point x="425" y="533"/>
      <point x="336" y="533" type="curve"/>
      <point x="287" y="382"/>
      <point x="131" y="-149"/>
      <point x="82" y="-300" type="curve"/>
      <point x="172" y="-300"/>
      <point x="82" y="-300"/>
    </contour>
    <contour>
      <point x="229" y="639" type="move" name="top"/>
    </contour>
  </outline>
</glyph>
<glyph name="braceleft" format="1">
  <advance width="206"/>
  <unicode hex="007B"/>
  <outline>
    <contour>
      <point x="172" y="-47" type="curve"/>
      <point x="131" y="-47"/>
      <point x="137" y="-1"/>
      <point x="137" y="47" type="curve"/>
      <point x="137" y="102"/>
      <point x="137" y="157"/>
      <point x="137" y="211" type="curve"/>
      <point x="137" y="302"/>
      <point x="105" y="376"/>
      <point x="24" y="376" type="curve"/>
      <point x="24" y="304"/>
      <point x="24" y="376"/>
      <point x="24" y="304" type="curve"/>
      <point x="60" y="304"/>
      <point x="59" y="262"/>
      <point x="59" y="218" type="curve"/>
      <point x="59" y="162"/>
      <point x="59" y="106"/>
      <point x="59" y="51" type="curve"/>
      <point x="59" y="-42"/>
      <point x="89" y="-116"/>
      <point x="172" y="-116" type="curve"/>
      <point x="172" y="-47"/>
      <point x="172" y="-116"/>
    </contour>
    <contour>
      <point x="172" y="795" type="curve"/>
      <point x="89" y="795"/>
      <point x="59" y="723"/>
      <point x="59" y="631" type="curve"/>
      <point x="59" y="574"/>
      <point x="59" y="516"/>
      <point x="59" y="459" type="curve"/>
      <point x="59" y="416"/>
      <point x="59" y="376"/>
      <point x="24" y="376" type="curve"/>
      <point x="24" y="304"/>
      <point x="24" y="376"/>
      <point x="24" y="304" type="curve"/>
      <point x="106" y="304"/>
      <point x="137" y="377"/>
      <point x="137" y="469" type="curve"/>
      <point x="137" y="523"/>
      <point x="137" y="577"/>
      <point x="137" y="631" type="curve"/>
      <point x="137" y="679"/>
      <point x="131" y="726"/>
      <point x="172" y="726" type="curve"/>
      <point x="172" y="795"/>
      <point x="172" y="726"/>
    </contour>
  </outline>
</glyph>
<glyph name="braceright" format="1">
  <advance width="207"/>
  <unicode hex="007D"/>
  <outline>
    <contour>
      <point x="34" y="-116" type="curve"/>
      <point x="117" y="-116"/>
      <point x="148" y="-42"/>
      <point x="148" y="51" type="curve"/>
      <point x="148" y="106"/>
      <point x="148" y="162"/>
      <point x="148" y="218" type="curve"/>
      <point x="148" y="262"/>
      <point x="145" y="304"/>
      <point x="181" y="304" type="curve"/>
      <point x="181" y="376"/>
      <point x="181" y="304"/>
      <point x="181" y="376" type="curve"/>
      <point x="100" y="376"/>
      <point x="69" y="302"/>
      <point x="69" y="211" type="curve"/>
      <point x="69" y="157"/>
      <point x="69" y="102"/>
      <point x="69" y="47" type="curve"/>
      <point x="69" y="-1"/>
      <point x="74" y="-47"/>
      <point x="34" y="-47" type="curve"/>
      <point x="34" y="-116"/>
      <point x="34" y="-47"/>
    </contour>
    <contour>
      <point x="34" y="726" type="curve"/>
      <point x="75" y="726"/>
      <point x="69" y="679"/>
      <point x="69" y="631" type="curve"/>
      <point x="69" y="577"/>
      <point x="69" y="523"/>
      <point x="69" y="469" type="curve"/>
      <point x="69" y="377"/>
      <point x="100" y="304"/>
      <point x="181" y="304" type="curve"/>
      <point x="181" y="376"/>
      <point x="181" y="304"/>
      <point x="181" y="376" type="curve"/>
      <point x="146" y="376"/>
      <point x="148" y="416"/>
      <point x="148" y="459" type="curve"/>
      <point x="148" y="516"/>
      <point x="148" y="574"/>
      <point x="148" y="631" type="curve"/>
      <point x="148" y="723"/>
      <point x="117" y="795"/>
      <point x="34" y="795" type="curve"/>
      <point x="34" y="726"/>
      <point x="34" y="795"/>
    </contour>
  </outline>
</glyph>
<glyph name="asciitilde" format="1">
  <advance width="513"/>
  <unicode hex="007E"/>
  <outline>
    <contour>
      <point x="378" y="363" type="curve"/>
      <point x="370" y="324"/>
      <point x="361" y="278"/>
      <point x="331" y="278" type="curve"/>
      <point x="309" y="278"/>
      <point x="299" y="291"/>
      <point x="286" y="310" type="curve"/>
      <point x="257" y="347"/>
      <point x="232" y="370"/>
      <point x="186" y="370" type="curve"/>
      <point x="107" y="370"/>
      <point x="80" y="314"/>
      <point x="66" y="233" type="curve"/>
      <point x="99" y="223"/>
      <point x="103" y="221"/>
      <point x="136" y="211" type="curve"/>
      <point x="143" y="253"/>
      <point x="152" y="297"/>
      <point x="184" y="297" type="curve"/>
      <point x="205" y="297"/>
      <point x="215" y="284"/>
      <point x="228" y="267" type="curve"/>
      <point x="260" y="228"/>
      <point x="284" y="206"/>
      <point x="333" y="205" type="curve"/>
      <point x="410" y="205"/>
      <point x="429" y="266"/>
      <point x="447" y="344" type="curve"/>
      <point x="414" y="352"/>
      <point x="411" y="355"/>
    </contour>
  </outline>
</glyph>
<glyph name="exclamdown" format="1">
  <advance width="243"/>
  <unicode hex="00A1"/>
  <outline>
    <contour>
      <point x="78" y="296" type="line"/>
      <point x="71" y="-197" type="line"/>
      <point x="172" y="-197" type="line"/>
      <point x="168" y="296" type="line"/>
    </contour>
    <contour>
      <point x="78" y="487" type="curve"/>
      <point x="78" y="457"/>
      <point x="97" y="441"/>
      <point x="124" y="441" type="curve"/>
      <point x="151" y="441"/>
      <point x="169" y="458"/>
      <point x="169" y="486" type="curve"/>
      <point x="76" y="487"/>
      <point x="171" y="486"/>
      <point x="78" y="487" type="curve"/>
      <point x="78" y="518"/>
      <point x="97" y="532"/>
      <point x="124" y="532" type="curve"/>
      <point x="152" y="532"/>
      <point x="169" y="516"/>
      <point x="169" y="486" type="curve"/>
      <point x="76" y="487"/>
      <point x="171" y="486"/>
    </contour>
  </outline>
</glyph>
<glyph name="cent" format="1">
  <advance width="465"/>
  <unicode hex="00A2"/>
  <outline>
    <contour>
      <point x="291" y="-53" type="curve"/>
      <point x="291" y="-13"/>
      <point x="291" y="27"/>
      <point x="291" y="67" type="curve"/>
      <point x="204" y="67"/>
      <point x="291" y="67"/>
      <point x="204" y="67" type="curve"/>
      <point x="204" y="27"/>
      <point x="204" y="-13"/>
      <point x="204" y="-53" type="curve"/>
      <point x="291" y="-53"/>
      <point x="204" y="-53"/>
    </contour>
    <contour>
      <point x="218" y="778" type="curve"/>
      <point x="218" y="742"/>
      <point x="218" y="706"/>
      <point x="218" y="670" type="curve"/>
      <point x="304" y="670"/>
      <point x="218" y="670"/>
      <point x="304" y="670" type="curve"/>
      <point x="304" y="706"/>
      <point x="304" y="742"/>
      <point x="304" y="778" type="curve"/>
      <point x="218" y="778"/>
      <point x="304" y="778"/>
    </contour>
    <contour>
      <point x="421" y="606" type="curve"/>
      <point x="374" y="661"/>
      <point x="331" y="683"/>
      <point x="267" y="683" type="curve"/>
      <point x="108" y="683"/>
      <point x="45" y="542"/>
      <point x="45" y="364" type="curve"/>
      <point x="45" y="192"/>
      <point x="92" y="49"/>
      <point x="244" y="49" type="curve"/>
      <point x="320" y="49"/>
      <point x="371" y="80"/>
      <point x="419" y="149" type="curve"/>
      <point x="365" y="197"/>
      <point x="419" y="149"/>
      <point x="365" y="197" type="curve"/>
      <point x="333" y="155"/>
      <point x="305" y="121"/>
      <point x="251" y="121" type="curve"/>
      <point x="149" y="121"/>
      <point x="131" y="238"/>
      <point x="131" y="368" type="curve"/>
      <point x="131" y="497"/>
      <point x="160" y="611"/>
      <point x="259" y="611" type="curve"/>
      <point x="308" y="611"/>
      <point x="339" y="590"/>
      <point x="369" y="553" type="curve"/>
      <point x="421" y="606"/>
      <point x="369" y="553"/>
    </contour>
  </outline>
</glyph>
<glyph name="sterling" format="1">
  <advance width="365"/>
  <unicode hex="00A3"/>
  <outline>
    <contour>
      <point x="302" y="69" type="curve"/>
      <point x="216" y="69"/>
      <point x="126" y="69"/>
      <point x="41" y="69" type="curve"/>
      <point x="41" y="0"/>
      <point x="41" y="69"/>
      <point x="41" y="0" type="curve"/>
      <point x="126" y="0"/>
      <point x="217" y="0"/>
      <point x="302" y="0" type="curve"/>
      <point x="302" y="69"/>
      <point x="302" y="0"/>
    </contour>
    <contour>
      <point x="268" y="410" type="curve"/>
      <point x="199" y="410"/>
      <point x="124" y="410"/>
      <point x="57" y="410" type="curve"/>
      <point x="57" y="342"/>
      <point x="57" y="410"/>
      <point x="57" y="342" type="curve"/>
      <point x="124" y="342"/>
      <point x="199" y="342"/>
      <point x="268" y="342" type="curve"/>
      <point x="268" y="410"/>
      <point x="268" y="342"/>
    </contour>
    <contour>
      <point x="323" y="668" type="curve"/>
      <point x="292" y="708"/>
      <point x="263" y="723"/>
      <point x="221" y="723" type="curve"/>
      <point x="72" y="723"/>
      <point x="71" y="558"/>
      <point x="98" y="368" type="curve"/>
      <point x="119" y="216"/>
      <point x="141" y="69"/>
      <point x="41" y="69" type="curve"/>
      <point x="41" y="0"/>
      <point x="41" y="69"/>
      <point x="41" y="0" type="curve"/>
      <point x="206" y="0"/>
      <point x="201" y="180"/>
      <point x="174" y="383" type="curve"/>
      <point x="155" y="522"/>
      <point x="134" y="657"/>
      <point x="216" y="657" type="curve"/>
      <point x="244" y="657"/>
      <point x="260" y="639"/>
      <point x="277" y="619" type="curve"/>
      <point x="323" y="668"/>
      <point x="277" y="619"/>
    </contour>
  </outline>
</glyph>
<glyph name="currency" format="1">
  <advance width="543"/>
  <unicode hex="00A4"/>
  <outline>
    <contour>
      <point x="216" y="314" type="curve"/>
      <point x="216" y="371"/>
      <point x="222" y="427"/>
      <point x="270" y="427" type="curve"/>
      <point x="320" y="427"/>
      <point x="325" y="375"/>
      <point x="325" y="314" type="curve"/>
      <point x="325" y="254"/>
      <point x="322" y="194"/>
      <point x="272" y="194" type="curve"/>
      <point x="220" y="194"/>
      <point x="216" y="252"/>
      <point x="216" y="314" type="curve"/>
      <point x="130" y="314"/>
      <point x="221" y="314"/>
      <point x="135" y="314" type="curve"/>
      <point x="135" y="208"/>
      <point x="176" y="126"/>
      <point x="272" y="126" type="curve"/>
      <point x="369" y="126"/>
      <point x="408" y="210"/>
      <point x="408" y="316" type="curve"/>
      <point x="408" y="416"/>
      <point x="369" y="496"/>
      <point x="277" y="496" type="curve"/>
      <point x="181" y="496"/>
      <point x="135" y="417"/>
      <point x="135" y="314" type="curve"/>
      <point x="221" y="314"/>
      <point x="130" y="314"/>
    </contour>
    <contour>
      <point x="338" y="387" type="line"/>
      <point x="486" y="525" type="line"/>
      <point x="424" y="587" type="line"/>
      <point x="286" y="439" type="line"/>
    </contour>
    <contour>
      <point x="291" y="191" type="line"/>
      <point x="429" y="43" type="line"/>
      <point x="491" y="104" type="line"/>
      <point x="343" y="243" type="line"/>
    </contour>
    <contour>
      <point x="201" y="242" type="line"/>
      <point x="53" y="104" type="line"/>
      <point x="114" y="42" type="line"/>
      <point x="253" y="190" type="line"/>
    </contour>
    <contour>
      <point x="260" y="440" type="line"/>
      <point x="121" y="588" type="line"/>
      <point x="60" y="526" type="line"/>
      <point x="208" y="388" type="line"/>
    </contour>
  </outline>
</glyph>
<glyph name="yen" format="1">
  <advance width="463"/>
  <unicode hex="00A5"/>
  <outline>
    <contour>
      <point x="374" y="394" type="curve"/>
      <point x="328" y="394"/>
      <point x="284" y="394"/>
      <point x="239" y="394" type="curve"/>
      <point x="239" y="319"/>
      <point x="239" y="394"/>
      <point x="239" y="319" type="curve"/>
      <point x="284" y="319"/>
      <point x="328" y="319"/>
      <point x="374" y="319" type="curve"/>
      <point x="374" y="394"/>
      <point x="374" y="319"/>
    </contour>
    <contour>
      <point x="221" y="394" type="curve"/>
      <point x="176" y="394"/>
      <point x="133" y="394"/>
      <point x="89" y="394" type="curve"/>
      <point x="89" y="319"/>
      <point x="89" y="394"/>
      <point x="89" y="319" type="curve"/>
      <point x="133" y="319"/>
      <point x="176" y="319"/>
      <point x="221" y="319" type="curve"/>
      <point x="221" y="394"/>
      <point x="221" y="319"/>
    </contour>
    <contour>
      <point x="374" y="264" type="curve"/>
      <point x="278" y="264"/>
      <point x="184" y="264"/>
      <point x="89" y="264" type="curve"/>
      <point x="89" y="189"/>
      <point x="89" y="264"/>
      <point x="89" y="189" type="curve"/>
      <point x="184" y="189"/>
      <point x="278" y="189"/>
      <point x="374" y="189" type="curve"/>
      <point x="374" y="264"/>
      <point x="374" y="189"/>
    </contour>
    <contour>
      <point x="37" y="722" type="curve"/>
      <point x="88" y="593"/>
      <point x="132" y="469"/>
      <point x="182" y="337" type="curve"/>
      <point x="270" y="337"/>
      <point x="168" y="337"/>
      <point x="256" y="337" type="curve"/>
      <point x="212" y="468"/>
      <point x="169" y="592"/>
      <point x="123" y="722" type="curve"/>
      <point x="32" y="722"/>
      <point x="127" y="722"/>
    </contour>
    <contour>
      <point x="343" y="722" type="curve"/>
      <point x="293" y="591"/>
      <point x="248" y="467"/>
      <point x="196" y="337" type="curve"/>
      <point x="284" y="337"/>
      <point x="189" y="337"/>
      <point x="277" y="337" type="curve"/>
      <point x="329" y="468"/>
      <point x="378" y="593"/>
      <point x="431" y="722" type="curve"/>
      <point x="341" y="722"/>
      <point x="434" y="722"/>
    </contour>
    <contour>
      <point x="276" y="0" type="curve"/>
      <point x="276" y="115"/>
      <point x="276" y="225"/>
      <point x="276" y="340" type="curve"/>
      <point x="182" y="340"/>
      <point x="276" y="340"/>
      <point x="182" y="340" type="curve"/>
      <point x="182" y="225"/>
      <point x="182" y="115"/>
      <point x="182" y="0" type="curve"/>
      <point x="276" y="0"/>
      <point x="182" y="0"/>
    </contour>
  </outline>
</glyph>
<glyph name="section" format="1">
  <advance width="388"/>
  <unicode hex="00A7"/>
  <outline>
    <contour>
      <point x="306" y="703" type="curve"/>
      <point x="270" y="734"/>
      <point x="242" y="750"/>
      <point x="198" y="750" type="curve"/>
      <point x="115" y="750"/>
      <point x="70" y="691"/>
      <point x="70" y="610" type="curve"/>
      <point x="70" y="537"/>
      <point x="101" y="486"/>
      <point x="167" y="454" type="curve"/>
      <point x="214" y="429"/>
      <point x="257" y="411"/>
      <point x="257" y="362" type="curve"/>
      <point x="257" y="310"/>
      <point x="240" y="270"/>
      <point x="192" y="256" type="curve"/>
      <point x="243" y="202"/>
      <point x="192" y="256"/>
      <point x="243" y="202" type="curve"/>
      <point x="315" y="225"/>
      <point x="343" y="284"/>
      <point x="343" y="361" type="curve"/>
      <point x="342" y="442"/>
      <point x="286" y="484"/>
      <point x="209" y="519" type="curve"/>
      <point x="173" y="537"/>
      <point x="151" y="568"/>
      <point x="151" y="610" type="curve"/>
      <point x="151" y="646"/>
      <point x="163" y="682"/>
      <point x="199" y="682" type="curve"/>
      <point x="230" y="682"/>
      <point x="244" y="668"/>
      <point x="263" y="650" type="curve"/>
      <point x="306" y="703"/>
      <point x="263" y="650"/>
    </contour>
    <contour>
      <point x="146" y="521" type="curve"/>
      <point x="79" y="491"/>
      <point x="48" y="440"/>
      <point x="48" y="366" type="curve"/>
      <point x="48" y="288"/>
      <point x="94" y="240"/>
      <point x="168" y="206" type="curve"/>
      <point x="208" y="186"/>
      <point x="242" y="165"/>
      <point x="242" y="118" type="curve"/>
      <point x="242" y="77"/>
      <point x="228" y="40"/>
      <point x="195" y="40" type="curve"/>
      <point x="159" y="40"/>
      <point x="142" y="58"/>
      <point x="119" y="84" type="curve"/>
      <point x="69" y="37"/>
      <point x="119" y="84"/>
      <point x="69" y="37" type="curve"/>
      <point x="107" y="-8"/>
      <point x="142" y="-28"/>
      <point x="194" y="-28" type="curve"/>
      <point x="276" y="-28"/>
      <point x="325" y="31"/>
      <point x="325" y="117" type="curve"/>
      <point x="324" y="190"/>
      <point x="289" y="241"/>
      <point x="222" y="271" type="curve"/>
      <point x="175" y="295"/>
      <point x="134" y="316"/>
      <point x="134" y="365" type="curve"/>
      <point x="134" y="413"/>
      <point x="148" y="451"/>
      <point x="189" y="470" type="curve"/>
      <point x="146" y="521"/>
      <point x="189" y="470"/>
    </contour>
  </outline>
</glyph>
<glyph name="dieresis" format="1">
  <advance width="366"/>
  <unicode hex="00A8"/>
  <outline>
    <contour>
      <point x="153" y="678" type="curve"/>
      <point x="153" y="708"/>
      <point x="133" y="724"/>
      <point x="106" y="724" type="curve"/>
      <point x="78" y="724"/>
      <point x="61" y="707"/>
      <point x="61" y="678" type="curve"/>
      <point x="154" y="678"/>
      <point x="59" y="678"/>
      <point x="153" y="678" type="curve"/>
      <point x="153" y="647"/>
      <point x="134" y="632"/>
      <point x="106" y="632" type="curve"/>
      <point x="78" y="632"/>
      <point x="61" y="648"/>
      <point x="61" y="678" type="curve"/>
      <point x="154" y="678"/>
      <point x="59" y="678"/>
    </contour>
    <contour>
      <point x="289" y="678" type="curve"/>
      <point x="289" y="708"/>
      <point x="270" y="724"/>
      <point x="243" y="724" type="curve"/>
      <point x="215" y="724"/>
      <point x="198" y="707"/>
      <point x="198" y="678" type="curve"/>
      <point x="291" y="678"/>
      <point x="196" y="678"/>
      <point x="289" y="678" type="curve"/>
      <point x="289" y="647"/>
      <point x="271" y="632"/>
      <point x="243" y="632" type="curve"/>
      <point x="215" y="632"/>
      <point x="198" y="648"/>
      <point x="198" y="678" type="curve"/>
      <point x="291" y="678"/>
      <point x="196" y="678"/>
    </contour>
    <contour>
      <point x="175" y="637" type="move" name="_top"/>
    </contour>
  </outline>
</glyph>
<glyph name="copyright" format="1">
  <advance width="564"/>
  <unicode hex="00A9"/>
  <outline>
    <contour>
      <point x="123" y="322" type="curve"/>
      <point x="123" y="461"/>
      <point x="164" y="589"/>
      <point x="284" y="589" type="curve"/>
      <point x="401" y="589"/>
      <point x="441" y="460"/>
      <point x="441" y="320" type="curve"/>
      <point x="441" y="185"/>
      <point x="404" y="57"/>
      <point x="289" y="57" type="curve"/>
      <point x="170" y="57"/>
      <point x="123" y="183"/>
      <point x="123" y="322" type="curve"/>
      <point x="51" y="322"/>
      <point x="124" y="322"/>
      <point x="53" y="322" type="curve"/>
      <point x="53" y="149"/>
      <point x="129" y="1"/>
      <point x="286" y="1" type="curve"/>
      <point x="440" y="1"/>
      <point x="509" y="150"/>
      <point x="509" y="323" type="curve"/>
      <point x="509" y="496"/>
      <point x="438" y="646"/>
      <point x="284" y="646" type="curve"/>
      <point x="127" y="646"/>
      <point x="53" y="496"/>
      <point x="53" y="322" type="curve"/>
      <point x="124" y="322"/>
      <point x="51" y="322"/>
    </contour>
    <contour>
      <point x="386" y="446" type="curve"/>
      <point x="358" y="490"/>
      <point x="328" y="505"/>
      <point x="289" y="505" type="curve"/>
      <point x="196" y="505"/>
      <point x="161" y="424"/>
      <point x="161" y="321" type="curve"/>
      <point x="161" y="221"/>
      <point x="190" y="142"/>
      <point x="278" y="142" type="curve"/>
      <point x="324" y="142"/>
      <point x="356" y="154"/>
      <point x="385" y="202" type="curve"/>
      <point x="338" y="233"/>
      <point x="385" y="202"/>
      <point x="338" y="233" type="curve"/>
      <point x="323" y="213"/>
      <point x="308" y="199"/>
      <point x="282" y="199" type="curve"/>
      <point x="229" y="199"/>
      <point x="227" y="259"/>
      <point x="227" y="324" type="curve"/>
      <point x="227" y="389"/>
      <point x="232" y="448"/>
      <point x="286" y="448" type="curve"/>
      <point x="307" y="448"/>
      <point x="321" y="441"/>
      <point x="333" y="422" type="curve"/>
      <point x="391" y="448"/>
      <point x="328" y="420"/>
    </contour>
  </outline>
</glyph>
<glyph name="ordfeminine" format="1">
  <advance width="320"/>
  <unicode hex="00AA"/>
  <outline>
    <contour>
      <point x="251" y="427" type="curve"/>
      <point x="251" y="512"/>
      <point x="251" y="586"/>
      <point x="251" y="671" type="curve"/>
      <point x="251" y="732"/>
      <point x="215" y="767"/>
      <point x="156" y="767" type="curve"/>
      <point x="114" y="767"/>
      <point x="88" y="747"/>
      <point x="65" y="719" type="curve"/>
      <point x="85" y="685"/>
      <point x="69" y="714"/>
      <point x="89" y="679" type="curve"/>
      <point x="104" y="697"/>
      <point x="119" y="717"/>
      <point x="149" y="717" type="curve"/>
      <point x="178" y="717"/>
      <point x="192" y="694"/>
      <point x="192" y="662" type="curve"/>
      <point x="192" y="579"/>
      <point x="192" y="509"/>
      <point x="192" y="427" type="curve"/>
      <point x="244" y="427"/>
      <point x="199" y="427"/>
    </contour>
    <contour>
      <point x="220" y="640" type="curve"/>
      <point x="191" y="635"/>
      <point x="172" y="632"/>
      <point x="143" y="626" type="curve"/>
      <point x="86" y="615"/>
      <point x="50" y="584"/>
      <point x="50" y="525" type="curve"/>
      <point x="50" y="466"/>
      <point x="78" y="425"/>
      <point x="136" y="425" type="curve"/>
      <point x="189" y="425"/>
      <point x="209" y="472"/>
      <point x="237" y="515" type="curve"/>
      <point x="211" y="537"/>
      <point x="233" y="518"/>
      <point x="207" y="541" type="curve"/>
      <point x="193" y="505"/>
      <point x="184" y="473"/>
      <point x="150" y="473" type="curve"/>
      <point x="118" y="473"/>
      <point x="107" y="497"/>
      <point x="107" y="529" type="curve"/>
      <point x="107" y="557"/>
      <point x="122" y="579"/>
      <point x="145" y="584" type="curve"/>
      <point x="176" y="590"/>
      <point x="191" y="594"/>
      <point x="223" y="600" type="curve"/>
      <point x="221" y="635"/>
      <point x="222" y="606"/>
    </contour>
  </outline>
</glyph>
<glyph name="guillemotleft" format="1">
  <advance width="414"/>
  <unicode hex="00AB"/>
  <outline>
    <contour>
      <point x="195" y="448" type="curve"/>
      <point x="175" y="429"/>
      <point x="63" y="344"/>
      <point x="42" y="326" type="curve"/>
      <point x="42" y="250"/>
      <point x="42" y="313"/>
      <point x="42" y="238" type="curve"/>
      <point x="63" y="256"/>
      <point x="175" y="348"/>
      <point x="195" y="367" type="curve"/>
      <point x="195" y="442"/>
      <point x="195" y="373"/>
    </contour>
    <contour>
      <point x="195" y="198" type="curve"/>
      <point x="176" y="217"/>
      <point x="63" y="307"/>
      <point x="42" y="326" type="curve"/>
      <point x="42" y="250"/>
      <point x="42" y="313"/>
      <point x="42" y="238" type="curve"/>
      <point x="63" y="219"/>
      <point x="176" y="136"/>
      <point x="195" y="118" type="curve"/>
      <point x="195" y="192"/>
      <point x="195" y="124"/>
    </contour>
    <contour>
      <point x="346" y="448" type="curve"/>
      <point x="326" y="429"/>
      <point x="214" y="344"/>
      <point x="193" y="326" type="curve"/>
      <point x="193" y="250"/>
      <point x="193" y="313"/>
      <point x="193" y="238" type="curve"/>
      <point x="214" y="256"/>
      <point x="326" y="348"/>
      <point x="346" y="367" type="curve"/>
      <point x="346" y="442"/>
      <point x="346" y="373"/>
    </contour>
    <contour>
      <point x="346" y="198" type="curve"/>
      <point x="327" y="217"/>
      <point x="214" y="307"/>
      <point x="193" y="326" type="curve"/>
      <point x="193" y="250"/>
      <point x="193" y="313"/>
      <point x="193" y="238" type="curve"/>
      <point x="214" y="219"/>
      <point x="327" y="136"/>
      <point x="346" y="118" type="curve"/>
      <point x="346" y="192"/>
      <point x="346" y="124"/>
    </contour>
  </outline>
</glyph>
<glyph name="registered" format="1">
  <advance width="580"/>
  <unicode hex="00AE"/>
  <outline>
    <contour>
      <point x="115" y="320" type="curve"/>
      <point x="115" y="467"/>
      <point x="163" y="593"/>
      <point x="293" y="593" type="curve"/>
      <point x="421" y="593"/>
      <point x="466" y="466"/>
      <point x="466" y="319" type="curve"/>
      <point x="466" y="175"/>
      <point x="423" y="51"/>
      <point x="298" y="51" type="curve"/>
      <point x="169" y="51"/>
      <point x="115" y="174"/>
      <point x="115" y="320" type="curve"/>
      <point x="86" y="320"/>
      <point x="85" y="320"/>
      <point x="55" y="320" type="curve"/>
      <point x="55" y="142"/>
      <point x="132" y="-1"/>
      <point x="295" y="-1" type="curve"/>
      <point x="456" y="-1"/>
      <point x="525" y="144"/>
      <point x="525" y="321" type="curve"/>
      <point x="525" y="500"/>
      <point x="454" y="644"/>
      <point x="293" y="644" type="curve"/>
      <point x="129" y="644"/>
      <point x="55" y="500"/>
      <point x="55" y="320" type="curve"/>
      <point x="85" y="320"/>
      <point x="86" y="320"/>
    </contour>
    <contour>
      <point x="278" y="316" type="curve"/>
      <point x="286" y="291"/>
      <point x="332" y="169"/>
      <point x="340" y="145" type="curve"/>
      <point x="374" y="145"/>
      <point x="365" y="145"/>
      <point x="398" y="145" type="curve"/>
      <point x="391" y="168"/>
      <point x="344" y="287"/>
      <point x="336" y="312" type="curve"/>
      <point x="258" y="311"/>
      <point x="356" y="316"/>
    </contour>
    <contour>
      <point x="273" y="145" type="curve"/>
      <point x="273" y="246"/>
      <point x="273" y="398"/>
      <point x="273" y="499" type="curve"/>
      <point x="230" y="499"/>
      <point x="255" y="500"/>
      <point x="209" y="500" type="curve"/>
      <point x="209" y="400"/>
      <point x="209" y="245"/>
      <point x="209" y="145" type="curve"/>
      <point x="253" y="145"/>
      <point x="220" y="145"/>
    </contour>
    <contour>
      <point x="246" y="281" type="curve"/>
      <point x="258" y="281"/>
      <point x="270" y="281"/>
      <point x="282" y="281" type="curve"/>
      <point x="349" y="281"/>
      <point x="387" y="321"/>
      <point x="387" y="392" type="curve"/>
      <point x="387" y="455"/>
      <point x="355" y="500"/>
      <point x="296" y="500" type="curve"/>
      <point x="291" y="500"/>
      <point x="216" y="500"/>
      <point x="211" y="500" type="curve"/>
      <point x="209" y="468"/>
      <point x="280" y="500"/>
      <point x="209" y="443" type="curve"/>
      <point x="233" y="443"/>
      <point x="259" y="443"/>
      <point x="283" y="443" type="curve"/>
      <point x="311" y="443"/>
      <point x="325" y="420"/>
      <point x="325" y="389" type="curve"/>
      <point x="325" y="360"/>
      <point x="316" y="338"/>
      <point x="292" y="338" type="curve"/>
      <point x="276" y="338"/>
      <point x="261" y="338"/>
      <point x="246" y="338" type="curve"/>
      <point x="246" y="281"/>
      <point x="246" y="338"/>
    </contour>
  </outline>
</glyph>
<glyph name="macron" format="1">
  <advance width="253"/>
  <unicode hex="00AF"/>
  <outline>
    <contour>
      <point x="175" y="685" type="curve"/>
      <point x="128" y="685"/>
      <point x="79" y="685"/>
      <point x="32" y="685" type="curve"/>
      <point x="32" y="617"/>
      <point x="32" y="685"/>
      <point x="32" y="617" type="curve"/>
      <point x="79" y="617"/>
      <point x="128" y="617"/>
      <point x="175" y="617" type="curve"/>
      <point x="175" y="685"/>
      <point x="175" y="617"/>
    </contour>
    <contour>
      <point x="104" y="617" type="move" name="_top"/>
    </contour>
  </outline>
</glyph>
<glyph name="degree" format="1">
  <advance width="359"/>
  <unicode hex="00B0"/>
  <outline>
    <contour>
      <point x="309" y="545" type="curve"/>
      <point x="309" y="648"/>
      <point x="272" y="727"/>
      <point x="178" y="727" type="curve"/>
      <point x="86" y="727"/>
      <point x="51" y="648"/>
      <point x="51" y="546" type="curve"/>
      <point x="77" y="546"/>
      <point x="95" y="546"/>
      <point x="121" y="546" type="curve"/>
      <point x="121" y="609"/>
      <point x="125" y="665"/>
      <point x="177" y="665" type="curve"/>
      <point x="230" y="665"/>
      <point x="236" y="608"/>
      <point x="236" y="545" type="curve"/>
      <point x="236" y="481"/>
      <point x="233" y="423"/>
      <point x="179" y="423" type="curve"/>
      <point x="125" y="423"/>
      <point x="121" y="481"/>
      <point x="121" y="546" type="curve"/>
      <point x="95" y="546"/>
      <point x="77" y="546"/>
      <point x="51" y="546" type="curve"/>
      <point x="51" y="441"/>
      <point x="85" y="360"/>
      <point x="179" y="360" type="curve"/>
      <point x="275" y="360"/>
      <point x="309" y="441"/>
    </contour>
  </outline>
</glyph>
<glyph name="plusminus" format="1">
  <advance width="600"/>
  <unicode hex="00B1"/>
  <outline>
    <contour>
      <point x="57" y="41" type="line"/>
      <point x="543" y="41" type="line"/>
      <point x="543" y="116" type="line"/>
      <point x="57" y="116" type="line"/>
    </contour>
    <contour>
      <point x="57" y="275" type="curve"/>
      <point x="543" y="275" type="line"/>
      <point x="543" y="350"/>
      <point x="543" y="275"/>
      <point x="543" y="350" type="curve"/>
      <point x="57" y="350" type="line"/>
      <point x="57" y="275"/>
      <point x="57" y="350"/>
    </contour>
    <contour>
      <point x="340" y="42" type="curve"/>
      <point x="340" y="582" type="line"/>
      <point x="254" y="582"/>
      <point x="346" y="582"/>
      <point x="260" y="582" type="curve"/>
      <point x="260" y="42" type="line"/>
      <point x="346" y="42"/>
      <point x="254" y="42"/>
    </contour>
  </outline>
</glyph>
<glyph name="twosuperior" format="1">
  <advance width="345"/>
  <unicode hex="00B2"/>
  <outline>
    <contour>
      <point x="50" y="354" type="curve"/>
      <point x="123" y="354"/>
      <point x="217" y="354"/>
      <point x="288" y="354" type="curve"/>
      <point x="288" y="382"/>
      <point x="288" y="375"/>
      <point x="288" y="409" type="curve"/>
      <point x="214" y="409"/>
      <point x="123" y="409"/>
      <point x="50" y="409" type="curve"/>
      <point x="50" y="354"/>
      <point x="50" y="409"/>
    </contour>
    <contour>
      <point x="120" y="658" type="curve"/>
      <point x="127" y="690"/>
      <point x="137" y="721"/>
      <point x="169" y="721" type="curve"/>
      <point x="203" y="721"/>
      <point x="213" y="686"/>
      <point x="213" y="646" type="curve"/>
      <point x="213" y="605"/>
      <point x="194" y="580"/>
      <point x="170" y="549" type="curve"/>
      <point x="130" y="502"/>
      <point x="90" y="455"/>
      <point x="50" y="409" type="curve"/>
      <point x="55" y="354"/>
      <point x="50" y="409"/>
      <point x="55" y="354" type="curve"/>
      <point x="103" y="403"/>
      <point x="171" y="454"/>
      <point x="215" y="505" type="curve"/>
      <point x="252" y="551"/>
      <point x="277" y="588"/>
      <point x="277" y="649" type="curve"/>
      <point x="277" y="722"/>
      <point x="240" y="776"/>
      <point x="171" y="776" type="curve"/>
      <point x="117" y="776"/>
      <point x="83" y="746"/>
      <point x="69" y="674" type="curve"/>
      <point x="120" y="658"/>
      <point x="69" y="674"/>
    </contour>
    <contour>
      <point x="183" y="777" type="move" name="_top"/>
    </contour>
    <contour>
      <point x="160" y="354" type="move" name="_bottom"/>
    </contour>
  </outline>
</glyph>
<glyph name="threesuperior" format="1">
  <advance width="310"/>
  <unicode hex="00B3"/>
  <outline>
    <contour>
      <point x="94" y="684" type="curve"/>
      <point x="104" y="700"/>
      <point x="116" y="718"/>
      <point x="137" y="718" type="curve"/>
      <point x="167" y="718"/>
      <point x="181" y="690"/>
      <point x="181" y="654" type="curve"/>
      <point x="181" y="616"/>
      <point x="151" y="592"/>
      <point x="111" y="588" type="curve"/>
      <point x="111" y="541"/>
      <point x="111" y="588"/>
      <point x="111" y="541" type="curve"/>
      <point x="191" y="544"/>
      <point x="249" y="585"/>
      <point x="249" y="659" type="curve"/>
      <point x="249" y="728"/>
      <point x="211" y="774"/>
      <point x="144" y="774" type="curve"/>
      <point x="104" y="774"/>
      <point x="70" y="750"/>
      <point x="50" y="718" type="curve"/>
      <point x="94" y="684"/>
      <point x="50" y="718"/>
    </contour>
    <contour>
      <point x="49" y="382" type="curve"/>
      <point x="73" y="360"/>
      <point x="100" y="347"/>
      <point x="131" y="347" type="curve"/>
      <point x="211" y="346"/>
      <point x="260" y="392"/>
      <point x="260" y="471" type="curve"/>
      <point x="260" y="545"/>
      <point x="193" y="576"/>
      <point x="111" y="580" type="curve"/>
      <point x="111" y="539"/>
      <point x="111" y="580"/>
      <point x="111" y="539" type="curve"/>
      <point x="158" y="535"/>
      <point x="191" y="508"/>
      <point x="191" y="467" type="curve"/>
      <point x="190" y="430"/>
      <point x="172" y="401"/>
      <point x="138" y="403" type="curve"/>
      <point x="117" y="403"/>
      <point x="99" y="410"/>
      <point x="85" y="424" type="curve"/>
      <point x="49" y="382"/>
      <point x="85" y="424"/>
    </contour>
    <contour>
      <point x="158" y="774" type="move" name="_top"/>
    </contour>
    <contour>
      <point x="152" y="348" type="move" name="_bottom"/>
    </contour>
  </outline>
</glyph>
<glyph name="acute" format="1">
  <advance width="176"/>
  <unicode hex="00B4"/>
  <outline>
    <contour>
      <point x="62" y="591" type="line"/>
      <point x="148" y="757" type="line"/>
      <point x="44" y="757" type="line"/>
      <point x="-18" y="591" type="line"/>
    </contour>
    <contour>
      <point x="23" y="591" type="move" name="_top"/>
    </contour>
  </outline>
</glyph>
<glyph name="paragraph" format="1">
  <advance width="588"/>
  <unicode hex="00B6"/>
  <outline>
    <contour>
      <point x="309" y="654" type="curve"/>
      <point x="435" y="654"/>
      <point x="309" y="654"/>
      <point x="435" y="654" type="curve"/>
      <point x="435" y="722"/>
      <point x="435" y="654"/>
      <point x="435" y="722" type="curve"/>
      <point x="392" y="722"/>
      <point x="351" y="722"/>
      <point x="309" y="722" type="curve"/>
      <point x="309" y="654"/>
      <point x="309" y="722"/>
    </contour>
    <contour>
      <point x="294" y="369" type="curve"/>
      <point x="265" y="346"/>
      <point x="243" y="332"/>
      <point x="206" y="332" type="curve"/>
      <point x="140" y="332"/>
      <point x="122" y="403"/>
      <point x="122" y="483" type="curve"/>
      <point x="122" y="574"/>
      <point x="153" y="654"/>
      <point x="232" y="654" type="curve"/>
      <point x="257" y="654"/>
      <point x="282" y="654"/>
      <point x="307" y="654" type="curve"/>
      <point x="307" y="722"/>
      <point x="307" y="654"/>
      <point x="307" y="722" type="curve"/>
      <point x="279" y="722"/>
      <point x="250" y="722"/>
      <point x="221" y="722" type="curve"/>
      <point x="98" y="722"/>
      <point x="36" y="618"/>
      <point x="36" y="486" type="curve"/>
      <point x="36" y="357"/>
      <point x="96" y="268"/>
      <point x="213" y="266" type="curve"/>
      <point x="255" y="266"/>
      <point x="290" y="287"/>
      <point x="322" y="311" type="curve"/>
      <point x="294" y="368"/>
      <point x="321" y="314"/>
    </contour>
    <contour>
      <point x="353" y="0" type="curve"/>
      <point x="353" y="241"/>
      <point x="353" y="481"/>
      <point x="353" y="722" type="curve"/>
      <point x="267" y="722"/>
      <point x="353" y="722"/>
      <point x="267" y="722" type="curve"/>
      <point x="267" y="481"/>
      <point x="267" y="241"/>
      <point x="267" y="0" type="curve"/>
      <point x="353" y="0"/>
      <point x="267" y="0"/>
    </contour>
    <contour>
      <point x="510" y="0" type="curve"/>
      <point x="510" y="241"/>
      <point x="510" y="481"/>
      <point x="510" y="722" type="curve"/>
      <point x="424" y="722"/>
      <point x="510" y="722"/>
      <point x="424" y="722" type="curve"/>
      <point x="424" y="481"/>
      <point x="424" y="241"/>
      <point x="424" y="0" type="curve"/>
      <point x="510" y="0"/>
      <point x="424" y="0"/>
    </contour>
  </outline>
</glyph>
<glyph name="periodcentered" format="1">
  <advance width="210"/>
  <unicode hex="00B7"/>
  <outline>
    <contour>
      <point x="151" y="440" type="curve"/>
      <point x="151" y="470"/>
      <point x="131" y="486"/>
      <point x="104" y="486" type="curve"/>
      <point x="77" y="486"/>
      <point x="59" y="469"/>
      <point x="59" y="440" type="curve"/>
      <point x="153" y="440"/>
      <point x="58" y="440"/>
      <point x="151" y="440" type="curve"/>
      <point x="151" y="409"/>
      <point x="132" y="395"/>
      <point x="104" y="395" type="curve"/>
      <point x="76" y="395"/>
      <point x="59" y="410"/>
      <point x="59" y="440" type="curve"/>
      <point x="153" y="440"/>
      <point x="58" y="440"/>
    </contour>
  </outline>
</glyph>
<glyph name="cedilla" format="1">
  <advance width="262"/>
  <unicode hex="00B8"/>
  <outline>
    <contour>
      <point x="114" y="95" type="curve"/>
      <point x="105" y="71"/>
      <point x="83" y="8"/>
      <point x="74" y="-16" type="curve"/>
      <point x="134" y="-71"/>
      <point x="74" y="-16"/>
      <point x="134" y="-71" type="curve"/>
      <point x="143" y="-44"/>
      <point x="170" y="21"/>
      <point x="180" y="47" type="curve"/>
      <point x="114" y="95"/>
      <point x="180" y="47"/>
    </contour>
    <contour>
      <point x="134" y="-70" type="curve"/>
      <point x="140" y="-64"/>
      <point x="144" y="-60"/>
      <point x="153" y="-60" type="curve"/>
      <point x="168" y="-60"/>
      <point x="172" y="-74"/>
      <point x="172" y="-93" type="curve"/>
      <point x="172" y="-114"/>
      <point x="161" y="-128"/>
      <point x="140" y="-128" type="curve"/>
      <point x="124" y="-128"/>
      <point x="111" y="-124"/>
      <point x="99" y="-113" type="curve"/>
      <point x="65" y="-163"/>
      <point x="99" y="-113"/>
      <point x="65" y="-163" type="curve"/>
      <point x="86" y="-181"/>
      <point x="108" y="-188"/>
      <point x="136" y="-188" type="curve"/>
      <point x="191" y="-188"/>
      <point x="223" y="-151"/>
      <point x="223" y="-92" type="curve"/>
      <point x="223" y="-36"/>
      <point x="195" y="5"/>
      <point x="143" y="5" type="curve"/>
      <point x="116" y="5"/>
      <point x="97" y="0"/>
      <point x="74" y="-16" type="curve"/>
      <point x="134" y="-70"/>
      <point x="74" y="-16"/>
    </contour>
    <contour>
      <point x="178" y="47" type="move" name="_bottom"/>
    </contour>
  </outline>
</glyph>
<glyph name="onesuperior" format="1">
  <advance width="244"/>
  <unicode hex="00B9"/>
  <outline>
    <contour>
      <point x="62" y="629" type="line"/>
      <point x="169" y="762" type="line"/>
      <point x="102" y="766" type="line"/>
      <point x="19" y="670" type="line"/>
    </contour>
    <contour>
      <point x="170" y="354" type="curve"/>
      <point x="170" y="766" type="line"/>
      <point x="102" y="766" type="line"/>
      <point x="102" y="354" type="line"/>
      <point x="142" y="354"/>
      <point x="118" y="354"/>
    </contour>
    <contour>
      <point x="129" y="765" type="move" name="_top"/>
    </contour>
    <contour>
      <point x="136" y="356" type="move" name="_bottom"/>
    </contour>
  </outline>
</glyph>
<glyph name="ordmasculine" format="1">
  <advance width="315"/>
  <unicode hex="00BA"/>
  <outline>
    <contour>
      <point x="100" y="598" type="curve"/>
      <point x="100" y="659"/>
      <point x="106" y="716"/>
      <point x="157" y="716" type="curve"/>
      <point x="205" y="716"/>
      <point x="211" y="659"/>
      <point x="211" y="598" type="curve"/>
      <point x="211" y="531"/>
      <point x="207" y="472"/>
      <point x="161" y="472" type="curve"/>
      <point x="103" y="472"/>
      <point x="100" y="532"/>
      <point x="100" y="598" type="curve"/>
      <point x="96" y="598"/>
      <point x="49" y="598"/>
      <point x="45" y="598" type="curve"/>
      <point x="45" y="500"/>
      <point x="73" y="423"/>
      <point x="159" y="423" type="curve"/>
      <point x="241" y="423"/>
      <point x="270" y="499"/>
      <point x="270" y="598" type="curve"/>
      <point x="270" y="692"/>
      <point x="242" y="764"/>
      <point x="159" y="764" type="curve"/>
      <point x="74" y="764"/>
      <point x="45" y="692"/>
      <point x="45" y="598" type="curve"/>
      <point x="49" y="598"/>
      <point x="96" y="598"/>
    </contour>
  </outline>
</glyph>
<glyph name="guillemotright" format="1">
  <advance width="421"/>
  <unicode hex="00BB"/>
  <outline>
    <contour>
      <point x="223" y="448" type="curve"/>
      <point x="243" y="429"/>
      <point x="356" y="344"/>
      <point x="376" y="326" type="curve"/>
      <point x="376" y="250"/>
      <point x="376" y="313"/>
      <point x="376" y="238" type="curve"/>
      <point x="356" y="256"/>
      <point x="243" y="348"/>
      <point x="223" y="367" type="curve"/>
      <point x="223" y="442"/>
      <point x="223" y="373"/>
    </contour>
    <contour>
      <point x="223" y="198" type="curve"/>
      <point x="243" y="217"/>
      <point x="356" y="307"/>
      <point x="376" y="326" type="curve"/>
      <point x="376" y="250"/>
      <point x="376" y="313"/>
      <point x="376" y="238" type="curve"/>
      <point x="356" y="219"/>
      <point x="243" y="136"/>
      <point x="223" y="118" type="curve"/>
      <point x="223" y="192"/>
      <point x="223" y="124"/>
    </contour>
    <contour>
      <point x="73" y="448" type="curve"/>
      <point x="92" y="429"/>
      <point x="205" y="344"/>
      <point x="225" y="326" type="curve"/>
      <point x="225" y="250"/>
      <point x="225" y="313"/>
      <point x="225" y="238" type="curve"/>
      <point x="205" y="256"/>
      <point x="92" y="348"/>
      <point x="73" y="367" type="curve"/>
      <point x="73" y="442"/>
      <point x="73" y="373"/>
    </contour>
    <contour>
      <point x="72" y="198" type="curve"/>
      <point x="92" y="217"/>
      <point x="205" y="307"/>
      <point x="225" y="326" type="curve"/>
      <point x="225" y="250"/>
      <point x="225" y="313"/>
      <point x="225" y="238" type="curve"/>
      <point x="205" y="219"/>
      <point x="92" y="136"/>
      <point x="72" y="118" type="curve"/>
      <point x="72" y="192"/>
      <point x="72" y="124"/>
    </contour>
  </outline>
</glyph>
<glyph name="onequarter" format="1">
  <advance width="696"/>
  <unicode hex="00BC"/>
  <outline>
    <contour>
      <point x="243" y="-62" type="line"/>
      <point x="515" y="731" type="line"/>
      <point x="434" y="731" type="line"/>
      <point x="163" y="-62" type="line"/>
    </contour>
    <contour>
      <point x="70" y="596" type="line"/>
      <point x="177" y="728" type="line"/>
      <point x="110" y="732" type="line"/>
      <point x="28" y="636" type="line"/>
    </contour>
    <contour>
      <point x="178" y="320" type="curve"/>
      <point x="178" y="732" type="line"/>
      <point x="110" y="732" type="line"/>
      <point x="110" y="320" type="line"/>
      <point x="151" y="320"/>
      <point x="126" y="320"/>
    </contour>
    <contour>
      <point x="662" y="106" type="line"/>
      <point x="391" y="106" type="line"/>
      <point x="391" y="52" type="line"/>
      <point x="662" y="52" type="line"/>
    </contour>
    <contour>
      <point x="422" y="54" type="line"/>
      <point x="582" y="358" type="line"/>
      <point x="532" y="371" type="line"/>
      <point x="391" y="106" type="line"/>
    </contour>
    <contour>
      <point x="600" y="-56" type="line"/>
      <point x="600" y="371" type="line"/>
      <point x="532" y="371" type="line"/>
      <point x="532" y="-56" type="line"/>
    </contour>
  </outline>
</glyph>
<glyph name="onehalf" format="1">
  <advance width="757"/>
  <unicode hex="00BD"/>
  <outline>
    <contour>
      <point x="275" y="-62" type="line"/>
      <point x="548" y="731" type="line"/>
      <point x="466" y="731" type="line"/>
      <point x="195" y="-62" type="line"/>
    </contour>
    <contour>
      <point x="70" y="596" type="line"/>
      <point x="177" y="728" type="line"/>
      <point x="110" y="732" type="line"/>
      <point x="28" y="636" type="line"/>
    </contour>
    <contour>
      <point x="178" y="320" type="curve"/>
      <point x="178" y="732" type="line"/>
      <point x="110" y="732" type="line"/>
      <point x="110" y="320" type="line"/>
      <point x="151" y="320"/>
      <point x="126" y="320"/>
    </contour>
    <contour>
      <point x="480" y="-58" type="curve"/>
      <point x="553" y="-58"/>
      <point x="647" y="-58"/>
      <point x="718" y="-58" type="curve"/>
      <point x="718" y="-30"/>
      <point x="718" y="-37"/>
      <point x="718" y="-3" type="curve"/>
      <point x="644" y="-3"/>
      <point x="553" y="-3"/>
      <point x="480" y="-3" type="curve"/>
      <point x="480" y="-58"/>
      <point x="480" y="-3"/>
    </contour>
    <contour>
      <point x="551" y="246" type="curve"/>
      <point x="557" y="278"/>
      <point x="567" y="309"/>
      <point x="599" y="309" type="curve"/>
      <point x="633" y="309"/>
      <point x="643" y="274"/>
      <point x="643" y="233" type="curve"/>
      <point x="643" y="193"/>
      <point x="624" y="168"/>
      <point x="600" y="136" type="curve"/>
      <point x="560" y="90"/>
      <point x="520" y="43"/>
      <point x="480" y="-3" type="curve"/>
      <point x="485" y="-58"/>
      <point x="480" y="-3"/>
      <point x="485" y="-58" type="curve"/>
      <point x="533" y="-9"/>
      <point x="601" y="41"/>
      <point x="646" y="93" type="curve"/>
      <point x="682" y="139"/>
      <point x="707" y="176"/>
      <point x="707" y="237" type="curve"/>
      <point x="707" y="310"/>
      <point x="670" y="364"/>
      <point x="601" y="364" type="curve"/>
      <point x="547" y="364"/>
      <point x="513" y="334"/>
      <point x="499" y="262" type="curve"/>
      <point x="551" y="246"/>
      <point x="499" y="262"/>
    </contour>
  </outline>
</glyph>
<glyph name="questiondown" format="1">
  <advance width="408"/>
  <unicode hex="00BF"/>
  <outline>
    <contour>
      <point x="247" y="373" type="curve"/>
      <point x="247" y="410"/>
      <point x="247" y="473"/>
      <point x="247" y="510" type="curve"/>
      <point x="169" y="510"/>
      <point x="247" y="510"/>
      <point x="169" y="510" type="curve"/>
      <point x="169" y="473"/>
      <point x="169" y="410"/>
      <point x="169" y="373" type="curve"/>
      <point x="247" y="373"/>
      <point x="169" y="373"/>
    </contour>
    <contour>
      <point x="314" y="131" type="line"/>
      <point x="290" y="96"/>
      <point x="266" y="73"/>
      <point x="223" y="73" type="curve"/>
      <point x="153" y="73"/>
      <point x="127" y="137"/>
      <point x="127" y="213" type="curve"/>
      <point x="127" y="301"/>
      <point x="160" y="373"/>
      <point x="238" y="373" type="curve"/>
      <point x="238" y="405"/>
      <point x="238" y="407"/>
      <point x="238" y="439" type="curve"/>
      <point x="112" y="439"/>
      <point x="44" y="343"/>
      <point x="44" y="213" type="curve"/>
      <point x="44" y="89"/>
      <point x="107" y="-1"/>
      <point x="219" y="-1" type="curve"/>
      <point x="288" y="-1"/>
      <point x="332" y="29"/>
      <point x="362" y="77" type="curve"/>
    </contour>
    <contour>
      <point x="162" y="689" type="curve"/>
      <point x="162" y="659"/>
      <point x="182" y="643"/>
      <point x="209" y="643" type="curve"/>
      <point x="237" y="643"/>
      <point x="254" y="660"/>
      <point x="254" y="689" type="curve"/>
      <point x="162" y="689"/>
      <point x="254" y="689"/>
      <point x="162" y="689" type="curve"/>
      <point x="162" y="720"/>
      <point x="181" y="735"/>
      <point x="209" y="735" type="curve"/>
      <point x="237" y="735"/>
      <point x="254" y="719"/>
      <point x="254" y="689" type="curve"/>
      <point x="162" y="689"/>
      <point x="254" y="689"/>
    </contour>
  </outline>
</glyph>
<glyph name="Acircumflex" format="1">
  <advance width="471"/>
  <unicode hex="00C2"/>
  <outline>
    <contour>
      <point x="333" y="284" type="curve"/>
      <point x="268" y="284"/>
      <point x="202" y="284"/>
      <point x="136" y="284" type="curve"/>
      <point x="101" y="212"/>
      <point x="136" y="284"/>
      <point x="101" y="212" type="curve"/>
      <point x="188" y="212"/>
      <point x="275" y="212"/>
      <point x="361" y="212" type="curve"/>
      <point x="333" y="284"/>
      <point x="361" y="212"/>
    </contour>
    <contour>
      <point x="454" y="0" type="curve"/>
      <point x="397" y="241"/>
      <point x="336" y="481"/>
      <point x="278" y="722" type="curve"/>
      <point x="200" y="722"/>
      <point x="278" y="722"/>
      <point x="200" y="722" type="curve"/>
      <point x="256" y="481"/>
      <point x="308" y="241"/>
      <point x="365" y="0" type="curve"/>
      <point x="454" y="0"/>
      <point x="365" y="0"/>
    </contour>
    <contour>
      <point x="94" y="0" type="curve"/>
      <point x="157" y="241"/>
      <point x="213" y="481"/>
      <point x="277" y="722" type="curve"/>
      <point x="198" y="722"/>
      <point x="277" y="722"/>
      <point x="198" y="722" type="curve"/>
      <point x="134" y="480"/>
      <point x="64" y="242"/>
      <point x="0" y="0" type="curve"/>
      <point x="94" y="0"/>
      <point x="0" y="0"/>
    </contour>
    <contour>
      <point x="185" y="801" type="line"/>
      <point x="271" y="967" type="line"/>
      <point x="167" y="967" type="line"/>
      <point x="104" y="801" type="line"/>
    </contour>
    <contour>
      <point x="367" y="801" type="line"/>
      <point x="305" y="967" type="line"/>
      <point x="201" y="967" type="line"/>
      <point x="287" y="801" type="line"/>
    </contour>
  </outline>
</glyph>
<glyph name="Atilde" format="1">
  <advance width="471"/>
  <unicode hex="00C3"/>
  <outline>
    <contour>
      <point x="333" y="284" type="curve"/>
      <point x="268" y="284"/>
      <point x="202" y="284"/>
      <point x="136" y="284" type="curve"/>
      <point x="101" y="212"/>
      <point x="136" y="284"/>
      <point x="101" y="212" type="curve"/>
      <point x="188" y="212"/>
      <point x="275" y="212"/>
      <point x="361" y="212" type="curve"/>
      <point x="333" y="284"/>
      <point x="361" y="212"/>
    </contour>
    <contour>
      <point x="454" y="0" type="curve"/>
      <point x="397" y="241"/>
      <point x="336" y="481"/>
      <point x="278" y="722" type="curve"/>
      <point x="200" y="722"/>
      <point x="278" y="722"/>
      <point x="200" y="722" type="curve"/>
      <point x="256" y="481"/>
      <point x="308" y="241"/>
      <point x="365" y="0" type="curve"/>
      <point x="454" y="0"/>
      <point x="365" y="0"/>
    </contour>
    <contour>
      <point x="94" y="0" type="curve"/>
      <point x="157" y="241"/>
      <point x="213" y="481"/>
      <point x="277" y="722" type="curve"/>
      <point x="198" y="722"/>
      <point x="277" y="722"/>
      <point x="198" y="722" type="curve"/>
      <point x="134" y="480"/>
      <point x="64" y="242"/>
      <point x="0" y="0" type="curve"/>
      <point x="94" y="0"/>
      <point x="0" y="0"/>
    </contour>
    <contour>
      <point x="327" y="962" type="curve"/>
      <point x="314" y="921"/>
      <point x="307" y="895"/>
      <point x="287" y="895" type="curve"/>
      <point x="262" y="895"/>
      <point x="252" y="908"/>
      <point x="237" y="927" type="curve"/>
      <point x="217" y="951"/>
      <point x="206" y="966"/>
      <point x="178" y="966" type="curve"/>
      <point x="118" y="966"/>
      <point x="99" y="901"/>
      <point x="85" y="840" type="curve"/>
      <point x="150" y="805"/>
      <point x="85" y="841"/>
      <point x="149" y="805" type="curve"/>
      <point x="163" y="850"/>
      <point x="171" y="875"/>
      <point x="198" y="875" type="curve"/>
      <point x="219" y="875"/>
      <point x="227" y="862"/>
      <point x="238" y="845" type="curve"/>
      <point x="260" y="819"/>
      <point x="274" y="801"/>
      <point x="307" y="801" type="curve"/>
      <point x="368" y="801"/>
      <point x="378" y="865"/>
      <point x="396" y="929" type="curve"/>
      <point x="327" y="962"/>
      <point x="397" y="928"/>
    </contour>
  </outline>
</glyph>
<glyph name="Adieresis" format="1">
  <advance width="471"/>
  <unicode hex="00C4"/>
  <outline>
    <contour>
      <point x="333" y="284" type="curve"/>
      <point x="268" y="284"/>
      <point x="202" y="284"/>
      <point x="136" y="284" type="curve"/>
      <point x="101" y="212"/>
      <point x="136" y="284"/>
      <point x="101" y="212" type="curve"/>
      <point x="188" y="212"/>
      <point x="275" y="212"/>
      <point x="361" y="212" type="curve"/>
      <point x="333" y="284"/>
      <point x="361" y="212"/>
    </contour>
    <contour>
      <point x="454" y="0" type="curve"/>
      <point x="397" y="241"/>
      <point x="336" y="481"/>
      <point x="278" y="722" type="curve"/>
      <point x="200" y="722"/>
      <point x="278" y="722"/>
      <point x="200" y="722" type="curve"/>
      <point x="256" y="481"/>
      <point x="308" y="241"/>
      <point x="365" y="0" type="curve"/>
      <point x="454" y="0"/>
      <point x="365" y="0"/>
    </contour>
    <contour>
      <point x="94" y="0" type="curve"/>
      <point x="157" y="241"/>
      <point x="213" y="481"/>
      <point x="277" y="722" type="curve"/>
      <point x="198" y="722"/>
      <point x="277" y="722"/>
      <point x="198" y="722" type="curve"/>
      <point x="134" y="480"/>
      <point x="64" y="242"/>
      <point x="0" y="0" type="curve"/>
      <point x="94" y="0"/>
      <point x="0" y="0"/>
    </contour>
    <contour>
      <point x="214" y="841" type="curve"/>
      <point x="214" y="872"/>
      <point x="194" y="887"/>
      <point x="167" y="887" type="curve"/>
      <point x="140" y="887"/>
      <point x="122" y="870"/>
      <point x="122" y="841" type="curve"/>
      <point x="216" y="841"/>
      <point x="121" y="841"/>
      <point x="214" y="841" type="curve"/>
      <point x="214" y="810"/>
      <point x="195" y="796"/>
      <point x="167" y="796" type="curve"/>
      <point x="139" y="796"/>
      <point x="122" y="811"/>
      <point x="122" y="841" type="curve"/>
      <point x="216" y="841"/>
      <point x="121" y="841"/>
    </contour>
    <contour>
      <point x="351" y="841" type="curve"/>
      <point x="351" y="872"/>
      <point x="331" y="887"/>
      <point x="304" y="887" type="curve"/>
      <point x="277" y="887"/>
      <point x="259" y="870"/>
      <point x="259" y="841" type="curve"/>
      <point x="352" y="841"/>
      <point x="257" y="841"/>
      <point x="351" y="841" type="curve"/>
      <point x="351" y="810"/>
      <point x="332" y="796"/>
      <point x="304" y="796" type="curve"/>
      <point x="276" y="796"/>
      <point x="259" y="811"/>
      <point x="259" y="841" type="curve"/>
      <point x="352" y="841"/>
      <point x="257" y="841"/>
    </contour>
  </outline>
</glyph>
<glyph name="Aring" format="1">
  <advance width="471"/>
  <unicode hex="00C5"/>
  <outline>
    <contour>
      <point x="333" y="284" type="curve"/>
      <point x="268" y="284"/>
      <point x="202" y="284"/>
      <point x="136" y="284" type="curve"/>
      <point x="101" y="212"/>
      <point x="136" y="284"/>
      <point x="101" y="212" type="curve"/>
      <point x="188" y="212"/>
      <point x="275" y="212"/>
      <point x="361" y="212" type="curve"/>
      <point x="333" y="284"/>
      <point x="361" y="212"/>
    </contour>
    <contour>
      <point x="454" y="0" type="curve"/>
      <point x="397" y="241"/>
      <point x="336" y="481"/>
      <point x="278" y="722" type="curve"/>
      <point x="200" y="722"/>
      <point x="278" y="722"/>
      <point x="200" y="722" type="curve"/>
      <point x="256" y="481"/>
      <point x="308" y="241"/>
      <point x="365" y="0" type="curve"/>
      <point x="454" y="0"/>
      <point x="365" y="0"/>
    </contour>
    <contour>
      <point x="94" y="0" type="curve"/>
      <point x="157" y="241"/>
      <point x="213" y="481"/>
      <point x="277" y="722" type="curve"/>
      <point x="198" y="722"/>
      <point x="277" y="722"/>
      <point x="198" y="722" type="curve"/>
      <point x="134" y="480"/>
      <point x="64" y="242"/>
      <point x="0" y="0" type="curve"/>
      <point x="94" y="0"/>
      <point x="0" y="0"/>
    </contour>
    <contour>
      <point x="129" y="933" type="curve"/>
      <point x="129" y="856"/>
      <point x="165" y="800"/>
      <point x="235" y="800" type="curve"/>
      <point x="307" y="800"/>
      <point x="343" y="856"/>
      <point x="343" y="933" type="curve"/>
      <point x="343" y="1009"/>
      <point x="306" y="1065"/>
      <point x="234" y="1065" type="curve"/>
      <point x="163" y="1065"/>
      <point x="129" y="1009"/>
      <point x="129" y="933" type="curve"/>
      <point x="206" y="933"/>
      <point x="122" y="933"/>
      <point x="200" y="933" type="curve"/>
      <point x="200" y="966"/>
      <point x="200" y="1001"/>
      <point x="234" y="1001" type="curve"/>
      <point x="266" y="1001"/>
      <point x="269" y="967"/>
      <point x="269" y="933" type="curve"/>
      <point x="269" y="899"/>
      <point x="268" y="864"/>
      <point x="235" y="864" type="curve"/>
      <point x="202" y="864"/>
      <point x="200" y="898"/>
      <point x="200" y="933" type="curve"/>
      <point x="122" y="933"/>
      <point x="206" y="933"/>
    </contour>
  </outline>
</glyph>
<glyph name="AE" format="1">
  <advance width="660"/>
  <unicode hex="00C6"/>
  <outline>
    <contour>
      <point x="332" y="278" type="curve"/>
      <point x="266" y="278"/>
      <point x="212" y="278"/>
      <point x="146" y="278" type="curve"/>
      <point x="110" y="206"/>
      <point x="146" y="278"/>
      <point x="110" y="206" type="curve"/>
      <point x="197" y="206"/>
      <point x="273" y="206"/>
      <point x="360" y="206" type="curve"/>
      <point x="332" y="278"/>
      <point x="360" y="206"/>
    </contour>
    <contour>
      <point x="85" y="0" type="curve"/>
      <point x="397" y="722" type="line"/>
      <point x="319" y="722"/>
      <point x="397" y="722"/>
      <point x="319" y="722" type="curve"/>
      <point x="-9" y="0" type="line"/>
      <point x="85" y="0"/>
      <point x="-9" y="0"/>
    </contour>
    <contour>
      <point x="365" y="339" type="curve"/>
      <point x="435" y="339"/>
      <point x="505" y="339"/>
      <point x="574" y="339" type="curve"/>
      <point x="574" y="408"/>
      <point x="574" y="339"/>
      <point x="574" y="408" type="curve"/>
      <point x="505" y="408"/>
      <point x="435" y="408"/>
      <point x="365" y="408" type="curve"/>
      <point x="365" y="339"/>
      <point x="365" y="408"/>
    </contour>
    <contour>
      <point x="356" y="654" type="curve"/>
      <point x="442" y="654"/>
      <point x="528" y="654"/>
      <point x="614" y="654" type="curve"/>
      <point x="614" y="722"/>
      <point x="614" y="654"/>
      <point x="614" y="722" type="curve"/>
      <point x="528" y="722"/>
      <point x="442" y="722"/>
      <point x="356" y="722" type="curve"/>
      <point x="356" y="654"/>
      <point x="356" y="722"/>
    </contour>
    <contour>
      <point x="406" y="0" type="curve"/>
      <point x="406" y="722" type="line"/>
      <point x="320" y="722"/>
      <point x="406" y="722"/>
      <point x="320" y="722" type="curve"/>
      <point x="320" y="481"/>
      <point x="320" y="241"/>
      <point x="320" y="0" type="curve"/>
      <point x="406" y="0"/>
      <point x="320" y="0"/>
    </contour>
    <contour>
      <point x="356" y="0" type="curve"/>
      <point x="449" y="0"/>
      <point x="542" y="0"/>
      <point x="636" y="0" type="curve"/>
      <point x="636" y="68"/>
      <point x="636" y="0"/>
      <point x="636" y="68" type="curve"/>
      <point x="542" y="68"/>
      <point x="449" y="68"/>
      <point x="356" y="68" type="curve"/>
      <point x="356" y="0"/>
      <point x="356" y="68"/>
    </contour>
  </outline>
</glyph>
<glyph name="Ccedilla" format="1">
  <advance width="489"/>
  <unicode hex="00C7"/>
  <outline>
    <contour>
      <point x="456" y="654" type="curve"/>
      <point x="412" y="695"/>
      <point x="356" y="727"/>
      <point x="290" y="727" type="curve"/>
      <point x="107" y="727"/>
      <point x="53" y="559"/>
      <point x="53" y="345" type="curve"/>
      <point x="53" y="149"/>
      <point x="107" y="-5"/>
      <point x="278" y="-5" type="curve"/>
      <point x="364" y="-5"/>
      <point x="420" y="33"/>
      <point x="469" y="99" type="curve"/>
      <point x="416" y="148"/>
      <point x="469" y="99"/>
      <point x="415" y="148" type="curve"/>
      <point x="379" y="101"/>
      <point x="343" y="68"/>
      <point x="282" y="68" type="curve"/>
      <point x="157" y="68"/>
      <point x="139" y="197"/>
      <point x="139" y="348" type="curve"/>
      <point x="139" y="513"/>
      <point x="155" y="655"/>
      <point x="287" y="655" type="curve"/>
      <point x="336" y="655"/>
      <point x="377" y="631"/>
      <point x="407" y="601" type="curve"/>
      <point x="456" y="654"/>
      <point x="407" y="601"/>
    </contour>
    <contour>
      <point x="238" y="48" type="curve"/>
      <point x="229" y="24"/>
      <point x="207" y="-39"/>
      <point x="198" y="-63" type="curve"/>
      <point x="257" y="-118"/>
      <point x="198" y="-63"/>
      <point x="257" y="-118" type="curve"/>
      <point x="267" y="-91"/>
      <point x="294" y="-27"/>
      <point x="304" y="0" type="curve"/>
      <point x="238" y="48"/>
      <point x="304" y="0"/>
    </contour>
    <contour>
      <point x="257" y="-118" type="curve"/>
      <point x="263" y="-112"/>
      <point x="268" y="-107"/>
      <point x="277" y="-107" type="curve"/>
      <point x="292" y="-107"/>
      <point x="295" y="-122"/>
      <point x="295" y="-141" type="curve"/>
      <point x="295" y="-162"/>
      <point x="284" y="-175"/>
      <point x="264" y="-175" type="curve"/>
      <point x="248" y="-175"/>
      <point x="235" y="-172"/>
      <point x="223" y="-161" type="curve"/>
      <point x="188" y="-210"/>
      <point x="223" y="-161"/>
      <point x="188" y="-210" type="curve"/>
      <point x="210" y="-228"/>
      <point x="231" y="-236"/>
      <point x="260" y="-236" type="curve"/>
      <point x="314" y="-236"/>
      <point x="347" y="-198"/>
      <point x="347" y="-140" type="curve"/>
      <point x="347" y="-83"/>
      <point x="319" y="-42"/>
      <point x="267" y="-42" type="curve"/>
      <point x="240" y="-42"/>
      <point x="221" y="-47"/>
      <point x="198" y="-63" type="curve"/>
      <point x="257" y="-118"/>
      <point x="198" y="-63"/>
    </contour>
  </outline>
</glyph>
<glyph name="Egrave" format="1">
  <advance width="444"/>
  <unicode hex="00C8"/>
  <outline>
    <contour>
      <point x="150" y="339" type="curve"/>
      <point x="219" y="339"/>
      <point x="289" y="339"/>
      <point x="359" y="339" type="curve"/>
      <point x="359" y="408"/>
      <point x="359" y="339"/>
      <point x="359" y="408" type="curve"/>
      <point x="289" y="408"/>
      <point x="219" y="408"/>
      <point x="150" y="408" type="curve"/>
      <point x="150" y="339"/>
      <point x="150" y="408"/>
    </contour>
    <contour>
      <point x="140" y="654" type="curve"/>
      <point x="227" y="654"/>
      <point x="312" y="654"/>
      <point x="399" y="654" type="curve"/>
      <point x="399" y="722"/>
      <point x="399" y="654"/>
      <point x="399" y="722" type="curve"/>
      <point x="312" y="722"/>
      <point x="227" y="722"/>
      <point x="140" y="722" type="curve"/>
      <point x="140" y="654"/>
      <point x="140" y="722"/>
    </contour>
    <contour>
      <point x="190" y="0" type="curve"/>
      <point x="190" y="722" type="line"/>
      <point x="104" y="722"/>
      <point x="190" y="722"/>
      <point x="104" y="722" type="curve"/>
      <point x="104" y="481"/>
      <point x="104" y="241"/>
      <point x="104" y="0" type="curve"/>
      <point x="190" y="0"/>
      <point x="104" y="0"/>
    </contour>
    <contour>
      <point x="140" y="0" type="curve"/>
      <point x="234" y="0"/>
      <point x="327" y="0"/>
      <point x="420" y="0" type="curve"/>
      <point x="420" y="68"/>
      <point x="420" y="0"/>
      <point x="420" y="68" type="curve"/>
      <point x="327" y="68"/>
      <point x="234" y="68"/>
      <point x="140" y="68" type="curve"/>
      <point x="140" y="0"/>
      <point x="140" y="68"/>
    </contour>
    <contour>
      <point x="274" y="802" type="line"/>
      <point x="212" y="968" type="line"/>
      <point x="107" y="968" type="line"/>
      <point x="193" y="802" type="line"/>
    </contour>
  </outline>
</glyph>
<glyph name="Ecircumflex" format="1">
  <advance width="420"/>
  <unicode hex="00CA"/>
  <outline>
    <contour>
      <point x="133" y="339" type="curve"/>
      <point x="202" y="339"/>
      <point x="272" y="339"/>
      <point x="342" y="339" type="curve"/>
      <point x="342" y="408"/>
      <point x="342" y="339"/>
      <point x="342" y="408" type="curve"/>
      <point x="272" y="408"/>
      <point x="202" y="408"/>
      <point x="133" y="408" type="curve"/>
      <point x="133" y="339"/>
      <point x="133" y="408"/>
    </contour>
    <contour>
      <point x="123" y="654" type="curve"/>
      <point x="210" y="654"/>
      <point x="296" y="654"/>
      <point x="382" y="654" type="curve"/>
      <point x="382" y="722"/>
      <point x="382" y="654"/>
      <point x="382" y="722" type="curve"/>
      <point x="296" y="722"/>
      <point x="210" y="722"/>
      <point x="123" y="722" type="curve"/>
      <point x="123" y="654"/>
      <point x="123" y="722"/>
    </contour>
    <contour>
      <point x="173" y="0" type="curve"/>
      <point x="173" y="722" type="line"/>
      <point x="88" y="722"/>
      <point x="173" y="722"/>
      <point x="88" y="722" type="curve"/>
      <point x="88" y="481"/>
      <point x="88" y="241"/>
      <point x="88" y="0" type="curve"/>
      <point x="173" y="0"/>
      <point x="88" y="0"/>
    </contour>
    <contour>
      <point x="123" y="0" type="curve"/>
      <point x="217" y="0"/>
      <point x="310" y="0"/>
      <point x="404" y="0" type="curve"/>
      <point x="404" y="68"/>
      <point x="404" y="0"/>
      <point x="404" y="68" type="curve"/>
      <point x="310" y="68"/>
      <point x="217" y="68"/>
      <point x="123" y="68" type="curve"/>
      <point x="123" y="0"/>
      <point x="123" y="68"/>
    </contour>
    <contour>
      <point x="165" y="801" type="line"/>
      <point x="251" y="967" type="line"/>
      <point x="147" y="967" type="line"/>
      <point x="85" y="801" type="line"/>
    </contour>
    <contour>
      <point x="347" y="801" type="line"/>
      <point x="286" y="967" type="line"/>
      <point x="181" y="967" type="line"/>
      <point x="267" y="801" type="line"/>
    </contour>
  </outline>
</glyph>
<glyph name="Edieresis" format="1">
  <advance width="433"/>
  <unicode hex="00CB"/>
  <outline>
    <contour>
      <point x="138" y="339" type="curve"/>
      <point x="208" y="339"/>
      <point x="278" y="339"/>
      <point x="347" y="339" type="curve"/>
      <point x="347" y="408"/>
      <point x="347" y="339"/>
      <point x="347" y="408" type="curve"/>
      <point x="278" y="408"/>
      <point x="208" y="408"/>
      <point x="138" y="408" type="curve"/>
      <point x="138" y="339"/>
      <point x="138" y="408"/>
    </contour>
    <contour>
      <point x="129" y="654" type="curve"/>
      <point x="215" y="654"/>
      <point x="301" y="654"/>
      <point x="387" y="654" type="curve"/>
      <point x="387" y="722"/>
      <point x="387" y="654"/>
      <point x="387" y="722" type="curve"/>
      <point x="301" y="722"/>
      <point x="215" y="722"/>
      <point x="129" y="722" type="curve"/>
      <point x="129" y="654"/>
      <point x="129" y="722"/>
    </contour>
    <contour>
      <point x="179" y="0" type="curve"/>
      <point x="179" y="722" type="line"/>
      <point x="93" y="722"/>
      <point x="179" y="722"/>
      <point x="93" y="722" type="curve"/>
      <point x="93" y="481"/>
      <point x="93" y="241"/>
      <point x="93" y="0" type="curve"/>
      <point x="179" y="0"/>
      <point x="93" y="0"/>
    </contour>
    <contour>
      <point x="129" y="0" type="curve"/>
      <point x="222" y="0"/>
      <point x="315" y="0"/>
      <point x="409" y="0" type="curve"/>
      <point x="409" y="68"/>
      <point x="409" y="0"/>
      <point x="409" y="68" type="curve"/>
      <point x="315" y="68"/>
      <point x="222" y="68"/>
      <point x="129" y="68" type="curve"/>
      <point x="129" y="0"/>
      <point x="129" y="68"/>
    </contour>
    <contour>
      <point x="199" y="841" type="curve"/>
      <point x="199" y="872"/>
      <point x="180" y="887"/>
      <point x="153" y="887" type="curve"/>
      <point x="125" y="887"/>
      <point x="108" y="870"/>
      <point x="108" y="841" type="curve"/>
      <point x="201" y="841"/>
      <point x="106" y="841"/>
      <point x="199" y="841" type="curve"/>
      <point x="199" y="810"/>
      <point x="180" y="796"/>
      <point x="153" y="796" type="curve"/>
      <point x="124" y="796"/>
      <point x="108" y="811"/>
      <point x="108" y="841" type="curve"/>
      <point x="201" y="841"/>
      <point x="106" y="841"/>
    </contour>
    <contour>
      <point x="336" y="841" type="curve"/>
      <point x="336" y="872"/>
      <point x="317" y="887"/>
      <point x="290" y="887" type="curve"/>
      <point x="262" y="887"/>
      <point x="245" y="870"/>
      <point x="245" y="841" type="curve"/>
      <point x="338" y="841"/>
      <point x="243" y="841"/>
      <point x="336" y="841" type="curve"/>
      <point x="336" y="810"/>
      <point x="317" y="796"/>
      <point x="290" y="796" type="curve"/>
      <point x="261" y="796"/>
      <point x="245" y="811"/>
      <point x="245" y="841" type="curve"/>
      <point x="338" y="841"/>
      <point x="243" y="841"/>
    </contour>
  </outline>
</glyph>
<glyph name="Igrave" format="1">
  <advance width="278"/>
  <unicode hex="00CC"/>
  <outline>
    <contour>
      <point x="185" y="0" type="curve"/>
      <point x="185" y="241"/>
      <point x="185" y="481"/>
      <point x="185" y="722" type="curve"/>
      <point x="99" y="722"/>
      <point x="185" y="722"/>
      <point x="99" y="722" type="curve"/>
      <point x="99" y="481"/>
      <point x="99" y="241"/>
      <point x="99" y="0" type="curve"/>
      <point x="185" y="0"/>
      <point x="99" y="0"/>
    </contour>
    <contour>
      <point x="185" y="802" type="line"/>
      <point x="123" y="968" type="line"/>
      <point x="19" y="968" type="line"/>
      <point x="104" y="802" type="line"/>
    </contour>
  </outline>
</glyph>
<glyph name="Icircumflex" format="1">
  <advance width="288"/>
  <unicode hex="00CE"/>
  <outline>
    <contour>
      <point x="188" y="0" type="curve"/>
      <point x="188" y="241"/>
      <point x="188" y="481"/>
      <point x="188" y="722" type="curve"/>
      <point x="103" y="722"/>
      <point x="188" y="722"/>
      <point x="103" y="722" type="curve"/>
      <point x="103" y="481"/>
      <point x="103" y="241"/>
      <point x="103" y="0" type="curve"/>
      <point x="188" y="0"/>
      <point x="103" y="0"/>
    </contour>
    <contour>
      <point x="97" y="801" type="line"/>
      <point x="182" y="967" type="line"/>
      <point x="78" y="967" type="line"/>
      <point x="16" y="801" type="line"/>
    </contour>
    <contour>
      <point x="279" y="801" type="line"/>
      <point x="217" y="967" type="line"/>
      <point x="112" y="967" type="line"/>
      <point x="198" y="801" type="line"/>
    </contour>
  </outline>
</glyph>
<glyph name="Idieresis" format="1">
  <advance width="233"/>
  <unicode hex="00CF"/>
  <outline>
    <contour>
      <point x="162" y="0" type="curve"/>
      <point x="162" y="241"/>
      <point x="162" y="481"/>
      <point x="162" y="722" type="curve"/>
      <point x="76" y="722"/>
      <point x="162" y="722"/>
      <point x="76" y="722" type="curve"/>
      <point x="76" y="481"/>
      <point x="76" y="241"/>
      <point x="76" y="0" type="curve"/>
      <point x="162" y="0"/>
      <point x="76" y="0"/>
    </contour>
    <contour>
      <point x="98" y="841" type="curve"/>
      <point x="98" y="872"/>
      <point x="79" y="887"/>
      <point x="52" y="887" type="curve"/>
      <point x="24" y="887"/>
      <point x="7" y="870"/>
      <point x="7" y="841" type="curve"/>
      <point x="100" y="841"/>
      <point x="5" y="841"/>
      <point x="98" y="841" type="curve"/>
      <point x="98" y="810"/>
      <point x="79" y="796"/>
      <point x="52" y="796" type="curve"/>
      <point x="24" y="796"/>
      <point x="7" y="811"/>
      <point x="7" y="841" type="curve"/>
      <point x="100" y="841"/>
      <point x="5" y="841"/>
    </contour>
    <contour>
      <point x="235" y="841" type="curve"/>
      <point x="235" y="872"/>
      <point x="216" y="887"/>
      <point x="189" y="887" type="curve"/>
      <point x="161" y="887"/>
      <point x="144" y="870"/>
      <point x="144" y="841" type="curve"/>
      <point x="237" y="841"/>
      <point x="142" y="841"/>
      <point x="235" y="841" type="curve"/>
      <point x="235" y="810"/>
      <point x="216" y="796"/>
      <point x="189" y="796" type="curve"/>
      <point x="161" y="796"/>
      <point x="144" y="811"/>
      <point x="144" y="841" type="curve"/>
      <point x="237" y="841"/>
      <point x="142" y="841"/>
    </contour>
  </outline>
</glyph>
<glyph name="Ntilde" format="1">
  <advance width="616"/>
  <unicode hex="00D1"/>
  <outline>
    <contour>
      <point x="523" y="0" type="curve"/>
      <point x="409" y="241"/>
      <point x="295" y="481"/>
      <point x="181" y="722" type="curve"/>
      <point x="93" y="722"/>
      <point x="182" y="722"/>
      <point x="94" y="722" type="curve"/>
      <point x="207" y="481"/>
      <point x="322" y="241"/>
      <point x="436" y="0" type="curve"/>
      <point x="524" y="0"/>
      <point x="435" y="0"/>
    </contour>
    <contour>
      <point x="436" y="722" type="curve"/>
      <point x="436" y="481"/>
      <point x="436" y="241"/>
      <point x="436" y="0" type="curve"/>
      <point x="522" y="0"/>
      <point x="436" y="0"/>
      <point x="522" y="0" type="curve"/>
      <point x="522" y="241"/>
      <point x="522" y="481"/>
      <point x="522" y="722" type="curve"/>
      <point x="436" y="722"/>
      <point x="522" y="722"/>
    </contour>
    <contour>
      <point x="180" y="0" type="curve"/>
      <point x="180" y="241"/>
      <point x="180" y="481"/>
      <point x="180" y="722" type="curve"/>
      <point x="94" y="722"/>
      <point x="180" y="722"/>
      <point x="94" y="722" type="curve"/>
      <point x="94" y="481"/>
      <point x="94" y="241"/>
      <point x="94" y="0" type="curve"/>
      <point x="180" y="0"/>
      <point x="94" y="0"/>
    </contour>
    <contour>
      <point x="403" y="962" type="curve"/>
      <point x="390" y="921"/>
      <point x="383" y="895"/>
      <point x="363" y="895" type="curve"/>
      <point x="338" y="895"/>
      <point x="327" y="908"/>
      <point x="313" y="927" type="curve"/>
      <point x="293" y="951"/>
      <point x="282" y="966"/>
      <point x="254" y="966" type="curve"/>
      <point x="193" y="966"/>
      <point x="174" y="901"/>
      <point x="161" y="840" type="curve"/>
      <point x="225" y="805"/>
      <point x="161" y="841"/>
      <point x="225" y="805" type="curve"/>
      <point x="239" y="850"/>
      <point x="247" y="875"/>
      <point x="274" y="875" type="curve"/>
      <point x="295" y="875"/>
      <point x="303" y="862"/>
      <point x="314" y="845" type="curve"/>
      <point x="336" y="819"/>
      <point x="350" y="801"/>
      <point x="383" y="801" type="curve"/>
      <point x="443" y="801"/>
      <point x="454" y="865"/>
      <point x="472" y="929" type="curve"/>
      <point x="403" y="962"/>
      <point x="472" y="928"/>
    </contour>
  </outline>
</glyph>
<glyph name="Oacute" format="1">
  <advance width="561"/>
  <unicode hex="00D3"/>
  <outline>
    <contour>
      <point x="139" y="360" type="curve" name="FullCurve"/>
      <point x="139" y="513"/>
      <point x="149" y="656"/>
      <point x="279" y="656" type="curve" name="FullCurve"/>
      <point x="404" y="656"/>
      <point x="422" y="516"/>
      <point x="422" y="363" type="curve" name="FullCurve"/>
      <point x="422" y="211"/>
      <point x="411" y="67"/>
      <point x="282" y="67" type="curve" name="FullCurve"/>
      <point x="155" y="67"/>
      <point x="139" y="206"/>
      <point x="139" y="360" type="curve" name="FullCurve"/>
      <point x="53" y="360"/>
      <point x="139" y="360"/>
      <point x="53" y="360" type="curve" name="FullCurve"/>
      <point x="53" y="161"/>
      <point x="107" y="-5"/>
      <point x="279" y="-5" type="curve" name="FullCurve"/>
      <point x="453" y="-5"/>
      <point x="508" y="163"/>
      <point x="508" y="363" type="curve" name="FullCurve"/>
      <point x="508" y="560"/>
      <point x="456" y="727"/>
      <point x="282" y="727" type="curve" name="FullCurve"/>
      <point x="108" y="727"/>
      <point x="53" y="559"/>
      <point x="53" y="360" type="curve" name="FullCurve"/>
      <point x="139" y="360"/>
      <point x="53" y="360"/>
    </contour>
    <contour>
      <point x="319" y="801" type="line"/>
      <point x="405" y="967" type="line"/>
      <point x="301" y="967" type="line"/>
      <point x="239" y="801" type="line"/>
    </contour>
  </outline>
</glyph>
<glyph name="Odieresis" format="1">
  <advance width="561"/>
  <unicode hex="00D6"/>
  <outline>
    <contour>
      <point x="139" y="360" type="curve" name="FullCurve"/>
      <point x="139" y="513"/>
      <point x="149" y="656"/>
      <point x="279" y="656" type="curve" name="FullCurve"/>
      <point x="404" y="656"/>
      <point x="422" y="516"/>
      <point x="422" y="363" type="curve" name="FullCurve"/>
      <point x="422" y="211"/>
      <point x="411" y="67"/>
      <point x="282" y="67" type="curve" name="FullCurve"/>
      <point x="155" y="67"/>
      <point x="139" y="206"/>
      <point x="139" y="360" type="curve" name="FullCurve"/>
      <point x="53" y="360"/>
      <point x="139" y="360"/>
      <point x="53" y="360" type="curve" name="FullCurve"/>
      <point x="53" y="161"/>
      <point x="107" y="-5"/>
      <point x="279" y="-5" type="curve" name="FullCurve"/>
      <point x="453" y="-5"/>
      <point x="508" y="163"/>
      <point x="508" y="363" type="curve" name="FullCurve"/>
      <point x="508" y="560"/>
      <point x="456" y="727"/>
      <point x="282" y="727" type="curve" name="FullCurve"/>
      <point x="108" y="727"/>
      <point x="53" y="559"/>
      <point x="53" y="360" type="curve" name="FullCurve"/>
      <point x="139" y="360"/>
      <point x="53" y="360"/>
    </contour>
    <contour>
      <point x="258" y="841" type="curve"/>
      <point x="258" y="872"/>
      <point x="239" y="887"/>
      <point x="212" y="887" type="curve"/>
      <point x="184" y="887"/>
      <point x="167" y="870"/>
      <point x="167" y="841" type="curve"/>
      <point x="260" y="841"/>
      <point x="165" y="841"/>
      <point x="258" y="841" type="curve"/>
      <point x="258" y="810"/>
      <point x="239" y="796"/>
      <point x="212" y="796" type="curve"/>
      <point x="183" y="796"/>
      <point x="167" y="811"/>
      <point x="167" y="841" type="curve"/>
      <point x="260" y="841"/>
      <point x="165" y="841"/>
    </contour>
    <contour>
      <point x="395" y="841" type="curve"/>
      <point x="395" y="872"/>
      <point x="376" y="887"/>
      <point x="349" y="887" type="curve"/>
      <point x="321" y="887"/>
      <point x="303" y="870"/>
      <point x="303" y="841" type="curve"/>
      <point x="397" y="841"/>
      <point x="302" y="841"/>
      <point x="395" y="841" type="curve"/>
      <point x="395" y="810"/>
      <point x="376" y="796"/>
      <point x="349" y="796" type="curve"/>
      <point x="320" y="796"/>
      <point x="303" y="811"/>
      <point x="303" y="841" type="curve"/>
      <point x="397" y="841"/>
      <point x="302" y="841"/>
    </contour>
  </outline>
</glyph>
<glyph name="multiply" format="1">
  <advance width="543"/>
  <unicode hex="00D7"/>
  <outline>
    <contour>
      <point x="103" y="85" type="line"/>
      <point x="490" y="485" type="line"/>
      <point x="440" y="535" type="line"/>
      <point x="53" y="135" type="line"/>
    </contour>
    <contour>
      <point x="490" y="134" type="line"/>
      <point x="103" y="533" type="line"/>
      <point x="53" y="483" type="line"/>
      <point x="440" y="84" type="line"/>
    </contour>
  </outline>
</glyph>
<glyph name="Uacute" format="1">
  <advance width="571"/>
  <unicode hex="00DA"/>
  <outline>
    <contour>
      <point x="86" y="722" type="curve"/>
      <point x="86" y="582"/>
      <point x="85" y="411"/>
      <point x="86" y="271" type="curve"/>
      <point x="86" y="105"/>
      <point x="133" y="-5"/>
      <point x="284" y="-5" type="curve"/>
      <point x="435" y="-5"/>
      <point x="485" y="106"/>
      <point x="485" y="274" type="curve"/>
      <point x="485" y="412"/>
      <point x="485" y="583"/>
      <point x="485" y="722" type="curve"/>
      <point x="406" y="722"/>
      <point x="485" y="722"/>
      <point x="406" y="722" type="curve"/>
      <point x="406" y="579"/>
      <point x="406" y="407"/>
      <point x="406" y="264" type="curve"/>
      <point x="406" y="154"/>
      <point x="381" y="71"/>
      <point x="290" y="71" type="curve"/>
      <point x="183" y="71"/>
      <point x="165" y="161"/>
      <point x="165" y="285" type="curve"/>
      <point x="165" y="420"/>
      <point x="165" y="587"/>
      <point x="165" y="722" type="curve"/>
      <point x="86" y="722"/>
      <point x="165" y="722"/>
    </contour>
    <contour>
      <point x="327" y="801" type="line"/>
      <point x="413" y="967" type="line"/>
      <point x="309" y="967" type="line"/>
      <point x="247" y="801" type="line"/>
    </contour>
  </outline>
</glyph>
<glyph name="Ucircumflex" format="1">
  <advance width="571"/>
  <unicode hex="00DB"/>
  <outline>
    <contour>
      <point x="86" y="722" type="curve"/>
      <point x="86" y="582"/>
      <point x="85" y="411"/>
      <point x="86" y="271" type="curve"/>
      <point x="86" y="105"/>
      <point x="133" y="-5"/>
      <point x="284" y="-5" type="curve"/>
      <point x="435" y="-5"/>
      <point x="485" y="106"/>
      <point x="485" y="274" type="curve"/>
      <point x="485" y="412"/>
      <point x="485" y="583"/>
      <point x="485" y="722" type="curve"/>
      <point x="406" y="722"/>
      <point x="485" y="722"/>
      <point x="406" y="722" type="curve"/>
      <point x="406" y="579"/>
      <point x="406" y="407"/>
      <point x="406" y="264" type="curve"/>
      <point x="406" y="154"/>
      <point x="381" y="71"/>
      <point x="290" y="71" type="curve"/>
      <point x="183" y="71"/>
      <point x="165" y="161"/>
      <point x="165" y="285" type="curve"/>
      <point x="165" y="420"/>
      <point x="165" y="587"/>
      <point x="165" y="722" type="curve"/>
      <point x="86" y="722"/>
      <point x="165" y="722"/>
    </contour>
    <contour>
      <point x="238" y="801" type="line"/>
      <point x="324" y="967" type="line"/>
      <point x="219" y="967" type="line"/>
      <point x="157" y="801" type="line"/>
    </contour>
    <contour>
      <point x="420" y="801" type="line"/>
      <point x="358" y="967" type="line"/>
      <point x="254" y="967" type="line"/>
      <point x="339" y="801" type="line"/>
    </contour>
  </outline>
</glyph>
<glyph name="Thorn" format="1">
  <advance width="448"/>
  <unicode hex="00DE"/>
  <outline>
    <contour>
      <point x="125" y="228" type="curve"/>
      <point x="162" y="201"/>
      <point x="202" y="182"/>
      <point x="251" y="182" type="curve"/>
      <point x="358" y="184"/>
      <point x="412" y="272"/>
      <point x="412" y="398" type="curve"/>
      <point x="412" y="517"/>
      <point x="349" y="613"/>
      <point x="226" y="613" type="curve"/>
      <point x="197" y="613"/>
      <point x="168" y="613"/>
      <point x="140" y="613" type="curve"/>
      <point x="140" y="544"/>
      <point x="140" y="613"/>
      <point x="140" y="544" type="curve"/>
      <point x="165" y="544"/>
      <point x="189" y="544"/>
      <point x="215" y="544" type="curve"/>
      <point x="295" y="544"/>
      <point x="327" y="474"/>
      <point x="327" y="395" type="curve"/>
      <point x="327" y="317"/>
      <point x="308" y="248"/>
      <point x="240" y="248" type="curve"/>
      <point x="204" y="248"/>
      <point x="181" y="263"/>
      <point x="152" y="285" type="curve"/>
      <point x="126" y="230"/>
      <point x="152" y="285"/>
    </contour>
    <contour>
      <point x="180" y="0" type="curve"/>
      <point x="180" y="241"/>
      <point x="180" y="481"/>
      <point x="180" y="722" type="curve"/>
      <point x="94" y="722"/>
      <point x="180" y="722"/>
      <point x="94" y="722" type="curve"/>
      <point x="94" y="481"/>
      <point x="94" y="241"/>
      <point x="94" y="0" type="curve"/>
      <point x="180" y="0"/>
      <point x="94" y="0"/>
    </contour>
  </outline>
</glyph>
<glyph name="germandbls" format="1">
  <advance width="445"/>
  <unicode hex="00DF"/>
  <outline>
    <contour>
      <point x="165" y="0" type="curve"/>
      <point x="165" y="201"/>
      <point x="165" y="401"/>
      <point x="165" y="602" type="curve"/>
      <point x="79" y="602"/>
      <point x="165" y="602"/>
      <point x="79" y="602" type="curve"/>
      <point x="79" y="401"/>
      <point x="79" y="201"/>
      <point x="79" y="0" type="curve"/>
      <point x="165" y="0"/>
      <point x="79" y="0"/>
    </contour>
    <contour>
      <point x="165" y="602" type="curve"/>
      <point x="165" y="669"/>
      <point x="177" y="731"/>
      <point x="232" y="731" type="curve"/>
      <point x="285" y="731"/>
      <point x="305" y="675"/>
      <point x="305" y="608" type="curve"/>
      <point x="305" y="541"/>
      <point x="278" y="484"/>
      <point x="221" y="484" type="curve"/>
      <point x="221" y="426"/>
      <point x="221" y="484"/>
      <point x="221" y="426" type="curve"/>
      <point x="326" y="426"/>
      <point x="387" y="503"/>
      <point x="387" y="612" type="curve"/>
      <point x="387" y="720"/>
      <point x="336" y="800"/>
      <point x="235" y="800" type="curve"/>
      <point x="130" y="800"/>
      <point x="79" y="714"/>
      <point x="79" y="602" type="curve"/>
      <point x="165" y="602"/>
      <point x="79" y="602"/>
    </contour>
    <contour>
      <point x="295" y="81" type="curve"/>
      <point x="375" y="108"/>
      <point x="407" y="179"/>
      <point x="407" y="280" type="curve"/>
      <point x="407" y="397"/>
      <point x="344" y="484"/>
      <point x="221" y="484" type="curve"/>
      <point x="221" y="426"/>
      <point x="221" y="484"/>
      <point x="221" y="426" type="curve"/>
      <point x="287" y="426"/>
      <point x="326" y="360"/>
      <point x="326" y="282" type="curve"/>
      <point x="326" y="219"/>
      <point x="311" y="168"/>
      <point x="266" y="149" type="curve"/>
      <point x="295" y="81"/>
      <point x="266" y="149"/>
    </contour>
  </outline>
</glyph>
<glyph name="aacute" format="1">
  <advance width="428"/>
  <unicode hex="00E1"/>
  <outline>
    <contour>
      <point x="353" y="0" type="curve"/>
      <point x="353" y="126"/>
      <point x="353" y="254"/>
      <point x="353" y="380" type="curve"/>
      <point x="353" y="483"/>
      <point x="303" y="538"/>
      <point x="209" y="538" type="curve"/>
      <point x="140" y="538"/>
      <point x="95" y="502"/>
      <point x="64" y="462" type="curve"/>
      <point x="100" y="405"/>
      <point x="64" y="463"/>
      <point x="99" y="406" type="curve"/>
      <point x="118" y="432"/>
      <point x="150" y="467"/>
      <point x="197" y="467" type="curve"/>
      <point x="250" y="467"/>
      <point x="268" y="427"/>
      <point x="268" y="368" type="curve"/>
      <point x="268" y="245"/>
      <point x="268" y="123"/>
      <point x="268" y="0" type="curve"/>
      <point x="353" y="0"/>
      <point x="268" y="0"/>
    </contour>
    <contour>
      <point x="307" y="337" type="curve"/>
      <point x="258" y="327"/>
      <point x="232" y="324"/>
      <point x="182" y="314" type="curve"/>
      <point x="94" y="297"/>
      <point x="42" y="245"/>
      <point x="42" y="154" type="curve"/>
      <point x="42" y="60"/>
      <point x="78" y="-5"/>
      <point x="167" y="-5" type="curve"/>
      <point x="261" y="-5"/>
      <point x="292" y="81"/>
      <point x="334" y="152" type="curve"/>
      <point x="289" y="191"/>
      <point x="334" y="152"/>
      <point x="289" y="191" type="curve"/>
      <point x="269" y="126"/>
      <point x="248" y="63"/>
      <point x="188" y="63" type="curve"/>
      <point x="136" y="63"/>
      <point x="125" y="103"/>
      <point x="125" y="159" type="curve"/>
      <point x="125" y="205"/>
      <point x="148" y="244"/>
      <point x="185" y="253" type="curve"/>
      <point x="238" y="263"/>
      <point x="259" y="268"/>
      <point x="312" y="278" type="curve"/>
      <point x="307" y="337"/>
      <point x="312" y="278"/>
    </contour>
    <contour>
      <point x="250" y="638" type="line"/>
      <point x="336" y="804" type="line"/>
      <point x="231" y="804" type="line"/>
      <point x="169" y="638" type="line"/>
    </contour>
  </outline>
</glyph>
<glyph name="atilde" format="1">
  <advance width="429"/>
  <unicode hex="00E3"/>
  <outline>
    <contour>
      <point x="353" y="0" type="curve"/>
      <point x="353" y="126"/>
      <point x="353" y="254"/>
      <point x="353" y="380" type="curve"/>
      <point x="353" y="483"/>
      <point x="303" y="538"/>
      <point x="209" y="538" type="curve"/>
      <point x="140" y="538"/>
      <point x="95" y="502"/>
      <point x="64" y="462" type="curve"/>
      <point x="100" y="405"/>
      <point x="64" y="463"/>
      <point x="99" y="406" type="curve"/>
      <point x="118" y="432"/>
      <point x="150" y="467"/>
      <point x="197" y="467" type="curve"/>
      <point x="250" y="467"/>
      <point x="268" y="427"/>
      <point x="268" y="368" type="curve"/>
      <point x="268" y="245"/>
      <point x="268" y="123"/>
      <point x="268" y="0" type="curve"/>
      <point x="353" y="0"/>
      <point x="268" y="0"/>
    </contour>
    <contour>
      <point x="307" y="337" type="curve"/>
      <point x="258" y="327"/>
      <point x="232" y="324"/>
      <point x="182" y="314" type="curve"/>
      <point x="94" y="297"/>
      <point x="42" y="245"/>
      <point x="42" y="154" type="curve"/>
      <point x="42" y="60"/>
      <point x="78" y="-5"/>
      <point x="167" y="-5" type="curve"/>
      <point x="261" y="-5"/>
      <point x="292" y="81"/>
      <point x="334" y="152" type="curve"/>
      <point x="289" y="191"/>
      <point x="334" y="152"/>
      <point x="289" y="191" type="curve"/>
      <point x="269" y="126"/>
      <point x="248" y="63"/>
      <point x="188" y="63" type="curve"/>
      <point x="136" y="63"/>
      <point x="125" y="103"/>
      <point x="125" y="159" type="curve"/>
      <point x="125" y="205"/>
      <point x="148" y="244"/>
      <point x="185" y="253" type="curve"/>
      <point x="238" y="263"/>
      <point x="259" y="268"/>
      <point x="312" y="278" type="curve"/>
      <point x="307" y="337"/>
      <point x="312" y="278"/>
    </contour>
    <contour>
      <point x="302" y="800" type="curve"/>
      <point x="289" y="758"/>
      <point x="282" y="732"/>
      <point x="261" y="732" type="curve"/>
      <point x="236" y="732"/>
      <point x="226" y="746"/>
      <point x="212" y="765" type="curve"/>
      <point x="192" y="788"/>
      <point x="181" y="804"/>
      <point x="153" y="804" type="curve"/>
      <point x="92" y="804"/>
      <point x="73" y="738"/>
      <point x="60" y="678" type="curve"/>
      <point x="124" y="642"/>
      <point x="60" y="679"/>
      <point x="124" y="642" type="curve"/>
      <point x="138" y="687"/>
      <point x="146" y="713"/>
      <point x="173" y="713" type="curve"/>
      <point x="194" y="713"/>
      <point x="201" y="699"/>
      <point x="213" y="682" type="curve"/>
      <point x="235" y="656"/>
      <point x="249" y="639"/>
      <point x="282" y="639" type="curve"/>
      <point x="342" y="639"/>
      <point x="353" y="702"/>
      <point x="371" y="766" type="curve"/>
      <point x="302" y="800"/>
      <point x="371" y="766"/>
    </contour>
  </outline>
</glyph>
